<?xml version="1.0" encoding="UTF-8"?>
<svg id="Layer_2" data-name="Layer 2" xmlns="http://www.w3.org/2000/svg" viewBox="0 0 955.8 805.27">
  <defs>
    <style>
      .cls-1 {
        fill: #f4d13b;
      }

      .cls-2 {
        fill: #f953b2;
      }

      .cls-3 {
        fill: #6966ed;
      }

      .cls-4 {
        fill: #fff;
      }
    </style>
  </defs>
  <g id="Layer_1-2" data-name="Layer 1">
    <g>
      <g>
        <path class="cls-3" d="M150.94,280.79c-24.81,0-44.92-46.38-44.92-103.59s20.11-103.59,44.92-103.59l327.58,32.24c24.27,2.39,42.64,20.76,42.64,42.63v62.75c0,22.17-18.86,40.69-43.5,42.71l-326.73,26.84Z"/>
        <path class="cls-2" d="M165.22,85.8c-5.65-7.78-12.1-12.19-18.95-12.19-22.23,0-40.25,46.38-40.25,103.59s18.02,103.59,40.25,103.59c6.85,0,13.31-4.41,18.95-12.19-12.67-17.44-21.29-51.83-21.29-91.4s8.62-73.95,21.29-91.4Z"/>
        <path class="cls-4" d="M165.22,85.8c-12.67,17.44-21.29,51.83-21.29,91.4s8.62,73.95,21.29,91.4c12.67-17.44,21.29-51.83,21.29-91.4s-8.62-73.95-21.29-91.4Z"/>
        <path class="cls-3" d="M658.55,144.22v7.3l-182.69-17.92v103.04l182.69-16.21v5.59c0,9.14,6.25,16.55,13.95,16.55s13.95-7.41,13.95-16.55v-75.35c0-3.57-2.89-6.46-6.46-6.46h-20.44"/>
        <path class="cls-1" d="M240.37,319.98c-24.81,0-44.92-46.38-44.92-103.59s20.11-103.59,44.92-103.59l327.58,32.24c24.27,2.39,42.64,20.76,42.64,42.63v62.75c0,22.17-18.86,40.69-43.5,42.71l-326.73,26.84Z"/>
        <path class="cls-2" d="M255.71,126.49c-5.89-8.71-12.72-13.69-20.01-13.69-22.23,0-40.25,46.38-40.25,103.59s18.02,103.59,40.25,103.59c7.28,0,14.11-4.98,20.01-13.69-12.09-17.87-20.24-51.44-20.24-89.9s8.15-72.03,20.24-89.9Z"/>
        <path class="cls-4" d="M255.71,126.49c-12.09,17.87-20.24,51.44-20.24,89.9s8.15,72.03,20.24,89.9c12.09-17.87,20.24-51.44,20.24-89.9s-8.15-72.03-20.24-89.9Z"/>
        <path class="cls-1" d="M747.75,186.8v68.92c0,3.09-2.5,5.59-5.59,5.59h-16.72c-3.09,0-5.59-2.5-5.59-5.59h0s-182.69,16.21-182.69,16.21v-103.04l182.69,17.92h0c0-4.03,3.27-7.3,7.3-7.3h13.3c4.03,0,7.3,3.27,7.3,7.3Z"/>
        <path d="M732.59,200.9c.48,2.12,.3,3.94-1.42,5.39-1.54,1.3-3.56,1.92-5.49,2.35-4.38,.96-8.93,.72-13.33,1.6s-8.82,3.25-8.98,8.09c-.15,4.29,4.56,7.15,7.83,8.96,4.33,2.4,9.15,3.75,14.09,4.04,2.52,.15,2.51-3.77,0-3.92-3.95-.23-7.86-1.29-11.38-3.11-1.68-.87-3.33-1.89-4.78-3.1-1.32-1.1-2.37-2.34-1.48-4.08s2.93-2.42,4.67-2.86c2.05-.52,4.15-.71,6.25-.87,4.18-.33,8.43-.59,12.3-2.34,1.92-.87,3.7-2.22,4.81-4.03,1.35-2.2,1.25-4.73,.7-7.16s-4.33-1.42-3.78,1.04h0Z"/>
        <g>
          <path d="M502.9,103.59c-4.88,7.23-9.76,14.47-14.64,21.7-2.63,3.9-5.32,7.48-10.41,8.22-8.2,1.2-15.43-6.26-13.95-14.42,.6-3.29,2.85-6.26,4.56-9.08l8.31-13.66,7.83-12.89c2.25-3.71,4.5-7.26,7.79-10.2,6.62-5.93,14.7-7.66,23.31-7.66,2.98,0,6.04-.26,8.83,.97,4.22,1.86,6.74,6,6.86,10.54,.1,3.78,5.78,3.79,5.87,0,.16-6.27,5.11-11.53,11.51-11.51s11.35,5.22,11.51,11.51c.1,3.78,5.78,3.79,5.87,0,.16-6.27,5.11-11.53,11.51-11.51s11.35,5.22,11.51,11.51c.1,3.78,5.78,3.79,5.87,0,.16-6.18,4.96-11.39,11.27-11.51s11.35,4.98,11.73,11.1c.24,3.83,.02,7.73,.02,11.56,0,16.61,0,33.21,0,49.82,0,4.58,0,9.16,0,13.73,0,2.85,4.07,4.08,5.47,1.48,3.66-6.75,7.32-13.5,10.98-20.26,2.11-3.9,4.71-7.16,9.36-8.05,6.94-1.33,13.76,3.94,14.15,11.03,.28,5.17-3.44,10.65-5.61,15.13-4,8.29-8,16.58-12,24.87-6.52,13.51-12.95,27.06-19.62,40.48-17.62,35.44-33.54,71.71-48.29,108.44-6.61,16.45-13.02,32.99-19.6,49.45-6.58,16.47-13.08,32.99-18.95,49.73-11.62,33.16-21.19,67.79-22.14,103.12-.81,30.15,4.23,66.49,32.65,83.46,25.15,15.01,57.2,6.08,81.77-5.49,26.54-12.5,50.99-30.58,71.36-51.65,23.97-24.8,42.74-54.29,57.33-85.44,3.55-7.58,6.85-15.27,9.95-23.03,1.4-3.51-4.28-5.03-5.67-1.56-12.82,32.06-29.5,62.95-51.43,89.74-19.18,23.44-42.43,43.31-68.63,58.51-12.99,7.53-26.78,13.96-41.36,17.74-13.23,3.43-27.43,4.61-40.64,.44-14.53-4.59-25.11-16.15-31.39-29.71-6.8-14.66-8.13-31.6-8.14-47.56-.03-35.37,9.32-70.17,20.75-103.39,11.43-33.22,25.03-65.76,38.03-98.39,14.73-36.95,30.66-73.43,48.29-109.09,6.8-13.74,13.42-27.57,20.09-41.37,4.06-8.42,8.13-16.85,12.19-25.27,2.12-4.4,5.04-9.05,6.33-13.81,3.99-14.8-12.07-27.43-25.54-20.39-4.01,2.1-6.4,5.54-8.48,9.39-2.2,4.07-4.41,8.13-6.61,12.2-1.4,2.59-2.8,5.17-4.21,7.76l5.47,1.48c0-13.67,0-27.34,0-41,0-8.52,0-17.04,0-25.56,0-5.9,.59-12-2.7-17.26-4.06-6.49-11.96-9.7-19.38-7.64-7.55,2.1-12.5,9.04-12.7,16.75h5.87c-.25-9.45-7.75-17.39-17.39-17.39s-17.14,7.94-17.39,17.39h5.87c-.25-9.45-7.75-17.39-17.39-17.39s-17.14,7.94-17.39,17.39h5.87c-.25-9.41-7.51-17.05-17-17.38-6.87-.24-13.96-.17-20.45,2.32-7.77,2.98-14.15,8.39-18.5,15.48-2.21,3.6-4.39,7.21-6.58,10.82-3.31,5.44-6.62,10.88-9.93,16.33-1.95,3.2-4.32,6.43-5.71,9.94-3.42,8.65,.52,18.98,8.95,23.01,8.34,3.99,17.96,1.11,23.2-6.34,5.73-8.13,11.14-16.51,16.7-24.76,2.12-3.14-2.97-6.09-5.07-2.97h0Z"/>
          <path d="M502.5,97.56c0,15.36,0,30.72,0,46.08,0,3.72,0,7.45,0,11.17,0,1.95-.03,3.32-.81,5.11-.89,2.05-2.01,4.02-3.01,6.02-3.21,6.43-6.4,12.86-9.57,19.31-13.1,26.64-25.87,53.44-38.14,80.47-24.32,53.58-47.41,108.11-65.84,164.03-17.53,53.16-28.87,108.54-26.79,164.74,1.55,41.98,12.51,84.19,34.04,120.43,21.1,35.51,52.71,64.13,91.63,78.65,45.61,17.02,97.22,14.27,142.97-.61,47.67-15.51,90.53-43.38,128.58-75.58,41.82-35.39,77.67-76.87,109.9-121.04,11.59-15.88,22.27-31.63,31.9-48.72,13.46-23.88,25.48-48.65,35.36-74.23,11.33-29.33,20.4-60.61,20.98-92.26,.52-28.35-7.31-57.29-29.29-76.52-7.15-6.25-15.78-9.97-23.48-15.46-6.34-4.52-12.26-9.98-16.2-16.76-6.74-11.59-5.79-25.19-4.35-38,3.38-30.19,9.17-64.83-10.38-90.89-16.85-22.48-44.44-36.78-71.66-41.98s-56.35-1.74-75.01,19.1c-4.7,5.25-8.38,11.27-11.11,17.75-3.57,8.5-5.22,17.72-7.67,26.57-5.59,20.24-10.07,40.95-11.7,61.92-1.85,23.76-.31,50.99,15.55,70.19,10.33,12.51,25.8,18.53,41.65,19.82,11.88,.96,24.05-.51,35.56-3.51,1.88-.49,3.76-1,5.6-1.65,3.54-1.25,2.02-6.92-1.56-5.67-1.89,.66-3.83,1.19-5.76,1.69-2.11,.55-4.24,1.03-6.37,1.46-2.52,.5-5.77,1.03-7.58,1.25-13.5,1.67-27.61,1.19-39.88-4.3-16.72-7.49-26-23.18-29.66-40.69-2.94-14.07-2.67-28.74-1.27-42.98,2.09-21.26,7.06-42.22,13.01-62.7,2.28-7.83,3.53-15.64,7.26-23.01,2.96-5.85,6.83-11.14,11.63-15.61,9.29-8.64,21.5-13.41,33.95-15.13,27.14-3.75,56.16,5.21,78.51,20.47,10.57,7.22,20.16,16.41,26.48,27.63,7.61,13.5,8.24,29.53,7.85,44.7s-3.49,30.87-4.25,46.4c-.65,13.28,1.94,25.89,10.48,36.39,5.29,6.51,12.12,11.69,19.19,16.12,4.23,2.65,8.95,4.66,12.92,7.68,2.79,2.12,5.43,4.44,7.91,6.91,9.61,9.6,16.21,21.67,19.84,34.71,7.89,28.37,3.13,59.18-4.4,87.09s-19.51,56.85-32.94,83.65c-8.2,16.36-17.04,32.45-26.78,47.95-7.22,11.49-15.5,22.39-23.56,33.29-16.41,22.17-33.77,43.66-52.47,63.95-34.25,37.16-73.26,70.93-117.04,96.42-42.3,24.63-90.13,41.11-139.55,39.86-23.26-.59-46.63-4.81-68.11-13.93-18.51-7.86-35.45-19.2-49.94-33.13-29.56-28.4-48.47-66.4-57.91-105.98-11.49-48.22-8.53-99.33,1.32-147.56,11.21-54.94,31.7-107.74,52.95-159.46s46.74-106.66,72.57-158.84c3.09-6.23,6.24-12.43,9.31-18.67,1.5-3.04,1-6.32,1.01-9.67s0-6.98,0-10.47c0-14.66,0-29.32,0-43.98,0-3.78-5.87-3.79-5.87,0h0Z"/>
          <path d="M531.39,76.77v55.46c0,3.78,5.87,3.79,5.87,0v-55.46c0-3.78-5.87-3.79-5.87,0h0Z"/>
          <path d="M560.29,77.06v55.46c0,3.78,5.87,3.79,5.87,0v-55.46c0-3.78-5.87-3.79-5.87,0h0Z"/>
          <path d="M589.19,77.34v55.46c0,3.78,5.87,3.79,5.87,0v-55.46c0-3.78-5.87-3.79-5.87,0h0Z"/>
        </g>
        <g>
          <path d="M335.17,70.31c3.85,6.29,7.71,12.57,11.57,18.86,2.35,3.83,4.69,7.66,7.05,11.49,3.63,5.88,9.16,10.48,16.46,9.33,8.11-1.28,14.92-7.54,15.97-15.74l-5.47,1.48c3.94,6.42,7.89,13.29,16.21,14.19,4.06,.44,8.13-1.13,11.53-3.27,4.46-2.81,7.05-7.24,7.71-12.4l-5.47,1.48c1.16,1.89,2.27,3.81,3.49,5.67,2.54,3.87,6.55,6.67,11.12,7.57,10,1.95,19.55-4.55,20.85-14.72l-5.47,1.48c2.98,4.86,5.72,10.17,11.12,12.75,6.75,3.23,15.31,.65,20.21-4.81,4.76-5.3,5.46-12.91,1.84-19.02-1.11-1.87-2.28-3.71-3.42-5.57-9.34-15.22-18.64-30.46-28.03-45.65-3.42-5.53-8.78-9.09-15.47-8.59-3.76,.28-8.23,1.4-11.33,3.67-3.81,2.78-5.09,6.87-5.6,11.37l5.47-1.48c-1.16-1.89-2.27-3.81-3.49-5.67-2.54-3.87-6.55-6.67-11.12-7.57-10-1.95-19.55,4.55-20.85,14.72l5.47-1.48c-1.16-1.89-2.27-3.81-3.49-5.67-2.54-3.87-6.55-6.67-11.12-7.57-10-1.95-19.55,4.55-20.85,14.72l5.47-1.48c-1.31-2.13-2.52-4.35-3.97-6.38-2.95-4.1-7.53-6.6-12.53-7.13-4.49-.47-8.93,.74-12.32,3.7-3.08,2.69-5.76,5.76-8.11,9.11-10.69,15.25-13.66,35-15.35,53.12s-2.48,36.44-2.35,54.69c.18,25.52,.94,51.03,2.19,76.52,1.79,36.52,4.6,73.02,9.1,109.31,4.51,36.38,10.44,72.89,20.82,108.11,1.11,3.77,2.28,7.51,3.51,11.24s6.86,2.04,5.67-1.56c-11.05-33.42-17.37-68.37-22.21-103.17-4.99-35.9-8.1-72.07-10.19-108.25-1.59-27.49-2.56-55.01-2.92-82.55-.1-7.25-.15-14.51-.13-21.76s.6-13.87,.95-20.81c.91-18.12,1.85-36.66,7.42-54.06,2.55-7.95,6.22-15.78,11.88-22.01,1.21-1.34,2.51-2.58,3.87-3.77s2.75-1.73,4.76-2c4.21-.57,8.73,1.19,11.18,4.71,1.32,1.89,2.44,3.95,3.64,5.91,1.65,2.69,5.12,1.27,5.47-1.48,.93-7.25,9.17-10.79,15.58-8.46,4.56,1.66,6.56,6.08,8.93,9.94,1.65,2.69,5.12,1.27,5.47-1.48,.93-7.25,9.17-10.79,15.58-8.46,4.56,1.66,6.56,6.08,8.93,9.94,1.63,2.66,5.16,1.3,5.47-1.48s1.22-5.68,3.63-7.02c2.59-1.45,6.16-2.27,9.12-2.18,4.03,.13,6.79,2.61,8.81,5.88,3.48,5.65,6.95,11.32,10.42,16.98,5.01,8.16,10.01,16.31,15.02,24.47l4.82,7.85c1.43,2.33,2.72,4.55,2.64,7.42-.1,3.41-2.07,6.55-4.93,8.34-2.47,1.54-5.44,2.91-8.41,2.44-5.82-.93-8.48-6.79-11.24-11.29-1.65-2.69-5.12-1.27-5.47,1.48-.93,7.25-9.17,10.79-15.58,8.46-4.56-1.66-6.56-6.08-8.93-9.94-1.65-2.69-5.12-1.27-5.47,1.48-.77,6.04-8.37,11.22-14.29,9.56-5.2-1.45-7.61-6.81-10.22-11.05-1.65-2.69-5.12-1.27-5.47,1.48-.7,5.48-6.81,9.81-11.98,10.07s-7.89-4-10.21-7.78c-3.8-6.19-7.61-12.38-11.4-18.58-2.17-3.54-4.34-7.08-6.51-10.61-1.97-3.22-7.06-.27-5.07,2.97h0Z"/>
          <path d="M454.04,104.81c-5.25,6.17-10.5,12.34-15.75,18.51-1.44,1.7-4.46,4.22-4.6,6.59s0,5,0,7.47c0,13.56,.3,27.15-.02,40.71-.24,10-.08,20.02,.24,30.01,.67,20.95,2.21,41.88,4.62,62.7,3.11,26.81,7.62,53.49,14.13,79.7,6.94,27.95,16.17,55.48,28.92,81.35s29.87,51.7,52.49,70.52c11.29,9.4,23.98,16.89,37.83,21.86,14.56,5.23,30.27,7.67,45.72,7.71,18.09,.05,36.45-3.52,53.55-9.29,8.17-2.75,16.12-6.22,24-9.7s15.47-7.1,22.98-11.11c14.88-7.96,29.15-17.41,41.32-29.17,6-5.8,11.44-12.18,16.15-19.07,3.66-5.35,8.02-14.78,1.4-19.77-7.21-5.43-14.56,2.98-17.49,9.01-1.64,3.39,3.42,6.37,5.07,2.97,1.34-2.77,3.42-6.53,6.53-7.62,2.72-.95,3.61,1.86,3.36,3.99-.4,3.27-2.3,6.09-4.12,8.73-2.1,3.05-4.35,5.98-6.75,8.79-9.83,11.52-21.74,21.02-34.54,29.04s-27.01,14.92-41.16,21.01c-14.81,6.37-29.87,11.42-45.8,14.15-28.08,4.8-58.07,1.62-83.42-11.9-23.71-12.64-42.04-33.34-56.5-55.63-13.94-21.5-24.46-45.07-32.71-69.28-8.27-24.24-14.33-49.21-18.89-74.4-4.02-22.24-6.84-44.68-8.68-67.2-1.33-16.31-2.16-32.66-2.4-49.02-.09-6.37-.03-12.73,.06-19.1,.2-14.25,0-28.51,0-42.76,0-1.6,0-3.21,0-4.81l-.86,2.08c6.5-7.64,12.99-15.27,19.49-22.91,2.44-2.86-1.7-7.04-4.15-4.15h0Z"/>
          <path d="M418.21,58.98c2.53,4.17,5.07,8.35,7.6,12.52,4.06,6.69,8.12,13.39,12.19,20.08,.93,1.53,1.86,3.06,2.78,4.59,1.96,3.23,7.04,.28,5.07-2.97-2.53-4.17-5.07-8.35-7.6-12.52-4.06-6.69-8.12-13.39-12.19-20.08-.93-1.53-1.86-3.06-2.78-4.59-1.96-3.23-7.04-.28-5.07,2.97h0Z"/>
          <path d="M388.99,58.98c2.53,4.17,5.07,8.35,7.6,12.52,4.06,6.69,8.12,13.39,12.19,20.08,.93,1.53,1.86,3.06,2.78,4.59,1.96,3.23,7.04,.28,5.07-2.97-2.53-4.17-5.07-8.35-7.6-12.52-4.06-6.69-8.12-13.39-12.19-20.08-.93-1.53-1.86-3.06-2.78-4.59-1.96-3.23-7.04-.28-5.07,2.97h0Z"/>
          <path d="M359.01,58.98c2.53,4.17,5.07,8.35,7.6,12.52,4.06,6.69,8.12,13.39,12.19,20.08,.93,1.53,1.86,3.06,2.78,4.59,1.96,3.23,7.04,.28,5.07-2.97-2.53-4.17-5.07-8.35-7.6-12.52l-12.19-20.08c-.93-1.53-1.86-3.06-2.78-4.59-1.96-3.23-7.04-.28-5.07,2.97h0Z"/>
        </g>
        <path d="M753.23,311.18c-8.89-.8-17.82-1.2-26.74-1.52-6.84-.24-13.79-.71-20.64-.36-13.93,.72-27.12,6.22-38.62,13.89-12.21,8.13-22.83,18.48-32.33,29.61s-17.21,22.04-24.65,33.85c-5.39,8.56-10.43,17.36-15.11,26.33-.37,.72-.75,1.44-1.12,2.15-.73,1.41-.37,3.19,1.05,4.02,1.31,.77,3.29,.36,4.02-1.05,4.25-8.26,8.79-16.38,13.64-24.31,6.94-11.36,14.66-22.6,22.79-32.6,4.56-5.6,9.36-11.01,14.48-16.11,2.57-2.56,5.21-5.03,7.94-7.41,1.3-1.13,2.61-2.23,3.95-3.31,1.5-1.21,2.34-1.86,3.92-3.02,5.52-4.06,11.39-7.66,17.64-10.49,.39-.18,.78-.35,1.17-.52,.17-.08,.35-.15,.52-.22-.44,.18,0,0,.08-.03,.78-.32,1.57-.63,2.37-.93,1.58-.59,3.18-1.12,4.79-1.6s3.14-.86,4.73-1.2c.77-.17,1.54-.32,2.32-.45,.37-.06,.73-.12,1.1-.18,.23-.04,.46-.07,.69-.1,.21-.03,.62-.08,.18-.03,6.38-.8,12.86-.42,19.26-.23,8.81,.26,17.62,.61,26.42,1.22,2.05,.14,4.09,.3,6.14,.49,1.58,.14,2.94-1.45,2.94-2.94,0-1.71-1.35-2.79-2.94-2.94h0Z"/>
        <g>
          <path d="M753.23,314.12c-14.39,.86-35.91-1.86-43.73-1.96,0,0,50.26,48.95,94.65,11.09,9.14-10.44,20.89-26.11,20.89-26.11,0,0-28.07,14.36-71.81,16.97Z"/>
          <path d="M753.23,311.18c-12.25,.71-24.55-.67-36.75-1.57-2.32-.17-4.65-.35-6.98-.38-2.53-.04-3.89,3.25-2.08,5.01,2.83,2.75,6.01,5.2,9.18,7.55,7.09,5.24,14.77,9.64,22.92,13.01,9.86,4.07,20.65,6.38,31.34,5.62,12.84-.91,25.42-6.23,35.04-14.81,1.22-1.09,2.24-2.49,3.29-3.74,1.11-1.32,2.2-2.64,3.29-3.97,2.1-2.57,4.17-5.16,6.22-7.76,2.84-3.61,5.65-7.25,8.42-10.92,.15-.19,.29-.39,.44-.58,.77-1.03,.39-2.71-.46-3.56-.96-.96-2.39-1.06-3.56-.46-1,.51-2.03,.97-3.05,1.42-.26,.11-.51,.23-.77,.34-.31,.13-1.21,.5-.36,.16-.7,.28-1.39,.58-2.08,.85-1.69,.68-3.38,1.32-5.09,1.94-10.73,3.88-21.84,6.75-33.06,8.78-8.56,1.55-17.21,2.56-25.9,3.09-1.58,.1-2.94,1.28-2.94,2.94,0,1.52,1.35,3.03,2.94,2.94,14.86-.9,29.66-3.18,44.06-6.97,8.59-2.26,17.05-5.06,25.21-8.57,1.35-.58,2.71-1.17,4.02-1.84l-4.02-4.02c-5.55,7.4-11.16,14.57-17.33,21.9-1.01,1.2-1.98,2.52-3.1,3.61s-2.55,2.09-3.85,3.03c-2.59,1.86-5.31,3.54-8.16,4.98-4.98,2.52-10.51,4.26-16.21,5.05-.35,.05-.08,0,0,0-.21,.03-.42,.05-.63,.08-.31,.04-.63,.07-.94,.1-.68,.07-1.35,.12-2.03,.16-1.34,.08-2.69,.11-4.03,.1s-2.65-.08-3.97-.18c-.65-.05-1.31-.11-1.96-.19-.3-.03-.6-.07-.9-.11,0,0-.5-.07-.21-.03,.26,.03-.3-.04-.35-.05-5.03-.75-9.95-2.06-14.71-3.82-2.53-.94-3.87-1.5-6.23-2.61-2.07-.97-4.11-2.02-6.12-3.13-3.5-1.94-6.9-4.09-10.17-6.4-.71-.5-1.41-1-2.1-1.52-.33-.24-.65-.48-.97-.73-.23-.18-1.15-.89-.46-.35-1.04-.82-2.08-1.64-3.09-2.49-1.1-.93-2.13-1.96-3.25-2.87-.05-.04-.1-.09-.14-.14l-2.08,5.01c4.72,.07,9.43,.57,14.13,.94,6.4,.5,12.8,.97,19.22,1.13,3.46,.09,6.92,.09,10.38-.11,1.58-.09,2.94-1.28,2.94-2.94,0-1.52-1.35-3.03-2.94-2.94Z"/>
        </g>
        <g>
          <path d="M714.06,90.87s-26.76,27.42-18.28,44.39c12.93,25.86,49.61,14.36,49.61,14.36,0,0-4.57,29.37,33.94,16.32,0,14.36,11.1,30.03,30.68,16.32s12.4,54.18,0,67.89c12.4,1.96,23.67-59.59,41.12-52.88,33.94,13.06,10.85,49.48-3.05,59.53,6.58,8.48,39.33,18.9,38.83-.11,3.65,2.41,8.73,1.55,12.32-.96,3.58-2.51,5.97-6.36,8.12-10.17,11.93-21.2,19.79-46.06,17.64-70.6-1.61-18.29-12.91-37.69-32.07-41.01-12.4-64.62-127.94-96.61-178.86-43.08Z"/>
          <path d="M711.98,88.8c-3.83,3.93-7.26,8.32-10.39,12.81-5.18,7.44-10.12,16.27-10.4,25.56-.29,9.75,6.8,18.62,15.04,23.12,7.5,4.1,16.33,5.21,24.76,4.7,5.07-.3,10.31-1.02,15.18-2.54l-3.61-3.61c-.55,3.57-.31,7.39,.78,10.83,.94,2.97,2.55,5.81,4.91,7.89,3.16,2.77,7.06,4.07,11.2,4.52,6.95,.74,14.14-1.11,20.67-3.3l-3.72-2.83c.06,11.01,6.16,23.45,18.3,24.49,3.13,.27,6.39-.4,9.29-1.56,1.88-.75,3.68-1.63,5.41-2.69,1.1-.67,2.13-1.47,3.25-2.11,.27-.15,.57-.27,.83-.43,.38-.22-.69,.23-.15,.06,.16-.05,.32-.11,.48-.16,.24-.07,.51-.1,.75-.18,.41-.14-.81,.02-.28,.04,.14,0,.29-.01,.43-.02,.12,0,.25,.03,.36,.01,.34-.05-.7-.18-.38-.06,.19,.08,.51,.15,.72,.19,.4,.07-.39-.2-.34-.15,.06,.07,.23,.11,.31,.16,.1,.06,.2,.13,.3,.19,.51,.29-.27-.1-.22-.19,0,0,.51,.47,.55,.51,.09,.09,.17,.19,.26,.29,.42,.45-.14-.19-.14-.19,.13-.04,.83,1.35,.9,1.49s.13,.29,.2,.43c.27,.52-.21-.58-.05-.13,.11,.32,.25,.64,.36,.96,.24,.7,.44,1.42,.61,2.14,.19,.8,.35,1.6,.48,2.41,.03,.21,.06,.43,.1,.64,.11,.69-.05-.47,.01,.06,.05,.45,.11,.9,.15,1.36,.2,1.96,.29,3.94,.32,5.91,.06,4.42-.21,8.85-.69,13.25-.06,.58-.13,1.16-.2,1.74-.04,.29-.07,.58-.11,.87-.02,.15-.12,.92-.08,.61,.05-.34-.07,.48-.09,.61-.04,.29-.08,.58-.13,.87-.09,.58-.18,1.16-.27,1.75-.37,2.3-.8,4.59-1.29,6.87-.91,4.22-2.01,8.4-3.46,12.47-.31,.87-.64,1.73-.98,2.59-.03,.09-.34,.81-.15,.37,.17-.41-.1,.23-.16,.36-.18,.4-.36,.79-.54,1.19-.67,1.4-1.41,2.77-2.29,4.05-.18,.26-.92,1.05-.23,.34-.22,.22-.4,.49-.61,.72-1.3,1.46-1.06,4.57,1.3,4.91,3.67,.53,6.57-1.47,8.81-4.22,2.74-3.37,4.76-7.27,6.66-11.16,4.54-9.33,8.23-19.12,13.53-28.06,.59-.99,1.2-1.97,1.85-2.93,.3-.44,.6-.87,.91-1.3,.15-.21,.31-.41,.46-.62,.23-.32-.36,.44-.11,.14,.1-.12,.19-.24,.29-.36,.61-.75,1.25-1.48,1.95-2.16,.31-.31,.63-.6,.96-.88,.08-.07,.68-.56,.25-.22s.2-.14,.32-.22c.32-.22,.65-.43,.99-.62,.16-.09,.34-.17,.5-.26,.62-.33-.54,.15,0,0,.32-.09,.63-.22,.96-.3,.17-.04,.35-.06,.52-.11,.42-.13-.38,.1-.39,.05,0,0,.37-.03,.39-.03,.35,0,.71,.03,1.05,.02,.47-.01-.75-.18-.18-.02,.2,.05,.41,.08,.6,.13,1.44,.38,2.58,.97,3.93,1.65,3.04,1.53,5.16,2.96,7.36,5.27,.24,.25,.47,.51,.7,.77,.11,.13,.22,.26,.33,.39,.05,.06,.39,.48,.17,.2s.1,.14,.15,.2c.1,.14,.19,.27,.29,.41,.21,.3,.42,.61,.61,.93,.34,.55,.65,1.11,.94,1.69,.14,.28,.27,.57,.4,.86-.27-.61,.12,.33,.19,.5,.44,1.21,.75,2.46,.98,3.73,.03,.15,.05,.31,.07,.46-.02-.1-.07-.64-.01-.08,.03,.31,.07,.62,.09,.93,.05,.63,.07,1.26,.08,1.89s-.02,1.27-.06,1.91c-.02,.32-.05,.64-.08,.96-.02,.16-.04,.32-.05,.48-.07,.81,.11-.62-.02,.18-.21,1.3-.46,2.58-.79,3.86-.35,1.34-.77,2.66-1.25,3.95-.12,.32-.24,.63-.36,.95-.06,.16-.13,.32-.19,.47-.03,.08-.24,.57-.1,.24s-.07,.16-.1,.24c-.07,.16-.14,.31-.21,.47-.16,.35-.32,.7-.48,1.05-1.2,2.54-2.6,4.98-4.15,7.32-.75,1.14-1.55,2.25-2.37,3.35-.42,.57,.16-.19-.28,.37-.17,.22-.35,.44-.52,.66-.44,.55-.9,1.09-1.36,1.63-1.55,1.79-3.2,3.5-4.99,5.06-.36,.31-.73,.62-1.1,.92-.08,.06-.75,.58-.35,.28s-.32,.23-.41,.3c-1.66,1.21-1.85,3.02-.59,4.61,1.86,2.35,4.59,4.1,7.19,5.52,3.37,1.84,7.01,3.29,10.71,4.32,6.43,1.8,15.11,3.09,20.94-1.11,3.57-2.57,5.09-6.61,5.01-10.92l-4.42,2.54c4.8,3.01,11.18,2.02,15.61-1.2,4.72-3.44,7.61-8.64,10.32-13.68,5.67-10.54,10.28-21.74,13.25-33.34,5.17-20.22,6.45-44.11-5.58-62.24-5.89-8.87-14.7-15.74-25.34-17.64l2.05,2.05c-2.56-13.21-9.44-25.18-18.53-34.98-9.67-10.43-21.8-18.54-34.69-24.47-13.81-6.35-28.57-10.36-43.67-12.03-14.87-1.64-30.14-.87-44.63,2.93s-27.64,10.51-38.5,20.48c-1.29,1.19-2.55,2.42-3.76,3.69-2.61,2.73,1.54,6.9,4.15,4.15,2.48-2.6,5.13-5.03,7.94-7.27,.13-.11,.89-.7,.48-.38,.36-.28,.73-.55,1.09-.82,.73-.54,1.47-1.07,2.22-1.59,1.42-.98,2.88-1.92,4.36-2.81,3.01-1.81,6.12-3.42,9.32-4.85,.38-.17,.75-.33,1.13-.5,.53-.23,.17-.07,.06-.03,.25-.11,.51-.21,.76-.32,.85-.35,1.7-.68,2.56-1,1.63-.61,3.28-1.18,4.95-1.71,3.35-1.06,6.77-1.94,10.21-2.65,1.78-.37,3.57-.69,5.37-.97,.42-.06,.83-.13,1.25-.19,.19-.03,.37-.05,.56-.08,.92-.13-.59,.07,.33-.04s1.77-.22,2.66-.31c7.27-.77,14.61-.86,21.9-.36,1.81,.12,3.62,.29,5.43,.48,2.17,.24,3.07,.36,5.06,.66,3.6,.55,7.17,1.24,10.72,2.07,7.12,1.67,14.11,3.89,20.87,6.67,.17,.07,.35,.14,.52,.22,.83,.35-.29-.12,.21,.09,.39,.16,.78,.33,1.16,.5,.86,.37,1.71,.76,2.56,1.15,1.6,.74,3.19,1.52,4.76,2.32,3.18,1.63,6.29,3.41,9.31,5.32,1.45,.92,2.88,1.87,4.28,2.85,.66,.46,1.31,.93,1.96,1.41,.36,.26,.72,.53,1.07,.8,.14,.11,.28,.21,.43,.32,.7,.53-.44-.35,.25,.19,2.66,2.08,5.22,4.28,7.65,6.62s4.62,4.7,6.72,7.24c.48,.59,.96,1.18,1.42,1.78-.37-.48,.37,.49,.46,.61,.25,.34,.5,.67,.74,1.01,.93,1.28,1.81,2.6,2.65,3.94,1.71,2.72,3.24,5.56,4.55,8.5,.13,.3,.26,.6,.39,.9-.27-.62,.21,.52,.27,.66,.31,.76,.6,1.53,.87,2.3,.52,1.47,.99,2.96,1.4,4.46s.77,3.04,1.06,4.58c.18,.91,1.13,1.89,2.05,2.05,8.17,1.46,15.09,6.06,20.05,12.45,5.24,6.74,8.29,14.73,9.56,23.15,.69,4.58,.78,10.24,.55,15.22-.25,5.44-.95,10.84-2.04,16.18-2.22,10.83-5.93,21.33-10.74,31.28-1.31,2.72-2.71,5.41-4.17,8.05-1.34,2.42-2.7,4.93-4.49,7.06-3.04,3.64-8.11,6.7-12.47,3.98-1.88-1.18-4.46,.35-4.42,2.54,0,.44,0,.88-.02,1.32-.01,.19-.03,.38-.05,.57-.04,.74,.16-.61-.02,.09-.09,.33-.14,.68-.23,1.01-.07,.26-.55,1.37-.16,.59-.27,.56-.57,1.07-.92,1.58,.49-.73-.07,.05-.23,.22-.25,.26-.52,.48-.78,.71,.67-.59-.09,.04-.28,.16-.26,.16-.52,.31-.79,.44-.16,.08-.33,.16-.5,.24,.67-.33,.35-.14,.18-.08-.36,.11-.72,.26-1.09,.36-.67,.19-1.36,.33-2.05,.44-.44,.07,.76-.06,.06-.01-.21,.01-.42,.04-.63,.06-.39,.03-.79,.05-1.19,.06-.78,.02-1.57,0-2.35-.04-.38-.02-.77-.05-1.15-.09-.21-.02-1.61-.21-.86-.09-1.68-.26-3.34-.6-4.99-1.04s-3.37-1-5-1.63c-.41-.16-.82-.32-1.23-.49,.64,.26-.42-.19-.6-.27-.77-.35-1.52-.71-2.27-1.1-1.48-.77-2.89-1.64-4.25-2.61-.1-.07-.2-.15-.3-.22,.71,.52,.03,.01-.12-.1-.24-.2-.48-.41-.71-.62-.47-.44-.91-.9-1.31-1.41l-.59,4.61c4.21-3.07,7.74-6.9,10.89-11.03,3.54-4.64,6.45-9.73,8.55-15.18s3.19-11.11,2.46-16.78c-.78-6.06-3.69-11.55-8.36-15.51-2.96-2.51-6.29-4.38-9.86-5.86-2.19-.91-4.25-1.35-6.62-.97-3.8,.62-6.95,3.55-9.27,6.45-6.55,8.19-10.44,18.31-14.74,27.77-2.03,4.48-4.07,8.99-6.61,13.21-.51,.85-1.05,1.69-1.63,2.5-.13,.18-.25,.35-.38,.53-.42,.57,.23-.25-.02,.03-.28,.31-.53,.65-.81,.95-.25,.27-.5,.53-.76,.78-.14,.13-.29,.25-.43,.38-.49,.46,.51-.32,.07-.05-.26,.16-.5,.33-.77,.49-.1,.06-.31,.11-.38,.19,.17-.18,.73-.2,.17-.09-.14,.03-.3,.07-.43,.12-.53,.18,.2-.06,.3-.03-.19-.06-1.53-.13-.14,.07l1.3,4.91c2.34-2.62,3.89-5.77,5.23-8.98,1.59-3.81,2.8-7.78,3.8-11.79,2.28-9.14,3.64-18.62,3.92-28.03,.13-4.22-.02-8.44-.61-12.63-.43-3.07-1.16-6.3-2.79-8.97-1.52-2.48-3.97-4.36-6.99-4.33-1.6,.02-3.11,.53-4.52,1.25-2.6,1.32-4.82,3.22-7.54,4.38-2.88,1.22-5.22,1.66-8.18,1.4-.35-.03,.03,0,.09,.02-.18-.03-.36-.06-.54-.09-.27-.05-.53-.11-.8-.18-.3-.08-.6-.17-.9-.26-.2-.07-.94-.36-.76-.28,.3,.13-.1-.05-.13-.07-.16-.08-.31-.15-.47-.23-.23-.12-.46-.25-.68-.38-.26-.16-.52-.32-.77-.49-.14-.1-.28-.2-.43-.3-.37-.27,.32,.27-.02-.02-2.14-1.79-3.11-3.13-4.37-5.64-.12-.25-.24-.5-.36-.75-.24-.52-.09-.19-.04-.07-.05-.13-.11-.26-.16-.39-.26-.66-.49-1.33-.7-2.01-.39-1.28-.67-2.59-.88-3.91,0-.02-.07-.49-.03-.18,.04,.34-.03-.25-.03-.32-.03-.33-.07-.67-.09-1-.05-.67-.07-1.33-.07-2,0-1.82-1.88-3.45-3.72-2.83-3.21,1.08-6.47,2.01-9.8,2.62-.67,.12-1.34,.24-2.01,.33,.45-.06-.41,.05-.54,.06-.38,.04-.75,.08-1.13,.11-1.17,.09-2.35,.14-3.52,.11-.55-.01-1.1-.04-1.65-.09-.22-.02-.45-.05-.67-.07-.16-.01-.57-.09,.13,.02-.14-.02-.28-.04-.42-.07-.92-.17-1.83-.36-2.72-.65-.38-.12-.75-.27-1.12-.41-.09-.03,.56,.27-.03-.02-.18-.09-.36-.17-.54-.27-.68-.35-1.27-.82-1.93-1.21-.15-.09,.51,.45,.11,.08-.13-.12-.27-.23-.4-.35-.26-.23-.51-.48-.75-.73s-.44-.52-.67-.77c-.32-.35,.37,.54,.11,.14-.1-.16-.22-.31-.33-.46-.36-.53-.69-1.1-.98-1.67-.09-.18-.48-.99-.25-.51s-.14-.37-.21-.58c-.39-1.09-.67-2.21-.85-3.35-.02-.14-.04-.27-.06-.41-.1-.56,.07,.69,.04,.27-.02-.26-.06-.52-.08-.78-.04-.46-.07-.93-.08-1.39-.02-.82,0-1.64,.05-2.45,.02-.24,.05-.48,.07-.71,.04-.58-.12,.87-.07,.49,.32-2.07-1.27-4.35-3.61-3.61-1.03,.32-2.09,.57-3.14,.82-1.17,.27-2.35,.5-3.54,.71-.72,.12-1.43,.23-2.15,.34-.8,.12,.47-.05-.38,.05-.47,.06-.94,.11-1.41,.16-3.64,.38-7.32,.48-10.98,.19-.41-.03-.82-.07-1.22-.11-.23-.02-1.63-.21-.94-.11-1.08-.16-2.15-.34-3.21-.58-1.96-.43-3.87-1.02-5.73-1.75-.14-.05-.66-.28-.13-.05-.24-.1-.47-.21-.71-.32-.47-.22-.94-.45-1.4-.69-.93-.49-1.84-1.02-2.71-1.61-.44-.3-.88-.61-1.3-.93,.49,.37-.21-.17-.25-.21-.21-.17-.42-.35-.62-.52-.84-.73-1.63-1.51-2.38-2.33-1.47-1.63-2.61-3.3-3.78-5.52-.14-.26-.27-.53-.4-.79-.05-.09-.35-.85-.1-.2-.18-.45-.34-.91-.48-1.38-.11-.39-.21-.78-.3-1.18-.05-.24-.08-.48-.14-.72-.05-.34-.05-.32,0,.06-.02-.16-.04-.32-.05-.49-.07-.91-.11-1.82-.07-2.73,.02-.51,.06-1.01,.11-1.52,.01-.1,.14-.94,.03-.24,.05-.34,.11-.68,.17-1.03,.4-2.12,1.04-4.19,1.81-6.2,.1-.26,.2-.52,.31-.77,.33-.83-.13,.29,.08-.2s.41-.94,.63-1.41c.52-1.11,1.07-2.2,1.65-3.27,1.04-1.92,2.17-3.78,3.37-5.6s2.58-3.77,3.96-5.59c.14-.19,.29-.38,.44-.57-.44,.58,.17-.22,.25-.32,.32-.41,.64-.81,.97-1.21,.54-.67,1.1-1.34,1.66-2,1.17-1.38,2.36-2.75,3.62-4.04,2.64-2.71-1.51-6.87-4.15-4.15Z"/>
        </g>
        <path d="M915.25,498.51c-2.71,24.7-2.5,49.7,.57,74.36,3.08,24.78,8.9,49.19,17.53,72.63,4.84,13.14,10.52,25.98,17.02,38.39,1.75,3.35,6.83,.38,5.07-2.97-11.35-21.67-20.1-44.63-26.17-68.32s-9.45-48.17-9.97-72.68c-.29-13.83,.32-27.66,1.83-41.41,.17-1.58-1.47-2.94-2.94-2.94-1.73,0-2.76,1.35-2.94,2.94h0Z"/>
        <g>
          <path d="M753.27,242.55c1.13-4.28,6.26-4.32,8.7-1.35,2.08,2.52,2.93,8.28,1.56,11.26-.68,1.48-2.6,2.1-4.17,1.68-1.67-.44-3.21-1.91-4.35-3.74-1.53-2.48-2.33-5.63-1.75-7.84Z"/>
          <path d="M755.16,243.07c.04-.16,.1-.32,.15-.47,.15-.48-.2,.31,.05-.11,.13-.21,.24-.42,.39-.63-.29,.42,.17-.13,.25-.23,.3-.33-.35,.2,.03-.03,.11-.07,.22-.15,.34-.21s.24-.12,.35-.18c-.41,.21-.21,.08-.1,.05,.26-.07,.51-.14,.77-.19-.5,.1,.07,0,.28,.01,.11,0,.23,.01,.34,.01,.51,0-.3-.08,.09,0,.23,.05,.45,.1,.67,.17,.13,.04,.26,.1,.39,.14-.41-.14-.18-.08-.08-.03,.25,.14,.49,.28,.74,.43,.09,.05,.28,.23-.05-.05,.15,.12,.3,.25,.43,.38,.1,.1,.57,.69,.26,.26,.14,.2,.28,.4,.41,.61,.13,.22,.25,.46,.37,.69,.03,.06,.23,.56,.07,.13,.07,.18,.14,.37,.21,.56,.2,.58,.36,1.18,.49,1.79,.06,.3,.11,.59,.16,.89-.07-.44,.01,.15,.02,.2,.02,.18,.03,.36,.05,.54,.04,.64,.05,1.29,0,1.93,0,.11-.02,.22-.03,.33-.04,.54,.09-.4-.02,.13-.06,.31-.12,.61-.21,.91-.04,.14-.09,.28-.14,.42-.11,.33,0-.02,.04-.08-.08,.15-.15,.29-.25,.43,.25-.36-.08,.04-.13,.09,.06-.06,.31-.18,0,0-.15,.08-.28,.17-.44,.24,.35-.16,.07-.03,0-.02-.1,.02-.78,.12-.31,.09-.14,0-.28,0-.43,.01-.11,0-.48-.05-.07,.02-.29-.05-.58-.13-.85-.24,.38,.16-.17-.11-.2-.12-.17-.09-.33-.2-.49-.31-.03-.02-.29-.22-.08-.05-.21-.17-.41-.36-.6-.55-1.04-1.03-1.92-2.57-2.38-3.89-.14-.4-.26-.8-.36-1.21-.05-.2-.09-.4-.13-.6,0-.01-.08-.63-.05-.27-.04-.38-.06-.76-.05-1.14,0-.18,.02-.36,.04-.54-.05,.45,.06-.24,.08-.33,.24-.99-.32-2.17-1.37-2.41s-2.15,.3-2.41,1.37c-.96,3.88,.79,8.22,3.27,11.17,1.26,1.49,2.98,2.69,4.94,2.96s4.07-.5,5.28-2.15c.95-1.3,1.2-3.12,1.27-4.68,.07-1.68-.15-3.42-.59-5.04-.83-3.1-2.67-5.89-5.89-6.82-1.69-.49-3.48-.33-5.05,.43s-2.75,2.42-3.23,4.14c-.28,.99,.34,2.17,1.37,2.41s2.11-.31,2.41-1.37Z"/>
        </g>
        <path d="M753.26,185.8c2.01-.91,4.6-1.08,6.8-.56,2.45,.58,4.44,1.76,6.09,3.72,.68,.81,2.07,.7,2.77,0,.8-.8,.68-1.96,0-2.77-4.24-5.06-11.72-6.47-17.63-3.77-.96,.44-1.2,1.83-.7,2.68,.58,.99,1.71,1.14,2.68,.7h0Z"/>
        <path d="M709.06,174.91c.11-.05,.22-.1,.33-.16,.24-.13-.32,.12-.07,.03,.2-.07,.41-.15,.61-.21s.42-.12,.63-.16c.12-.03,.24-.05,.35-.07,.27-.06,.01,.03-.09,0,.17,.04,.47-.05,.65-.05,.22,0,.43-.01,.65,0,.24,0,.48,.03,.72,.05,.27,.03,.01-.04-.09-.01,.1-.02,.26,.05,.36,.06,.43,.09,.85,.2,1.26,.35,.09,.03,.18,.07,.27,.1,.23,.08-.34-.16,0,0,.2,.1,.39,.19,.58,.29s.37,.22,.55,.34c.08,.05,.16,.11,.24,.16,.38,.26-.2-.18,0,0,.35,.31,.68,.61,.98,.96,.68,.77,2.09,.74,2.77,0,.76-.82,.72-1.94,0-2.77-3.1-3.55-8.54-4.4-12.68-2.28-.91,.47-1.25,1.82-.7,2.68,.6,.93,1.7,1.2,2.68,.7h0Z"/>
        <g>
          <path d="M711.54,193.37c-1.41,2.45-3.89,3.79-6.63,3.36-.52-.08-1.04-.2-1.48-.49-.54-.35-.91-.91-1.19-1.48-1.14-2.33-1.02-5.24,.31-7.47,1.81-3.03,6.61-3.09,8.71-.28,1.35,1.8,1.4,4.41,.28,6.36Z"/>
          <path d="M709.85,192.38c-.13,.23-.28,.56-.48,.74,.35-.3,.03-.04-.05,.05-.09,.11-.19,.21-.29,.31-.16,.17-.34,.32-.51,.47-.34,.31,.35-.22-.04,.03-.15,.1-.3,.2-.46,.29-.18,.1-.44,.18-.6,.31l.22-.09c-.08,.03-.17,.06-.25,.09-.13,.04-.26,.08-.39,.12s-.26,.07-.4,.09l-.13,.03c-.22,.03-.18,.03,.11-.01-.11,.11-.68,.04-.83,.03s-.28-.02-.42-.03c-.49-.03,.45,.1-.06-.01-.18-.04-.62-.06-.76-.19l.18,.08c-.09-.04-.19-.1-.27-.15l.16,.13c-.08-.06-.15-.13-.22-.2-.35-.28,.17,.32-.06-.06-.09-.15-.19-.29-.27-.45-.06-.11-.11-.23-.17-.34-.23-.46,.11,.38-.04-.11-.09-.3-.2-.59-.27-.89-.03-.13-.06-.25-.08-.38s-.14-.44,0-.02c-.1-.32-.06-.76-.05-1.09,0-.25,0-.53,.05-.78-.12,.5,0,0,.03-.09,.03-.15,.06-.3,.1-.46,.07-.27,.13-.65,.29-.89-.2,.31-.06,.14-.01,.04,.09-.19,.18-.37,.28-.55,.07-.11,.13-.23,.21-.34l.07-.1c.12-.17,.09-.13-.09,.12,.11-.03,.3-.33,.4-.42,.08-.07,.2-.14,.26-.22-.26,.33-.22,.16-.03,.04,.21-.14,.43-.23,.65-.35,.23-.13-.48,.17-.1,.05,.11-.03,.22-.07,.32-.11,.22-.07,.44-.11,.67-.15,.39-.08-.39,.01-.12,.02,.09,0,.19-.02,.29-.02,.27-.01,.54,0,.81,.02,.42,.02-.48-.1-.06,0,.08,.02,.15,.03,.23,.04,.23,.05,.45,.11,.67,.19s.3,.23-.04-.03c.08,.06,.22,.1,.31,.15,.21,.11,.4,.23,.59,.36,.35,.23-.33-.31-.03-.02,.11,.11,.23,.21,.34,.32,.03,.03,.2,.26,.24,.26l-.16-.21c.06,.08,.11,.16,.17,.24,.08,.12,.16,.25,.23,.37,.05,.09,.09,.17,.13,.26,.09,.2,.08,.18-.03-.07,.15,.17,.2,.61,.25,.84l.03,.14c.04,.22,.03,.19,0-.09,.06,.15,.03,.42,.04,.58,0,.15,0,.29,0,.44,0,.1-.01,.2-.02,.29l.03-.23c.02,.3-.15,.71-.24,1-.03,.1-.14,.56-.01,.08-.05,.18-.18,.36-.27,.52-.5,.89-.25,2.18,.7,2.68s2.15,.25,2.68-.7c1.62-2.9,1.38-6.74-.97-9.19-1.88-1.95-4.94-2.65-7.51-1.86-1.34,.41-2.54,1.19-3.4,2.3-1.05,1.36-1.57,2.98-1.78,4.67-.4,3.25,.97,7.6,4.59,8.29,1.86,.35,3.66,.15,5.37-.66,1.56-.74,2.83-2.08,3.7-3.55,.52-.88,.23-2.19-.7-2.68s-2.13-.24-2.68,.7Z"/>
        </g>
        <g>
          <path d="M759.19,202.51c-1.41,2.45-3.89,3.79-6.63,3.36-.52-.08-1.04-.2-1.48-.49-.54-.35-.91-.91-1.19-1.48-1.14-2.33-1.02-5.24,.31-7.47,1.81-3.03,6.61-3.09,8.71-.28,1.35,1.8,1.4,4.41,.28,6.36Z"/>
          <path d="M757.5,201.52c-.13,.23-.28,.56-.48,.74,.35-.3,.03-.04-.05,.05-.09,.11-.19,.21-.29,.31-.16,.17-.34,.32-.51,.47-.34,.31,.35-.22-.04,.03-.15,.1-.3,.2-.46,.29-.18,.1-.44,.18-.6,.31l.22-.09c-.08,.03-.17,.06-.25,.09-.13,.04-.26,.08-.39,.12s-.26,.07-.4,.09l-.13,.03c-.22,.03-.18,.03,.11-.01-.11,.11-.68,.04-.83,.03s-.28-.02-.42-.03c-.49-.03,.45,.1-.06-.01-.18-.04-.62-.06-.76-.19l.18,.08c-.09-.04-.19-.1-.27-.15l.16,.13c-.08-.06-.15-.13-.22-.2-.35-.28,.17,.32-.06-.06-.09-.15-.19-.29-.27-.45-.06-.11-.11-.23-.17-.34-.23-.46,.11,.38-.04-.11-.09-.3-.2-.59-.27-.89-.03-.13-.06-.25-.08-.38s-.14-.44,0-.02c-.1-.32-.06-.76-.05-1.09,0-.25,0-.53,.05-.78-.12,.5,0,0,.03-.09,.03-.15,.06-.3,.1-.46,.07-.27,.13-.65,.29-.89-.2,.31-.06,.14-.01,.04,.09-.19,.18-.37,.28-.55,.07-.11,.13-.23,.21-.34l.07-.1c.12-.17,.09-.13-.09,.12,.11-.03,.3-.33,.4-.42,.08-.07,.2-.14,.26-.22-.26,.33-.22,.16-.03,.04,.21-.14,.43-.23,.65-.35,.23-.13-.48,.17-.1,.05,.11-.03,.22-.07,.32-.11,.22-.07,.44-.11,.67-.15,.39-.08-.39,.01-.12,.02,.09,0,.19-.02,.29-.02,.27-.01,.54,0,.81,.02,.42,.02-.48-.1-.06,0,.08,.02,.15,.03,.23,.04,.23,.05,.45,.11,.67,.19s.3,.23-.04-.03c.08,.06,.22,.1,.31,.15,.21,.11,.4,.23,.59,.36,.35,.23-.33-.31-.03-.02,.11,.11,.23,.21,.34,.32,.03,.03,.2,.26,.24,.26l-.16-.21c.06,.08,.11,.16,.17,.24,.08,.12,.16,.25,.23,.37,.05,.09,.09,.17,.13,.26,.09,.2,.08,.18-.03-.07,.15,.17,.2,.61,.25,.84l.03,.14c.04,.22,.03,.19,0-.09,.06,.15,.03,.42,.04,.58,0,.15,0,.29,0,.44,0,.1-.01,.2-.02,.29l.03-.23c.02,.3-.15,.71-.24,1-.03,.1-.14,.56-.01,.08-.05,.18-.18,.36-.27,.52-.5,.89-.25,2.18,.7,2.68s2.15,.25,2.68-.7c1.62-2.9,1.38-6.74-.97-9.19-1.88-1.95-4.94-2.65-7.51-1.86-1.34,.41-2.54,1.19-3.4,2.3-1.05,1.36-1.57,2.98-1.78,4.67-.4,3.25,.97,7.6,4.59,8.29,1.86,.35,3.66,.15,5.37-.66,1.56-.74,2.83-2.08,3.7-3.55,.52-.88,.23-2.19-.7-2.68s-2.13-.24-2.68,.7Z"/>
        </g>
        <g>
          <path class="cls-1" d="M124.53,55.56c-6.96-10.34-13.22-21.15-18.73-32.33,5.67-2.88,11.74-4.99,17.98-6.23,.31,15,1.7,29.98,4.18,44.78-1.87-3.02-3.73-6.05-5.6-9.07"/>
          <path class="cls-1" d="M127.06,54.07c-6.95-10.35-13.21-21.16-18.73-32.33l-1.05,4.02c5.47-2.76,11.28-4.72,17.28-5.94l-3.72-2.83c.32,15.27,1.78,30.5,4.28,45.56l5.37-2.26c-1.87-3.02-3.73-6.05-5.6-9.07-1.98-3.21-7.07-.26-5.07,2.97,1.87,3.02,3.73,6.05,5.6,9.07,.76,1.24,2.32,1.79,3.67,1.2,1.43-.63,1.95-1.98,1.7-3.47-2.42-14.55-3.76-29.26-4.07-44-.04-2.01-1.84-3.22-3.72-2.83-6.5,1.32-12.77,3.55-18.69,6.53-1.49,.75-1.72,2.67-1.05,4.02,5.53,11.18,11.79,21.98,18.73,32.33,.88,1.32,2.59,1.89,4.02,1.05,1.31-.76,1.94-2.7,1.05-4.02h0Z"/>
        </g>
        <g>
          <path class="cls-1" d="M204.75,12.87c-1.48-.82-34.24,36.58-37.02,39.95,4.49-17,9.57-32.33,16.85-48.31,.31-.68,.73-1.45,1.47-1.58,.53-.1,1.04,.17,1.51,.43,5.73,3.17,11.46,6.34,17.19,9.52Z"/>
          <path class="cls-1" d="M206.23,10.33c-2.93-1.28-5.22,1.51-7.12,3.38-2.85,2.82-5.58,5.76-8.3,8.71-6.59,7.15-13.06,14.42-19.47,21.73-1.91,2.18-3.85,4.34-5.69,6.58l4.91,2.86c2.38-8.99,5.03-17.91,8.13-26.68,1.53-4.31,3.16-8.59,4.9-12.82,.85-2.07,1.74-4.12,2.65-6.16,.22-.5,.45-1.01,.68-1.51,.02-.05,.32-.58,.34-.73,.03-.27,.13-.17,.08-.23l-.81,.12c-.85-.04-1.06,.03-.63,.21,.16,.21,.59,.32,.82,.45,.64,.36,1.29,.71,1.93,1.07,4.87,2.7,9.74,5.39,14.61,8.09,3.31,1.83,6.28-3.24,2.97-5.07-4.73-2.62-9.45-5.23-14.18-7.85-2.35-1.3-5.18-3.53-7.91-1.92-2.11,1.24-2.9,4.23-3.82,6.34-4.07,9.34-7.62,18.89-10.67,28.61-1.72,5.47-3.28,10.99-4.75,16.53-.7,2.66,2.96,5.22,4.91,2.86,4.17-5.04,8.59-9.9,12.94-14.78,6.14-6.91,12.29-13.83,18.74-20.45,1.12-1.14,2.24-2.29,3.42-3.36,.2-.19,.41-.37,.62-.55,.09-.08,.18-.15,.27-.22,.38-.34-.31,.23-.3,.23,.14-.05,.24-.21,.38-.25,.4-.14-.64,.24-.53,.21-.63,.18-1.3,.04-2.09-.31,1.45,.63,3.15,.43,4.02-1.05,.73-1.24,.41-3.38-1.05-4.02Z"/>
        </g>
        <g>
          <path class="cls-1" d="M68,102.42c8.02,6.82,28.47-.57,37.37-.54-5.98-5.69-13.84-8.88-21.51-11.94-4.72-1.88-9.43-3.77-14.15-5.65-.41-.17-.85-.33-1.29-.29-1.28,.13-1.7,1.77-1.76,3.05-.22,4.59,0,9.2,.67,13.74,.09,.59,.21,1.24,.67,1.63Z"/>
          <path class="cls-1" d="M65.92,104.5c4.2,3.47,9.78,3.98,15.04,3.68,5.86-.33,11.63-1.55,17.4-2.55,.67-.12,1.35-.23,2.03-.34,.32-.05,.65-.1,.97-.15,.18-.03,.36-.05,.54-.08-.28,.04-.27,.03,0,0,1.16-.13,2.31-.25,3.48-.25,2.48,0,3.96-3.25,2.08-5.01-6.26-5.88-14.16-9.23-22.02-12.38-4.37-1.75-8.74-3.49-13.1-5.24-2.31-.92-4.92-1.91-6.92,.23-1.5,1.6-1.65,3.79-1.72,5.86-.08,2.71-.01,5.42,.21,8.11s.14,6.01,2.03,8.11c1.06,1.18,3.07,1.08,4.15,0,1.17-1.17,1.07-2.97,0-4.15,.25,.51,.3,.52,.15,.03-.05-.28-.09-.56-.13-.85-.07-.55-.13-1.11-.19-1.66-.14-1.31-.24-2.61-.3-3.92s-.09-2.62-.08-3.94c0-.66,.02-1.31,.04-1.97,.01-.33,.02-.66,.04-.98,.03-.35,.03-.4,0-.14,.04-.21,.09-.41,.15-.61-.03,.12-.1,.21-.21,.27-.31,.23-.66,.36-1.04,.39,.29,.11,.59,.22,.88,.34,1.22,.48,2.43,.97,3.65,1.46,2.36,.94,4.72,1.88,7.08,2.83,8.1,3.23,16.71,6.29,23.18,12.37l2.08-5.01c-2.92,0-5.85,.54-8.72,1.04-3.41,.6-6.82,1.26-10.25,1.76-2.8,.41-6.55,.77-9.77,.57-.39-.02-.78-.06-1.17-.09-.36-.04-.38-.04-.07,0-.19-.03-.37-.05-.56-.09-.71-.12-1.42-.28-2.11-.49-.33-.1-.66-.22-.98-.34,.63,.23-.33-.16-.44-.22-.29-.15-.57-.33-.85-.49-.14-.09-.27-.18-.4-.27,.27,.22,.28,.22,.02,.01-1.22-1.01-2.96-1.2-4.15,0-1.04,1.04-1.23,3.14,0,4.15Z"/>
        </g>
        <g>
          <path class="cls-1" d="M216.16,375.21c-2.96-7.57-2.47-14.1-3.82-21.88-.83-4.78-8.27-20.69-6.8-24.49-5.93,15.42-7.88,31.9-13.13,47.65,7.48,.41,14.95,.82,22.43,1.23,.41,.02,.85,.04,1.18-.2,.69-.48,.44-1.53,.14-2.31Z"/>
          <path class="cls-1" d="M219,374.43c-1.56-4.09-2.25-8.32-2.69-12.65-.36-3.6-.53-7.37-1.54-10.86-1.54-5.32-3.84-10.4-5.42-15.71-.4-1.35-.71-2.7-1-4.08-.09-.44,.03,.54-.03-.21-.02-.24-.04-.47-.04-.71,0-.18,.12-.92-.01-.37s.05-.09,.09-.23c.53-1.5-.6-3.21-2.05-3.61-1.65-.45-3.05,.56-3.61,2.05-5.9,15.44-7.94,31.99-13.13,47.65-.63,1.91,1.03,3.62,2.83,3.72,5.23,.29,10.47,.57,15.7,.86,2.46,.13,5.1,.55,7.55,.33,3.21-.29,4.33-3.44,3.34-6.18-.54-1.49-2-2.5-3.61-2.05-1.44,.4-2.59,2.11-2.05,3.61,.08,.2,.15,.41,.2,.62-.05-.54,.16-1.04,.64-1.47l1.48-.4c-1.87,.22-3.92-.13-5.8-.24l-5.73-.31c-3.9-.21-7.81-.43-11.71-.64l2.83,3.72c5.19-15.66,7.23-32.21,13.13-47.65l-5.67-1.56c-.76,2.15-.07,4.81,.48,6.92,.73,2.84,1.73,5.62,2.73,8.37s1.99,5.32,2.86,8.02c.95,2.96,1.23,6.03,1.54,9.12,.53,5.28,1.11,10.52,3.02,15.51,.57,1.48,1.98,2.5,3.61,2.05,1.42-.39,2.62-2.12,2.05-3.61Z"/>
        </g>
        <g>
          <path class="cls-1" d="M250.67,367.35c5.01-2.74,6.85-8.96,13.34-10.2-2.14-10.32-19.66-14.93-28.14-18.03,4.87,1.78,11.62,24.28,13.25,28.92,.55-.19,1.06-.42,1.54-.69Z"/>
          <path class="cls-1" d="M252.15,369.89c2.56-1.45,4.44-3.63,6.39-5.78s3.5-3.55,6.24-4.12c1.61-.33,2.38-2.14,2.05-3.61-1.41-6.38-7.27-10.57-12.77-13.34s-11.56-4.61-17.42-6.74c-1.49-.54-3.22,.61-3.61,2.05-.46,1.67,.57,3.03,2.05,3.61-.29-.11-.57-.39-.28-.1,.06,.06,.58,.43,.13,.07-.42-.34,0,.01,.08,.1,.15,.15,.3,.3,.44,.46,.11,.13,.22,.27,.33,.4,.03,.04-.32-.46,.05,.08,.25,.37,.5,.74,.74,1.13,1.2,1.96,2.16,4.05,3.07,6.15,.06,.13,.11,.26,.17,.39-.02-.06-.15-.36-.02-.04s.26,.62,.38,.93c.24,.59,.47,1.17,.7,1.76,.48,1.23,.94,2.46,1.39,3.7,.81,2.22,1.57,4.46,2.32,6.71,.57,1.71,1.11,3.43,1.71,5.13,.49,1.39,2.04,2.64,3.61,2.05,.77-.29,1.52-.61,2.25-.99,3.35-1.75,.39-6.82-2.97-5.07-.28,.15-.55,.28-.84,.39l3.61,2.05c-1.36-3.89-2.58-7.82-3.98-11.7-1.78-4.93-3.62-10.05-6.39-14.53-1.24-2.01-2.69-3.85-4.94-4.74l-1.56,5.67c2.47,.9,4.98,1.71,7.46,2.6,2.97,1.06,5.33,1.97,8,3.28,1.33,.65,2.63,1.35,3.89,2.14,1.4,.87,2.11,1.39,3.12,2.29,.47,.43,.93,.88,1.36,1.35,.07,.08,.76,.91,.39,.43,.21,.27,.41,.56,.6,.85,.32,.5,.61,1.03,.86,1.57-.28-.61,.12,.37,.15,.48,.1,.33,.18,.66,.26,.99l2.05-3.61c-3.26,.68-5.95,2.57-8.2,4.95-.96,1.01-1.86,2.09-2.82,3.09-1.09,1.13-1.77,1.74-3.01,2.45-3.29,1.86-.33,6.94,2.97,5.07Z"/>
        </g>
        <g>
          <path class="cls-1" d="M171.5,305.26c-8.61,4.31-17.1,9.09-25.06,14.53-3.73,2.55-8.44,4.96-11.12,8.63,2.65,2.77,5.3,5.54,7.95,8.3,.39-1.95,1.67-3.58,2.94-5.11,3.78-4.57,7.59-9.1,12.05-12.92,2.34-2,4.34-4.59,6.5-6.79,1.89-1.92,4.33-5.43,6.74-6.64Z"/>
          <path class="cls-1" d="M170.02,302.72c-6.97,3.5-13.81,7.25-20.38,11.45-3.01,1.92-5.97,3.91-8.96,5.86s-5.74,4.05-7.9,6.9c-.79,1.04-.37,2.7,.46,3.56,2.65,2.77,5.3,5.54,7.95,8.3,1.49,1.56,4.41,.85,4.91-1.3,.35-1.48,1.23-2.65,2.18-3.81,1.16-1.41,2.33-2.8,3.51-4.19,2.41-2.8,4.93-5.53,7.69-7.99,2.68-2.39,4.99-5.06,7.46-7.65,1.93-2.02,3.67-4.8,6.03-6.07,3.33-1.79,.37-6.86-2.97-5.07-2.96,1.59-4.86,4.49-7.11,6.87-2.61,2.75-5.1,5.52-7.91,8.07s-5.45,5.45-7.95,8.38-5.7,6.02-6.61,9.9l4.91-1.3c-2.65-2.77-5.3-5.54-7.95-8.3l.46,3.56c1.75-2.31,4.4-3.91,6.8-5.45,2.93-1.87,5.79-3.85,8.74-5.71,6.33-3.99,12.9-7.59,19.59-10.95,1.42-.71,1.82-2.71,1.05-4.02-.84-1.44-2.6-1.77-4.02-1.05Z"/>
        </g>
      </g>
      <path class="cls-3" d="M22.38,217.57c2.08-.69,4.15-1.38,6.23-2.08,.73-.24,1.36-.68,1.76-1.35,.37-.63,.52-1.56,.3-2.26s-.67-1.4-1.35-1.76-1.51-.55-2.26-.3c-2.08,.69-4.15,1.38-6.23,2.08-.73,.24-1.36,.68-1.76,1.35-.37,.63-.52,1.56-.3,2.26s.67,1.4,1.35,1.76,1.51,.55,2.26,.3h0Z"/>
      <path class="cls-3" d="M38.19,283.26c5.48-4.91,10.96-9.82,16.45-14.73,1.15-1.03,1.13-3.12,0-4.15-1.23-1.13-2.93-1.1-4.15,0-5.48,4.91-10.96,9.82-16.45,14.73-1.15,1.03-1.13,3.12,0,4.15,1.23,1.13,2.93,1.1,4.15,0h0Z"/>
      <path class="cls-3" d="M1.42,152.89c2.77,1.38,5.54,2.77,8.31,4.15,.71,.35,1.48,.51,2.26,.3,.68-.19,1.42-.71,1.76-1.35,.7-1.33,.41-3.29-1.05-4.02-2.77-1.38-5.54-2.77-8.31-4.15-.71-.35-1.48-.51-2.26-.3-.68,.19-1.42,.71-1.76,1.35-.7,1.33-.41,3.29,1.05,4.02h0Z"/>
    </g>
  </g>
</svg>