<?xml version="1.0" encoding="UTF-8"?>
<svg id="Layer_2" data-name="Layer 2" xmlns="http://www.w3.org/2000/svg" viewBox="0 0 412.42 413.53">
  <defs>
    <style>
      .cls-1 {
        fill: #f4d13b;
      }

      .cls-2 {
        fill: #f953b2;
      }

      .cls-3 {
        fill: #6966ed;
      }

      .cls-4 {
        fill: #fff;
      }
    </style>
  </defs>
  <g id="Layer_1-2" data-name="Layer 1">
    <g>
      <path class="cls-2" d="M110.82,119.42l-13.06,34.84c-.43,1.14-.65,2.35-.65,3.57h0c0,5.62,4.56,10.18,10.18,10.18h33.13c2.78,0,5.04-2.26,5.04-5.04v-3.63c0-2.78-2.26-5.04-5.04-5.04h0c-3.06,0-5.41-2.7-4.99-5.73l4.02-29.15"/>
      <path class="cls-3" d="M188.1,133.48H46.65c-3.04,0-5.56-2.35-5.78-5.39l-6.39-91.13c-.24-3.35,2.42-6.2,5.78-6.2H180.89l7.21,102.71Z"/>
      <polygon class="cls-2" points="197.11 133.48 50.26 133.48 43.05 30.77 189.9 30.77 197.11 133.48"/>
      <polygon class="cls-4" points="187.35 124.77 58.49 124.77 52.51 39.48 181.37 39.48 187.35 124.77"/>
      <polygon class="cls-1" points="152.06 112.75 67.26 112.75 63.32 56.62 148.13 56.62 152.06 112.75"/>
      <path class="cls-3" d="M215.43,65.6h-43.46c-6.78,0-12.41-5.62-12.88-12.88l-1.41-21.53c-.52-8.01,5.39-14.82,12.88-14.82h43.46c6.78,0,12.41,5.62,12.88,12.88l1.41,21.53c.52,8.01-5.39,14.82-12.88,14.82Z"/>
      <path class="cls-1" d="M223.42,190.91H78.57c-.4,0-.8-.11-1.14-.32l-36.66-22.07c-1.92-1.16-1.1-4.11,1.14-4.11H186.76c.4,0,.8,.11,1.14,.32l36.66,22.07c1.92,1.16,1.1,4.11-1.14,4.11Z"/>
      <path class="cls-1" d="M405.21,125.35c6.42,19.76,8.54,40.86,6.42,61.52-1.71,16.62-2.92,32.35-14.62,45.09-20.05,21.85-52.77,23.38-79.94,19.34-9.54-1.42-19.6-3.71-26.36-10.6-6.76-6.88-8.13-19.77-.4-25.53,6.8-5.06,16.74-2.51,24.4-6.13,5.46-2.58,9.09-8.08,10.82-13.86,4.28-14.3,2.56-29.04,2.93-43.69,.39-15.83,4.75-32.89,17.31-42.53,6.84-5.25,15.43-7.74,23.96-8.94,6-.84,12.32-1.06,17.89,1.31,9.42,4.01,14.42,14.27,17.58,24.01Z"/>
      <path class="cls-4" d="M107.84,185.84c16.83,0,33.66,0,50.49,0h14.5c1.74,0,1.74-2.7,0-2.7H107.84c-1.74,0-1.74,2.7,0,2.7h0Z"/>
      <g>
        <path d="M342.65,34.65c1.64,1.71,3.63,3.19,6.12,4.36,4.08,1.91,8.62,2.55,12.89,4,8.57,2.91,15.69,12.81,15.46,22-.12,4.68-2.49,9.43-6.6,11.69-3.74,2.06-8.32,1.86-12.47,.87-1.19-.28-2.49-.73-3.03-1.82s.47-2.78,1.6-2.33c1.81,2.8,.78,6.63-1.14,9.36-2.55,3.63-6.28,8.53-10.01,10.92-9.2,5.89-25.89,6.81-34.15-1.03-2.6-2.47-4.33-5.97-4.15-9.55,.07-1.45,.47-2.93,1.43-4.02s2.53-1.71,3.91-1.27c.2,.06,.41,.17,.49,.36,.08,.19,0,.4-.09,.58-1.88,3.69-6.63,1.41-8.83-.43-2.71-2.27-4.57-5.59-5.11-9.09-.69-4.51,.64-9.15,3.15-12.91,2.01-3.01,3.97-7.07,8.29-6.55,.8,.1,1.62,.39,2.1,1.04s.42,1.71-.27,2.12c-.78,.47-1.77-.11-2.42-.74-3.48-3.39-3.97-7.63-2.73-12.14,.85-3.12,0-6.42-3.35-7.77-4.25-1.71-8,1.47-8.16,5.67-.09,2.52-.04,5.04,.14,7.55-1.48-.43-2.36-1.93-2.95-3.36-1.21-2.92-.79-7.85-2.69-10.32-2.33-3.02-7.99-1.32-11.26-1.68-2.12-.24-4.37-.81-5.7-2.48-1.31-1.64-1.4-3.96-1.04-6.03,1.1-6.46,6.28-10.53,11.83-13.43,7.5-3.93,15.71-6.94,24.17-6.89,9.44,.05,18.67,4.33,23.43,12.69,4.04,7.09,5.79,15.04,11.16,20.62Z"/>
        <path d="M341.69,35.6c3.97,4.05,9.03,5.83,14.4,7.22,2.51,.65,5.11,1.24,7.43,2.44,2.15,1.11,4.06,2.6,5.73,4.35,6.05,6.31,10.17,18.77,1.82,25.13-2.42,1.85-5.53,2.33-8.51,2.17-1.51-.08-3.03-.33-4.49-.72-.5-.14-1.11-.28-1.51-.63-.2-.17-.27-.26-.35-.48-.15-.39,.39-.26,.03-.35l-.81-.62c1.4,2.34,.63,5.15-.71,7.34s-3.15,4.45-4.92,6.46c-1.67,1.9-3.48,3.71-5.67,5.01-1.76,1.05-3.64,1.85-5.59,2.46-7.92,2.5-18.28,2.63-25.16-2.68-2.21-1.71-3.94-4.07-4.62-6.8-.37-1.47-.44-3.11,.07-4.56,.24-.69,.63-1.36,1.24-1.79,.38-.27,1.54-.86,1.94-.39l-.4-.96c.06,1.01-1.7,1.25-2.35,1.19-1.17-.12-2.3-.68-3.29-1.3-2.46-1.55-4.29-4.15-5.18-6.89-2.07-6.34,.92-12.89,4.91-17.79,.67-.82,1.47-1.63,2.48-2.03,.58-.23,1.22-.31,1.84-.25,.31,.03,.72,.07,1,.24,.3,.18,.34,.52,.57,.42-.45,.19-1.46-1.14-1.68-1.41-.49-.59-.91-1.24-1.24-1.94-.63-1.31-.89-2.76-.88-4.2,.02-2.94,1.48-5.68,.62-8.63-.77-2.64-3.05-4.52-5.74-5-2.97-.53-5.9,.9-7.39,3.5-.86,1.5-1.07,3.11-1.1,4.81-.05,2.2,.01,4.41,.16,6.6l1.71-1.3c-1.8-.64-2.37-3.26-2.66-4.91-.35-1.96-.45-3.99-1.07-5.89-.53-1.62-1.44-3.09-3-3.88s-3.44-.91-5.2-.86c-3.21,.09-8.83,1.11-10.48-2.65s.98-8.75,3.61-11.45c2.94-3.03,6.78-5.02,10.57-6.79,4.67-2.2,9.62-3.93,14.74-4.7,8.44-1.27,17.61,.57,23.88,6.65,3.66,3.55,5.64,8.26,7.63,12.86,2.01,4.64,4.09,9.28,7.61,13.01,1.2,1.27,3.11-.65,1.91-1.91-6.78-7.16-7.71-17.91-14.47-25.09-6.39-6.78-16.06-9.36-25.14-8.41-5.37,.57-10.52,2.17-15.46,4.31-4.3,1.87-8.66,4.02-12.17,7.18-3.31,2.97-5.66,7.05-5.83,11.57-.09,2.3,.58,4.66,2.39,6.18,1.69,1.41,3.98,1.95,6.13,2.11s4.25-.25,6.37-.17c2.24,.09,3.73,.84,4.38,3.08,1.22,4.16,.49,10.57,5.53,12.38,.79,.28,1.77-.47,1.71-1.3-.1-1.49-.17-2.98-.18-4.48s-.14-3,.26-4.39c.54-1.9,2.15-3.43,4.19-3.47,2.18-.04,4.18,1.43,4.61,3.59s-.67,4.49-.8,6.72,.31,4.6,1.39,6.63c.99,1.85,3,4.63,5.4,4.31s2.86-3.28,1.31-4.81-4.3-1.49-6.18-.68-3.24,2.43-4.39,4.09c-1.31,1.9-2.61,3.87-3.53,5.99-2.13,4.92-2.34,10.56,.13,15.4,1.87,3.66,5.5,7.17,9.76,7.63,1.86,.2,3.65-.48,4.72-2.05,.6-.88,.95-2.02,.11-2.88s-2.21-.9-3.29-.67c-5.5,1.13-5.36,8.36-3.59,12.36,1.86,4.21,5.61,7.12,9.78,8.82,7.99,3.26,17.76,2.57,25.6-.78,4.47-1.91,7.86-5.06,10.88-8.82s6.73-8.17,5.43-13.25c-.26-1.02-.72-2.37-1.82-2.69-1.01-.3-2.02,.2-2.64,.99-1.44,1.87-.38,4.17,1.56,5.13,2.14,1.05,4.88,1.34,7.23,1.42,2.7,.1,5.43-.35,7.85-1.57,4.29-2.17,6.9-6.74,7.49-11.39s-.76-9.34-3-13.35-5.71-7.74-9.83-10.05c-4.85-2.73-10.6-3.01-15.65-5.24-2.36-1.04-4.45-2.5-6.26-4.33-1.22-1.24-3.13,.67-1.91,1.91Z"/>
      </g>
      <path d="M154.66,167.46c-2.82,.67-3.33-2.74-3.39-4.83-.09-3.23,1.1-6.4,2.45-9.29,1.69-3.59,4.14-6.66,7.62-8.64,4.34-2.46,9.5-3.36,14.43-3.49s10.28,.53,15.36,1.31c5.49,.85,10.98,1.73,16.47,2.64,5.7,.94,11.39,1.9,17.09,2.83,5.39,.88,10.82,1.6,16.16,2.75,3.62,.78,7.5,1.7,10.74,3.56,1.91,1.1,3.8,2.31,5.53,3.68,.84,.67,1.77,1.43,2.4,2.26,.2,.27,.43,.76,.46,.8s.11-.04,.02,0c.19-.09-.22,.11-.23,.12-.17,.07-.56,.23-.74,.18-.68-.19-.95-1.48-1.06-2.05-.41-2.12-.21-4.5-.24-6.66-.18-19.04,2.28-38.63,11.03-55.78,4.33-8.49,10.06-16.55,17.67-22.4,3.76-2.89,8.06-5.4,12.62-6.79,4.52-1.39,8.78-.39,13.28,.45,2.24,.42,4.49,.69,6.77,.67,1.74-.02,1.74-2.72,0-2.7-5.02,.04-9.78-1.81-14.77-1.88s-10.17,2.15-14.55,4.74c-9.12,5.38-16.05,13.67-21.29,22.75-10.62,18.39-13.67,40-13.47,60.95,.02,2.41-.15,5.01,.33,7.38,.36,1.78,1.49,3.95,3.56,4.03,2.75,.11,4.67-2.31,3.2-4.78-1.34-2.24-3.85-3.88-5.97-5.3-1.99-1.34-3.97-2.49-6.2-3.38-5.37-2.12-11.1-3.05-16.77-3.95-6.26-.99-12.51-2.03-18.76-3.07-6.21-1.03-12.43-2.05-18.65-3.03-5.53-.87-11.07-1.82-16.67-2.01-9.94-.34-20.96,2-26.45,11.09-1.95,3.24-3.63,7.22-4.01,11.01-.28,2.81-.03,6.61,2.29,8.59,1.27,1.09,2.88,1.23,4.46,.85,1.69-.4,.98-3.01-.72-2.61h0Z"/>
      <path d="M157.41,158.2c-1.28,4.01-2.57,8.03-3.85,12.04-.82,2.56-1.64,5.12-2.46,7.68-.53,1.67-1.28,3.36-.92,5.15,.46,2.35,2.58,4.12,4.95,4.24s4.48-1.47,5.33-3.71l-2.61-.72c-.74,2.61,.45,5.41,2.98,6.49s5.56-.04,6.85-2.52l-2.47-1.04c-.65,3.6,2.14,7.03,5.93,6.49,2.49-.36,3.83-2.21,4.58-4.43,1.16-3.46,2.32-6.92,3.48-10.39l-2.61-.72c-.8,2.52-1.61,5.03-2.41,7.55-.36,1.14-.78,2.27-1.09,3.43-.51,1.86,.29,3.6,1.58,4.95,1.72,1.79,4.32,2.85,6.73,1.91,2.18-.85,2.95-2.68,3.53-4.77,.46-1.67,1.24-3.35,2.9-4.12,1.53-.7,3.34-.53,4.93-.18,4.18,.93,7.96,3.15,11.8,4.95,6.1,2.86,12.35,5.4,18.72,7.58,12.81,4.39,26.63,8.22,40.27,6.31,4.24-.59,8.36-2.16,12.17-4.08,8.94-4.52,16.25-11.83,21.24-20.47,8.52-14.77,10.47-32.53,9.74-49.29-.12-2.84-.33-5.67-.6-8.5-.16-1.72-2.87-1.73-2.7,0,1.64,17.36,1.08,36.01-6.5,52.06-4.35,9.21-11.06,17.19-19.8,22.36-2.97,1.76-5.55,2.94-8.67,3.96-1.58,.52-3.18,.92-4.81,1.23-.19,.04-.58,.1,.06,0-2.82,.45-5.7,.6-8.55,.54-6.76-.14-13.42-1.52-19.93-3.29s-12.69-3.84-18.86-6.26c-5.4-2.13-10.59-4.64-15.83-7.1-3.33-1.56-7.12-3.25-10.89-2.97-4.06,.29-6.37,3.15-7.37,6.89-.22,.82-.39,1.63-1.07,2.2-.94,.79-2.16,.74-3.2,.18-1.3-.69-2.64-2.03-2.2-3.57,.81-2.83,1.8-5.62,2.69-8.42,.25-.78,.5-1.57,.75-2.35,.53-1.66-2.06-2.36-2.61-.72-.93,2.77-1.86,5.54-2.79,8.31-.32,.95-.58,1.94-.96,2.86-1.19,2.88-5.6,1.73-5.04-1.41,.25-1.41-1.71-2.49-2.47-1.04-1.53,2.92-5.81,1.31-4.89-1.89,.49-1.7-2-2.32-2.61-.72-.64,1.69-2.81,2.29-4.19,1.09-.91-.79-1.02-1.92-.7-3.01,.4-1.36,.87-2.71,1.3-4.06,1.52-4.75,3.04-9.49,4.55-14.24,.4-1.25,.8-2.49,1.2-3.74,.53-1.66-2.08-2.37-2.61-.72h0Z"/>
      <path d="M167.93,186.51c1.21-3.5,2.42-7.01,3.63-10.51,.17-.5,.34-.99,.51-1.49,.24-.69-.27-1.48-.94-1.66-.74-.2-1.42,.25-1.66,.94-1.21,3.5-2.42,7.01-3.63,10.51-.17,.5-.34,.99-.51,1.49-.24,.69,.27,1.48,.94,1.66,.74,.2,1.42-.25,1.66-.94h0Z"/>
      <path d="M160.34,184.11c1.21-3.5,2.42-7.01,3.63-10.51,.17-.5,.34-.99,.51-1.49,.24-.69-.27-1.48-.94-1.66-.74-.2-1.42,.25-1.66,.94-1.21,3.5-2.42,7.01-3.63,10.51-.17,.5-.34,.99-.51,1.49-.24,.69,.27,1.48,.94,1.66,.74,.2,1.42-.25,1.66-.94h0Z"/>
      <path d="M256.32,134.99c-5.78-3.07-11.5-6.35-17.42-9.15-3.28-1.55-6.72-2.72-10.26-3.52-6.92-1.56-14.97-2.17-21.49,1.15-3.65,1.86-6.22,5.07-7.47,8.95-.54,1.66,2.07,2.37,2.61,.72,2.14-6.63,8.6-9.11,15.07-9.32,6.52-.21,13.36,1.27,19.31,3.95,6.25,2.82,12.24,6.34,18.3,9.55,1.54,.81,2.9-1.52,1.36-2.33h0Z"/>
      <path d="M347.16,203.66c-2.41,5.38-4.89,10.97-8.93,15.36-4.4,4.77-10.51,7.19-16.6,9.03-13.36,4.03-27.38,4.02-41.14,5.57-3.17,.36-6.41,1.14-9.61,.92-1.87-.13-4.81-.69-5.09-2.99l-.4,.96c1.84-2.19,5.22-.72,6.52,1.33,1.9,3,1.78,7,2.25,10.4,1.12,8.1,3.29,16.01,5.75,23.78,2.43,7.67,4.95,15.36,7.86,22.86s6.09,14.37,9.62,21.33c7.09,13.99,15.2,27.41,22.96,41.03,1.93,3.38,3.91,6.76,5.68,10.23s3.27,7.31,2.49,11.22c-.71,3.56-2.91,6.62-5.29,9.27s-5.14,5.17-8.03,7.38c-5.73,4.38-12.15,7.56-18.24,11.35-5.7,3.55-11.95,8.14-18.96,8.14-3.16,0-6.8-1.04-7.98-4.3-.61-1.69-.64-3.55-.68-5.33s-.03-3.61,.03-5.41c.21-6.67,1.06-13.35,.63-20.03-.46-7.2-2.68-13.75-6.41-19.91-4.18-6.91-8.16-13.93-11.99-21.03-7.71-14.31-14.75-28.97-21.41-43.79-5.69-12.68-11.3-25.49-14.63-39.02-3.18-12.92-4.3-26.88,.52-39.55,1.19-3.13,2.77-6.09,4.62-8.88,.96-1.45-1.38-2.81-2.33-1.36-9.78,14.74-9.6,32.91-5.65,49.55,4.23,17.79,12.25,34.61,19.93,51.11,8.74,18.79,18.26,37.21,28.98,54.96,2.41,4,4.17,8.27,5.04,12.86,.79,4.15,.83,8.39,.66,12.59s-.55,8.61-.68,12.92c-.07,2.3-.08,4.61,.06,6.9,.13,2.17,.48,4.43,1.74,6.26,2.35,3.43,6.98,4.45,10.9,4.12,4.37-.37,8.43-2.19,12.2-4.32s7.46-4.66,11.31-6.8c4.12-2.29,8.2-4.69,12.03-7.44s7.31-5.74,10.39-9.2,5.53-7.16,6.06-11.67c.58-4.99-1.71-9.69-4.03-13.94s-4.84-8.64-7.32-12.93c-10.01-17.38-20.44-34.66-28.11-53.25-3.88-9.41-7.09-19.18-10.08-28.91-1.57-5.09-2.97-10.24-4.02-15.47-.5-2.49-.92-5-1.21-7.53-.26-2.25-.41-4.56-1.08-6.74-1.11-3.59-3.99-6.72-8.01-6.56-1.51,.06-3.64,.77-4.28,2.3-.57,1.35,.68,3.3,1.66,4.15,2.46,2.15,6.3,2.32,9.39,1.96,5.06-.59,10.09-1.25,15.17-1.66,10.34-.84,20.78-1.5,30.84-4.23,4.67-1.27,9.42-2.87,13.62-5.32,3.96-2.32,7.13-5.57,9.65-9.38,2.39-3.61,4.19-7.58,5.95-11.53,.71-1.57-1.62-2.95-2.33-1.36h0Z"/>
      <path d="M209.21,275.91c-8.03,9.74-13.82,21.09-21.43,31.15-3.68,4.87-7.87,9.6-13.01,12.97-6.41,4.2-13.88,6.31-20.98,9.01-5.72,2.18-13.93,4.72-13.99,12.11-.05,6.15,4.41,11.28,8.93,14.91,4.83,3.88,10.16,7.17,15.17,10.83,5.97,4.36,12.24,8.3,19.17,10.94,6.81,2.6,14.1,3.79,20.48-.52,5.12-3.46,8.39-8.85,11.82-13.84,9.19-13.36,20.07-25.72,30.76-37.89,21.19-24.14,43.96-47.7,70.28-66.31,6.35-4.49,12.98-8.59,19.97-12s13.72-5.7,19.79-10.06c9.22-6.63,15.4-16.22,18.93-26.92s4.61-22.54,4.96-33.95c.25-8.32,.44-16.72-.44-25.01-.36-3.34-.6-7.41-2.4-10.35-1.99-3.26-6.39-1.13-5.51,2.57,.36,1.54,1.25,3.06,1.88,4.51,.97,2.21,1.95,4.42,2.83,6.67,1.03,2.62,1.97,6.45,5.44,6.58,3.14,.12,5.36-2.85,6.81-5.25,1.57-2.6,2.77-5.43,3.67-8.32,3.79-12.16,2.83-25.88-.39-38.06-3.28-12.4-9.89-23.96-18.8-33.18-4.5-4.66-9.65-8.75-15.31-11.9-2.77-1.54-5.68-2.86-8.67-3.92-2.8-.99-5.7-1.59-8.51-2.56-5.21-1.79-9.22-4.93-10.45-10.52-.89-4.02-.25-8.19-.75-12.26-.37-2.95-1.29-5.8-2.67-8.44-5.74-10.97-18.13-16.24-30.05-13.56-5.66,1.27-11.05,4.17-15.11,8.32-4.6,4.71-6.66,10.56-7.1,17.05-.24,3.55-.14,7.11-.47,10.65-.12,1.3-.75,3.03,.07,4.22s1.99,.73,3.07,1.26l-.62-.81c1.76,4.47,3.8,9.11,7.78,12.05,4.19,3.1,9.62,4.35,14.76,3.7,1.7-.22,1.72-2.92,0-2.7-3.63,.47-7.32-.01-10.62-1.64s-5.48-4.11-7.16-7.28c-.74-1.4-1.36-2.85-1.94-4.32-.45-1.11-1.33-1.98-2.67-1.85-.53,.05-.5-.21-.31,.21-.04-.09,.11-.78,.14-1.01,.11-.81,.2-1.62,.26-2.44,.15-1.87,.19-3.75,.24-5.63,.19-6.95,.99-13.48,5.82-18.84,3.82-4.24,9.05-7.09,14.59-8.34,12.07-2.72,24.78,3.96,28.52,16,2.02,6.49-.08,13.54,2.78,19.85,2.02,4.46,6.09,7.08,10.56,8.7,2.66,.97,5.43,1.54,8.11,2.43,2.97,.98,5.83,2.24,8.57,3.74,5.58,3.04,10.62,6.99,15.05,11.54,8.75,8.99,15.19,20.29,18.36,32.43,3.1,11.89,4,25.32,.08,37.13-.95,2.88-2.24,5.71-3.97,8.21-.87,1.26-2.91,3.61-4.55,2.18-1.35-1.18-1.8-3.83-2.46-5.44-.7-1.7-1.43-3.39-2.17-5.08-.67-1.53-2.36-4.01-1.77-5.62,.08-.21,.07,0,.02-.06,.3,.39,.54,.77,.73,1.24,1.32,3.23,1.55,7.05,1.83,10.48,.23,2.78,.36,5.56,.37,8.34,.02,11-.02,22.07-1.64,32.98-1.6,10.68-4.74,21.37-11.21,30.16-3.34,4.55-7.57,8.42-12.35,11.42-6.25,3.93-13.34,6.29-19.88,9.68-13.16,6.82-24.95,15.97-36.26,25.48-11.9,10.01-23.1,20.84-33.81,32.1-10.78,11.33-21.16,23.07-31.16,35.08-5.06,6.07-9.97,12.27-14.73,18.57-3.73,4.93-6.79,10.57-11.18,14.95-2.27,2.26-5.03,4.17-8.2,4.87-3.83,.85-7.83-.17-11.46-1.41-6.81-2.33-12.99-6.07-18.82-10.23-2.63-1.87-5.16-3.86-7.84-5.67-2.46-1.67-4.97-3.28-7.35-5.08-4.39-3.34-10.24-8.89-8.95-15.08,.75-3.63,4.76-5.15,7.79-6.49,3.49-1.54,7.11-2.77,10.69-4.06,6.19-2.24,12.4-4.68,17.63-8.76,9.59-7.47,15.98-18.44,22.46-28.51,3.12-4.84,6.26-9.7,9.93-14.15,1.1-1.33-.8-3.25-1.91-1.91h0Z"/>
      <path d="M291.84,36.15c.06-.04,.13-.07,.2-.1,.1-.05-.18,.07-.08,.03,.03-.01,.06-.02,.09-.03,.14-.05,.28-.09,.42-.11,.03,0,.16-.02,0,0-.17,.02,0,0,.03,0,.06,0,.13,0,.2-.01,.05,0,.42-.02,.44,.02,0,0-.23-.04-.09-.01,.03,0,.06,.01,.1,.02,.07,.01,.14,.03,.21,.05s.14,.04,.21,.07c.03,.01,.06,.03,.09,.03-.03,0-.19-.09-.08-.03,.13,.06,.26,.13,.38,.21,.03,.02,.05,.04,.08,.05,.1,.07-.05-.03-.07-.05,.05,.06,.13,.11,.18,.16,.34,.32,.94,.37,1.27,0s.37-.93,0-1.27c-1.2-1.13-3.05-1.37-4.5-.57-.41,.23-.58,.83-.32,1.23s.79,.57,1.23,.32h0Z"/>
      <g>
        <path d="M281.29,42.89c-.9,1.09,.77,2.16,1.39,1.02,.53-.98-.61-1.96-1.39-1.02Z"/>
        <path d="M280.65,42.25c-.12,.14-.24,.29-.32,.46-.05,.11-.1,.22-.14,.34s-.05,.25-.06,.37c-.02,.16,0,.33,.04,.49s.1,.3,.17,.44c.14,.27,.38,.5,.64,.67s.59,.25,.9,.27c.04,0,.08,0,.12,0,.12-.01,.24-.02,.35-.05,.16-.04,.31-.1,.45-.19,.3-.19,.56-.47,.7-.8,.05-.12,.11-.24,.14-.36,.04-.13,.05-.28,.06-.41,.02-.18-.01-.37-.05-.55-.01-.05-.03-.1-.05-.15-.05-.11-.09-.23-.15-.34s-.14-.2-.22-.29c-.03-.04-.07-.08-.11-.11-.21-.18-.39-.29-.65-.38-.17-.06-.37-.09-.55-.07-.28,.03-.51,.08-.77,.22-.19,.11-.37,.26-.51,.42-.09,.08-.15,.18-.19,.29-.06,.11-.08,.22-.08,.35,0,.22,.1,.48,.26,.64s.4,.27,.64,.26c.23-.01,.49-.08,.64-.26,.06-.07,.13-.14,.21-.2l-.18,.14c.06-.05,.13-.09,.2-.12l-.22,.09c.07-.03,.13-.05,.2-.06l-.24,.03c.07,0,.13,0,.2,0l-.24-.03c.07,0,.13,.03,.2,.05l-.22-.09c.06,.03,.12,.06,.18,.1l-.18-.14c.06,.05,.11,.1,.16,.16l-.14-.18c.05,.06,.08,.13,.11,.2l-.09-.22c.03,.07,.05,.15,.06,.23l-.03-.24c.01,.08,.01,.17,0,.25l.03-.24c-.01,.1-.04,.19-.08,.28l.09-.22c-.04,.09-.09,.18-.15,.26l.14-.18c-.05,.06-.11,.12-.17,.17l.18-.14c-.05,.04-.11,.08-.18,.1l.22-.09c-.06,.03-.13,.04-.2,.05l.24-.03c-.07,0-.14,0-.21,0l.24,.03c-.08-.01-.17-.03-.24-.07l.22,.09c-.07-.03-.14-.07-.21-.12l.18,.14c-.06-.05-.12-.11-.17-.17l.14,.18c-.04-.06-.08-.12-.11-.19l.09,.22c-.03-.06-.04-.13-.05-.2l.03,.24c0-.07,0-.14,0-.22l-.03,.24c.01-.08,.03-.15,.06-.23l-.09,.22c.04-.1,.09-.18,.16-.27l-.14,.18s.02-.03,.04-.04c.09-.08,.15-.18,.19-.29,.06-.11,.08-.22,.08-.35,0-.22-.1-.48-.26-.64s-.4-.27-.64-.26c-.22,.01-.49,.08-.64,.26Z"/>
      </g>
      <path d="M289.26,57.16c-.12,.05-.23,.09-.36,.12-.06,.01-.12,.03-.18,.04,.13-.02-.04,0-.09,0-.06,0-.13,0-.19,0-.15,0,.11,.02-.04,0-.14-.03-.27-.07-.41-.12l.4,1.51c1.61-1.39,2.61-3.81,1.4-5.78-.58-.94-1.78-1.67-2.85-1.03-.69,.41-.95,1.17-1.31,1.84-.04,.07-.08,.14-.12,.21-.02,.03-.04,.05-.06,.08,.07-.1-.01,.01-.05,.05-.17,.2-.35,.38-.55,.54-.11,.09,.1-.07-.02,.02-.06,.04-.12,.08-.18,.12-.11,.07-.22,.13-.33,.19-.05,.03-.1,.05-.15,.08-.09,.04,.09-.03-.06,.03-.14,.05-.27,.09-.41,.13-.46,.12-.78,.65-.63,1.11s.62,.76,1.11,.63c.87-.23,1.67-.7,2.31-1.34,.27-.28,.53-.59,.71-.93,.14-.26,.25-.53,.39-.79,.06-.12,.15-.23,.21-.35-.1,.19-.03,.03,.03-.02,.03-.03,.06-.05,.08-.08,.08-.09-.14,.12-.05,.04,.17-.14-.12,.08,0,0,.03-.02,.08-.07,0,0h-.06c.07,.01,.08,.01,.02,0-.1-.07,.24,.12,.06,.02,.04,.02,.07,.04,.11,.07,.12,.07-.08-.08,.02,.02,.07,.07,.14,.14,.21,.22-.09-.12,.06,.11,.08,.14s.13,.28,.08,.14c.04,.11,.08,.22,.11,.34,.02,.09,.04,.17,.05,.26-.02-.15,0,.12,0,.16,0,.1,0,.21,0,.31,0,0-.01,.15,0,.06,0-.1-.02,.12-.03,.14-.02,.12-.05,.23-.09,.34-.01,.04-.03,.08-.04,.13,0,.03-.08,.2-.02,.07-.09,.2-.2,.4-.32,.58-.03,.05-.07,.1-.1,.15,0,.01-.11,.14-.06,.09,.06-.07-.06,.07-.07,.08-.04,.05-.08,.09-.12,.13-.17,.19-.35,.36-.54,.53-.24,.21-.31,.58-.23,.88,.09,.32,.33,.52,.63,.63,.7,.26,1.53,.25,2.22-.03,.43-.18,.79-.61,.63-1.11-.14-.42-.64-.82-1.11-.63h0Z"/>
      <path d="M286.76,55.1c.06-.02,.11-.03,.17-.04l-.24,.03c.09,0,.17,0,.26,0l-.24-.03c.1,.02,.2,.04,.29,.08l-.22-.09c.08,.04,.16,.08,.23,.13,.14,.09-.16-.15-.04-.03,.03,.03,.07,.06,.1,.09,.06,.06,.1,.17-.03-.05,.02,.04,.05,.08,.08,.12,.05,.09,.1,.18,.14,.27l-.09-.22c.16,.38,.22,.79,.28,1.2,.02,.14,.14,.3,.23,.4,.14,.14,.32,.22,.52,.25,.33,.04,.75-.11,.9-.43,.34-.74,.43-1.54,.23-2.33-.09-.34-.23-.69-.43-.99-.24-.37-.53-.66-.88-.92-.17-.13-.49-.15-.69-.09s-.44,.22-.54,.41c-.11,.21-.17,.46-.09,.69s.22,.39,.41,.54c-.26-.2,0,.01,.07,.07,.04,.04,.08,.08,.11,.12,.02,.02,.04,.04,.05,.06-.09-.12-.12-.16-.08-.1,.12,.16,.22,.33,.29,.52l-.09-.22c.09,.22,.15,.44,.18,.68l-.03-.24c.03,.22,.03,.44,0,.66l.03-.24c-.03,.21-.08,.4-.16,.6l.09-.22s-.02,.05-.03,.08l1.65,.22c-.1-.74-.28-1.45-.77-2.04s-1.38-.93-2.14-.69c-.45,.14-.78,.64-.63,1.11s.63,.78,1.11,.63h0Z"/>
      <path d="M179.02,324.43c0,1.47-.02,3.07-.68,4.41-.46,.94-1.31,1.91-2.42,2.01-.76,.07-1.87-.47-1.83-1.35,0-.17,.27-.51,.54-.66,.15-.08,.22-.1,.3-.11,.06,0,.32,.05,.17,0-.14-.04,.23,.15,.24,.15l-.62-.81c.79,4.54-3.8,8.75-8.19,8.17-.72-.1-1.35,.69-1.35,1.35,0,.81,.62,1.25,1.35,1.35,5.64,.75,11.16-4.55,10.96-10.17-.03-.81-.07-1.72-.79-2.22-.58-.41-1.3-.58-2.01-.5-1.42,.15-2.71,1.16-3.16,2.54-1.02,3.17,2.7,5.61,5.5,4.79,3.87-1.14,4.66-5.46,4.68-8.94,.01-1.74-2.69-1.74-2.7,0h0Z"/>
      <path d="M271.65,355.62c1.94,.21,3.65,1.65,4.39,3.43,.34,.83,.52,1.82,.28,2.7-.07,.25-.26,.9-.57,.98,0,0-.28,0-.25-.02-.03-.03-.06-.07-.07-.11-.06-.15-.07-.09-.03,.19l-.96,.4c2.67,.34,4.41,3.11,4.75,5.58,.46,3.32-1.11,6.63-2.61,9.48-.81,1.54,1.52,2.9,2.33,1.36,1.78-3.36,3.43-7.12,2.96-11.02-.38-3.17-2.26-6.31-5.28-7.58-1.37-.58-3.16-.93-3.77,.83-.46,1.32,.4,2.77,1.58,3.38,1.41,.72,3.01-.04,3.85-1.26s.99-2.87,.74-4.34c-.62-3.63-3.76-6.32-7.34-6.7-1.73-.19-1.71,2.52,0,2.7h0Z"/>
      <path class="cls-1" d="M367.6,377.56h-.08c-4.88,0-8.84-3.96-8.84-8.84v-123.08h-10.06v123.08c0,4.88-3.96,8.84-8.84,8.84h0l-13.91,9.08h55.63l-13.91-9.08Z"/>
      <circle class="cls-2" cx="331.05" cy="398.66" r="8.11"/>
      <circle class="cls-2" cx="373.4" cy="398.66" r="8.11"/>
      <path d="M278.87,37.16c.27-.18,.55-.35,.85-.48,.04-.02,.08-.04,.12-.05-.12,.05-.13,.05-.03,.02,.08-.03,.16-.06,.24-.09,.15-.05,.31-.1,.47-.14s.32-.07,.48-.1c.04,0,.09-.01,.13-.02-.13,.02-.15,.02-.05,0,.08,0,.15-.01,.23-.02,.34-.02,.67-.01,1.01,.02,.47,.05,.92-.45,.9-.9-.02-.53-.4-.85-.9-.9-1.51-.16-3.09,.25-4.34,1.1-.39,.27-.6,.8-.32,1.23,.25,.39,.82,.61,1.23,.32h0Z"/>
      <path class="cls-4" d="M84.11,181.3c2.13,0,4.26,0,6.4,0,.71,0,1.38-.62,1.35-1.35s-.59-1.35-1.35-1.35c-2.13,0-4.26,0-6.4,0-.71,0-1.38,.62-1.35,1.35s.59,1.35,1.35,1.35h0Z"/>
      <path class="cls-4" d="M90.3,173.26h6.6c.71,0,1.38-.62,1.35-1.35s-.59-1.35-1.35-1.35h-6.6c-.71,0-1.38,.62-1.35,1.35s.59,1.35,1.35,1.35h0Z"/>
      <path class="cls-4" d="M124.34,175.94h6.4c.71,0,1.38-.62,1.35-1.35s-.59-1.35-1.35-1.35h-6.4c-.71,0-1.38,.62-1.35,1.35s.59,1.35,1.35,1.35h0Z"/>
      <path class="cls-4" d="M177.36,171.61h1.86c.35,0,.71-.15,.96-.4,.13-.12,.22-.27,.28-.43,.08-.16,.12-.33,.12-.52-.02-.35-.13-.71-.4-.96s-.59-.4-.96-.4h-1.86c-.35,0-.71,.15-.96,.4-.13,.12-.22,.27-.28,.43-.08,.16-.12,.33-.12,.52,.02,.35,.13,.71,.4,.96s.59,.4,.96,.4h0Z"/>
      <path class="cls-4" d="M192.21,179.03h6.81c.71,0,1.38-.62,1.35-1.35s-.59-1.35-1.35-1.35h-6.81c-.71,0-1.38,.62-1.35,1.35s.59,1.35,1.35,1.35h0Z"/>
      <path class="cls-4" d="M79.69,72.96h17.84c9.49,0,18.97,0,28.46,0,2.19,0,4.37,0,6.56,0,1.74,0,1.74-2.7,0-2.7-5.95,0-11.9,0-17.84,0-9.49,0-18.97,0-28.46,0h-6.56c-1.74,0-1.74,2.7,0,2.7h0Z"/>
      <path class="cls-4" d="M71.58,82.42c7.05,0,14.1,0,21.15,0,11.19,0,22.38,0,33.57,0h7.74c1.74,0,1.74-2.7,0-2.7-7.05,0-14.1,0-21.15,0-11.19,0-22.38,0-33.57,0h-7.74c-1.74,0-1.74,2.7,0,2.7h0Z"/>
      <path class="cls-4" d="M72.78,92.03h21.15c11.19,0,22.38,0,33.57,0,2.58,0,5.16,0,7.74,0,1.74,0,1.74-2.7,0-2.7-7.05,0-14.1,0-21.15,0-11.19,0-22.38,0-33.57,0-2.58,0-5.16,0-7.74,0-1.74,0-1.74,2.7,0,2.7h0Z"/>
      <path class="cls-4" d="M72.78,101.34c4.94,0,9.88,0,14.81,0,7.87,0,15.74,0,23.61,0h5.42c1.74,0,1.74-2.7,0-2.7-4.94,0-9.88,0-14.81,0-7.87,0-15.74,0-23.61,0h-5.42c-1.74,0-1.74,2.7,0,2.7h0Z"/>
      <path class="cls-1" d="M180.41,42.34c3.34,2.65,6.67,5.3,10.01,7.95,1.84,1.46,4.58,1.96,6.37,0,4.79-5.24,9.58-10.48,14.37-15.71,.68-.75,1.37-1.5,2.05-2.25,1.59-1.74,1.85-4.67,0-6.37-1.73-1.59-4.67-1.86-6.37,0-4.79,5.24-9.58,10.48-14.37,15.71-.68,.75-1.37,1.5-2.05,2.25h6.37c-3.34-2.65-6.67-5.3-10.01-7.95-1.84-1.46-4.6-1.93-6.37,0-1.5,1.63-1.97,4.8,0,6.37h0Z"/>
      <path class="cls-3" d="M213.93,201.65c-1.89,0-3.79,0-5.68,0-5.15,0-10.3,0-15.45,0-7.65,0-15.31,0-22.96,0-9.3,0-18.61,0-27.91,0-10.19,0-20.38,0-30.56,0s-20.57,0-30.85,0c-9.59,0-19.18,0-28.76,0-8.1,0-16.21,0-24.31,0H9.96c-2.76,0-5.53-.07-8.29,0-.12,0-.24,0-.36,0-1.74,0-1.74,2.7,0,2.7H22.44c7.65,0,15.31,0,22.96,0,9.3,0,18.61,0,27.91,0,10.19,0,20.38,0,30.56,0s20.57,0,30.85,0c9.59,0,19.18,0,28.76,0,8.1,0,16.21,0,24.31,0h17.49c2.76,0,5.53,.07,8.29,0,.12,0,.24,0,.36,0,1.74,0,1.74-2.7,0-2.7h0Z"/>
      <path class="cls-2" d="M14.92,129.1c1.19-.95,2.38-1.91,3.58-2.86,.25-.2,.4-.65,.4-.96,0-.33-.15-.73-.4-.96s-.6-.41-.96-.4l-.36,.05c-.23,.06-.43,.18-.6,.35-1.19,.95-2.38,1.91-3.58,2.86-.25,.2-.4,.65-.4,.96,0,.33,.15,.73,.4,.96s.6,.41,.96,.4l.36-.05c.23-.06,.43-.18,.6-.35h0Z"/>
      <path class="cls-2" d="M27.07,146.97c.95-1.19,1.91-2.38,2.86-3.58,.23-.29,.4-.57,.4-.96,0-.33-.15-.73-.4-.96s-.6-.41-.96-.4c-.33,.01-.74,.12-.96,.4-.95,1.19-1.91,2.38-2.86,3.58-.23,.29-.4,.57-.4,.96,0,.33,.15,.73,.4,.96s.6,.41,.96,.4c.33-.01,.74-.12,.96-.4h0Z"/>
      <path class="cls-2" d="M51.07,150.31v-3.58c0-.71-.62-1.38-1.35-1.35s-1.35,.59-1.35,1.35v3.58c0,.71,.62,1.38,1.35,1.35s1.35-.59,1.35-1.35h0Z"/>
      <path class="cls-2" d="M235.61,51.3c.9,5.88-1.25,11.95-5.5,16.07h1.91c-.58-.6-.88-1.36-.74-2.21l-1.3,.99c1.98-.24,3.56,1.25,4.06,3.1,.62,2.32-.22,4.85-1.03,7.02-1.23,3.31-3.32,6.92-7.06,7.65-1.71,.33-.98,2.94,.72,2.61,5.12-.99,7.86-6.15,9.35-10.69,.93-2.82,1.45-6.03,.04-8.79-1.13-2.22-3.53-3.91-6.08-3.6-.55,.07-1.2,.37-1.3,.99-.31,1.83,.13,3.49,1.43,4.84,.51,.53,1.39,.5,1.91,0,5-4.84,7.25-11.85,6.19-18.7-.26-1.71-2.87-.99-2.61,.72h0Z"/>
    </g>
  </g>
</svg>