<?xml version="1.0" encoding="UTF-8"?>
<svg id="Layer_2" data-name="Layer 2" xmlns="http://www.w3.org/2000/svg" viewBox="0 0 632.47 475.57">
  <defs>
    <style>
      .cls-1 {
        fill: #f953b2;
      }

      .cls-2 {
        fill: #6966ed;
      }

      .cls-3 {
        fill: #fff;
      }

      .cls-4 {
        fill: #ffc814;
      }
    </style>
  </defs>
  <g id="Layer_1-2" data-name="Layer 1">
    <g>
      <g>
        <path class="cls-3" d="M405.27,432.32c-.16-3.55-1.32-7.22-4.02-9.69-2.81-2.58-5.89-3.68-9.69-4.02-3.3-.29-6.6-.59-9.89-.88-8.97-.8-17.95-1.59-26.92-2.39-13.27-1.18-26.55-2.36-39.82-3.54-16.2-1.44-32.39-2.88-48.59-4.32-17.74-1.58-35.49-3.15-53.23-4.73-17.91-1.59-35.82-3.18-53.73-4.77-16.7-1.48-33.41-2.97-50.11-4.45-11.63-1.03-23.25-2.07-34.88-3.1,7.11-3.22,14.23-6.43,21.34-9.65,19.07-8.62,38.15-17.25,57.22-25.87,16.59-7.5,33.17-15,49.76-22.5,8.02-3.63,16.28-6.96,24.15-10.92,.11-.05,.22-.1,.33-.15,.92-.71,1.85-1.43,2.77-2.14,1.34-1.24,2.28-2.71,2.83-4.41,1.15-2.72,1.63-6.03,.69-8.93-1.91-5.89-6.97-9.87-13.22-10.07-5.44-.17-10.88-.34-16.31-.51-13.12-.41-26.25-.82-39.37-1.22-15.82-.49-31.64-.98-47.46-1.48-13.73-.43-27.45-.85-41.18-1.28-6.63-.21-13.28-.55-19.92-.62-.09,0-.19,0-.28,0-7.17-.22-14.03,6.47-13.71,13.71,.34,7.62,6.02,13.47,13.71,13.71,5.44,.17,10.88,.34,16.31,.51,13.12,.41,26.25,.82,39.37,1.22,15.82,.49,31.64,.98,47.46,1.48,.68,.02,1.36,.04,2.04,.06-5,2.26-10.01,4.53-15.01,6.79-19.07,8.62-38.15,17.25-57.22,25.87-16.59,7.5-33.17,15-49.76,22.5-8.02,3.63-16.28,6.96-24.15,10.92-.11,.05-.22,.1-.33,.15-.92,.71-1.85,1.43-2.77,2.14-1.34,1.24-2.28,2.71-2.83,4.41-1.15,2.72-1.63,6.03-.69,8.93,.73,2.26,1.92,4.3,3.53,6.05,2.52,2.74,6.16,3.7,9.69,4.02,3.3,.29,6.6,.59,9.89,.88,8.97,.8,17.95,1.59,26.92,2.39,13.27,1.18,26.55,2.36,39.82,3.54,16.2,1.44,32.39,2.88,48.59,4.32,17.74,1.58,35.49,3.15,53.23,4.73,17.91,1.59,35.82,3.18,53.73,4.77,16.7,1.48,33.41,2.97,50.11,4.45,14.12,1.25,28.24,2.51,42.35,3.76,10.15,.9,20.31,1.8,30.46,2.71,4.81,.43,9.63,.92,14.45,1.28,.21,.02,.42,.04,.62,.06,3.32,.29,7.42-1.74,9.69-4.02,2.38-2.38,4.17-6.28,4.02-9.69Z"/>
        <polygon class="cls-1" points="474.41 27.44 632.47 93.28 472.76 131.89 474.41 27.44"/>
        <ellipse class="cls-3" cx="467.36" cy="438.74" rx="85.05" ry="36.83"/>
        <ellipse class="cls-3" cx="58.25" cy="402.91" rx="58.25" ry="25.23"/>
        <ellipse class="cls-4" cx="58.25" cy="402.91" rx="27.86" ry="12.06"/>
        <ellipse class="cls-3" cx="196.93" cy="311.51" rx="48.12" ry="20.84"/>
        <ellipse class="cls-4" cx="196.93" cy="311.51" rx="18.57" ry="8.04"/>
        <path class="cls-3" d="M521.63,438.74c0,.71-.23,1.5-.62,2.2-.5,.89-1.06,1.5-1.9,2.26-2.1,1.9-4.76,3.24-7.35,4.33-8.17,3.44-17.21,5.02-25.98,5.97-11.1,1.21-22.36,1.3-33.49,.36-9.17-.78-18.47-2.24-27.16-5.36-2.99-1.08-5.95-2.39-8.55-4.25-.93-.66-1.8-1.44-2.53-2.32-.49-.59-.95-1.41-1.15-2.16s-.19-1.37,.02-2.12,.68-1.55,1.19-2.16c1.71-2.03,4.07-3.41,6.42-4.57,7.45-3.67,15.99-5.32,24.15-6.45,10.97-1.52,22.16-1.81,33.2-1.14,9.66,.58,19.42,1.87,28.69,4.77,3.29,1.03,6.54,2.27,9.51,4.03,2,1.19,3.95,2.68,5,4.57,.34,.62,.54,1.38,.55,2.06,.03,2.12,3.32,2.12,3.29,0-.08-5.76-6.26-9.31-10.86-11.35-8.49-3.77-17.84-5.48-27.01-6.56-11.8-1.39-23.8-1.5-35.63-.42-9.64,.87-19.51,2.4-28.57,5.93-4.86,1.9-11.87,4.99-13.17,10.72s3.96,9.59,8.27,11.88c7.73,4.09,16.67,5.94,25.25,7.17,11.76,1.69,23.73,2.06,35.59,1.29,10.06-.65,20.29-2.03,29.89-5.22,3.45-1.15,6.91-2.54,9.97-4.52,2.18-1.41,4.37-3.22,5.49-5.62,.49-1.05,.77-2.14,.78-3.3,.03-2.12-3.26-2.12-3.29,0Z"/>
        <ellipse class="cls-4" cx="467.2" cy="438.74" rx="21.93" ry="6.8"/>
        <path class="cls-2" d="M461.4,19.24h13.01V421.63c0,3.59-2.92,6.51-6.51,6.51h0c-3.59,0-6.51-2.92-6.51-6.51V19.24h0Z"/>
        <g>
          <path class="cls-3" d="M461.33,196.21c-14.18,7.56-20.05,24.38-36.88,28.6-13.73,3.44-28.27-3.61-38.1-13.78-9.67-10.01-17.67-22.02-25.62-33.38-7.1-10.15-22.17-26.73-21.9-39.86,.03-1.72,.36-3.52,1.45-4.84,5.21-6.34,5.62,3.66,5.66,6.3,.11,6.8,1.15,13.7,1.88,20.46,3.57,33.07,16.9,63.78,25.95,95.37,5.05,17.63,11.82,34.61,16.25,52.5,4.41,17.85,7.99,35.89,11.34,53.97,2.68,14.47,5.21,28.98,7.89,43.45,.58,3.15,1.28,6.51,3.56,8.76,1.29,1.28,2.98,2.08,4.43,3.17,3.71,2.79,5.77,7.63,5.19,12.24-.98,7.74-6.82,9.21-12.61,12.25-14.18,7.48-25.6,13.58-42.01,13.35-3.48-.05-7.03-.47-10.15-2.01-3.32-1.64-5.94-4.46-8.04-7.51-8.15-11.84-9.14-29.62-10.17-43.6-.73-84.45-31.08-156.11-18.65-155.02,12.43,1.1,20.11,89.21-8.77,136.74-28.88,47.53-1.1,61.42-17.55,77.51-10.94,10.7-38.28-1.57-55.37-10.99-8.35-4.6-11.64-14.95-7.49-23.54,10.32-21.42,20.65-42.84,30.97-64.26,2.25-4.68,4.54-9.47,5.11-14.63,.97-8.89-3.25-17.41-6.78-25.63-12.02-28.01-16.79-59.01-14.25-89.35,2.41-28.75,21.11-59.12,14.02-87.91-.41-1.65-1.01-3.46-3.17-3.7-.97-.11-1.94,.16-2.76,.68-2.04,1.29-3.92,3.29-4.44,5.71-1.5,7.11,6.03,14.26,11.33,17.44,4.95,2.97,10.55,5.1,16.27,5.93,8.12,1.17,12.07-1.63,18.91-5.85,1.5-.93,3.33-1.26,5.03-.81,3.83,1.02,5.74,5.28,4,8.81l-1.76,3.56,20.87,1.47c2.29,.16,4.17,2.16,4.24,4.69,.09,2.99-2.19,5.36-4.82,5.18,2.46,.17,4.3,2.52,4.11,5.24-.19,2.72-2.34,4.79-4.81,4.62,2.46,.17,4.3,2.52,4.11,5.24s-2.34,4.79-4.81,4.62c2.63,.19,4.55,2.85,4.04,5.8-.43,2.5-2.57,4.21-4.86,4.05,0,0-23.57,.77-44.61-3.51-30.47-4.84-69.66-15.51-83.96-46.29-4.6-9.9-6.5-22.78-3.07-33.31,6.45-19.82,24.71-34.56,43.94-41.16,15.2-5.22,44.56-.89,49.11-21.94,1.48-6.87,.52-13.96,.83-20.91,.13-2.87-.5-5.58,.2-8.42,.84-3.43,2.7-6.55,4.68-9.42,1.5-2.17,3.13-4.31,5.24-5.89,2.09-1.57,4.58-2.55,7.12-3.15,7.62-1.79,15.98-.16,22.36,4.37,15.23,10.8,19.13,40.76-2.92,45.88-3.81,.88-6.93,4.78-3.46,8.28,3.37,3.39,9.99,2.82,14.34,3.39,6.74,.88,13.45,2.21,19.59,5.24,13.88,6.84,22.59,19.56,31.96,31.27,10.67,13.33,20.03,27.66,27.91,42.81,2.41,4.63,4.71,9.43,5.23,14.64,.07,.71-.16,1.44-.69,1.92-.98,.87-2.08,.27-2.87-.42-3.07-2.71-3.95-7.29-3.1-11.3,.83-3.9,3.04-7.35,5.46-10.52,6.93-9.07,16.01-16.3,26.42-20.97,8.11-3.64,15.76-8.29,22.72-13.82,2.13-1.69,5.16-1.57,7.12,.3l.06,.06c2.19,2.09,2.23,5.58,.09,7.72l-3.94,3.94,15.6,.34c3.58,0,6.47,3.39,6.47,7.54v5.88s-.15,5.91-4.47,5.19"/>
          <path d="M460.5,194.79c-9.69,5.28-15.64,14.75-23.9,21.74-4.51,3.81-9.86,6.55-15.76,7.29-6.73,.85-13.57-.79-19.58-3.79-13.12-6.54-22.16-19.23-30.47-30.87-3.89-5.44-7.57-11.03-11.59-16.38-3.6-4.79-7.29-9.5-10.58-14.51s-6.33-10.17-7.64-15.93c-.63-2.76-1.11-6.38,.86-8.7,1.38-1.63,1.53-1.2,1.98,.7,.37,1.56,.44,3.18,.48,4.78,.1,3.89,.42,7.76,.85,11.63,.85,7.68,1.69,15.36,3.09,22.95,2.78,15.05,7.25,29.71,11.98,44.24s9.34,29.25,13.87,43.92,10.27,29.95,14.14,45.3c4,15.87,7.24,31.93,10.27,48.01s5.86,32.36,8.84,48.52c.6,3.26,1.08,6.73,2.97,9.55s5,3.79,7.25,6.12c4.28,4.44,4.64,12.29-.47,16.23-2.05,1.58-4.53,2.57-6.83,3.72-3.11,1.55-6.15,3.24-9.26,4.8-6,3.03-12.17,5.76-18.71,7.36-6.68,1.63-14.71,2.68-21.42,.72s-10.83-8.37-13.42-14.4c-2.56-5.94-3.87-12.41-4.75-18.79s-1.53-12.99-1.62-19.46c-.22-15.05-1.36-30.09-3.19-45.03-3-24.48-7.97-48.6-13.22-72.68-1.69-7.74-3.5-15.5-4.63-23.34-.34-2.36-.63-4.76-.55-7.15,.03-.94,.05-1.26,.27-2.11,.18-.69,.2-.59,.51-.98-.04,.05,.05-.07,.49-.03-.42-.04,.45,.16,.35,.11-.03-.02,.58,.39,.49,.31,1.33,1.08,2.13,2.77,2.84,4.43,2.51,5.83,3.56,12.42,4.37,18.67,2.55,19.69,1.88,40.06-1.18,59.65-1.68,10.73-4.17,21.38-7.85,31.61-1.78,4.93-3.85,9.76-6.29,14.41-3.07,5.83-6.67,11.33-9.46,17.32-4.4,9.47-7.39,19.63-7.55,30.13-.1,6.73,1.3,13.24,1.87,19.91,.47,5.57-.62,10.43-4.64,14.51-7.31,7.42-20.58,3.38-29.02,.48-5.93-2.04-11.66-4.61-17.27-7.41-5.15-2.58-10.83-4.94-13.8-10.17-3.31-5.82-2.2-11.68,.56-17.4,3.59-7.44,7.18-14.89,10.76-22.33s7.18-14.89,10.76-22.33,7.23-14.46,10.46-21.85c2.93-6.71,4.11-13.35,2.47-20.57s-5.34-14.17-8.11-21.17c-5.64-14.27-9.47-29.28-11.38-44.5s-2.43-30.37-.16-45.15c4.15-26.93,19.67-53.55,13.63-81.4-.5-2.31-1.12-4.93-3.52-5.94-2.81-1.17-5.63,.48-7.59,2.45-4.5,4.52-3.27,10.95,.15,15.71,3.48,4.86,8.48,8.36,13.87,10.81,5.91,2.69,12.92,4.78,19.46,3.64,2.54-.44,4.93-1.48,7.18-2.71,2.46-1.35,5.49-4.25,8.42-4.1,3.3,.17,5.05,3.66,3.87,6.53-.5,1.21-1.17,2.38-1.76,3.56s.13,2.38,1.42,2.48c4.48,.32,8.96,.63,13.44,.95,2.23,.16,4.49,.24,6.71,.47,.97,.1,1.79,.22,2.5,1.02,1.84,2.07,.4,5.61-2.36,5.6-1.79,0-2.32,2.97-.44,3.23,3.91,.55,3.79,6.63-.26,6.63-1.79,0-2.32,2.97-.44,3.23,3.91,.55,3.79,6.63-.26,6.63-1.79,0-2.32,2.97-.44,3.23,3.4,.47,4.08,5.71,.52,6.54-.73,.17-1.66,.1-2.41,.11-3.9,.06-7.79,0-11.69-.14-12.66-.45-25.05-2.19-37.5-4.45-20.89-3.8-42.96-9.84-59.75-23.46-8.57-6.95-15.47-15.97-18.86-26.55-2.09-6.53-3.01-13.58-2.11-20.4,.81-6.13,3.35-11.96,6.57-17.19,6.43-10.44,16.14-18.62,26.93-24.28,4.55-2.38,9.36-4.48,14.38-5.64,4.17-.97,8.44-1.45,12.68-2.01,8.37-1.1,17.51-2.13,24.75-6.86,3.4-2.22,6.14-5.27,7.76-9.01,2.55-5.87,2.31-12.54,2.21-18.8-.06-3.77-.03-7.54-.1-11.31s1.37-7.05,3.33-10.2c1.79-2.89,3.84-5.97,6.68-7.92s6.48-2.9,9.92-3.15c11.06-.82,20.84,5.25,25.7,14.99,3.5,7.02,4.86,16.19,1.27,23.44-1.8,3.65-4.81,6.46-8.55,8.06-2.24,.96-4.76,1.16-6.78,2.59-1.9,1.34-3.25,3.49-2.97,5.87,.68,5.7,7.78,6.86,12.33,7.21,6.51,.49,12.98,1.33,19.19,3.47,12.67,4.36,21.76,14.57,29.86,24.77,8.8,11.08,17.4,22.24,24.83,34.31,3.83,6.21,7.49,12.58,10.69,19.14,.8,1.63,1.54,3.29,2.14,5.01,.55,1.56,1.51,3.79,1.37,5.45-.2,2.25-2.29-.96-2.69-1.83-.69-1.5-.95-3.19-.91-4.83,.18-6.8,5.7-12.96,10.13-17.62s9.59-8.74,15.22-11.97c6.04-3.47,12.53-6,18.48-9.68,3-1.86,5.91-3.86,8.71-6.01,1.23-.94,2.41-2.14,4.05-2.17s3.05,1,3.61,2.46c1.23,3.23-2.79,5.95-4.78,7.93-1.02,1.02-.25,2.78,1.16,2.81,5.18,.11,10.44-.07,15.6,.34s4.83,6.37,4.83,10.25c0,2.04,.02,5.39-2.82,5.07-2.1-.24-2.08,3.06,0,3.29,6.83,.77,6.23-8.27,6.11-12.62s-2.84-8.83-7.56-9.25c-2.4-.21-4.87-.12-7.28-.17-2.96-.06-5.92-.13-8.88-.19l1.16,2.81c2.44-2.44,5.89-4.93,6-8.7,.17-5.9-6.62-9.23-11.32-5.9-6.46,4.58-12.71,9.03-19.88,12.5-6.48,3.14-12.62,6.3-18.25,10.86s-10.5,9.74-14.19,15.72c-3.35,5.44-5.09,12.76-1.08,18.37,1.48,2.06,4.36,4.37,6.75,2.17s.76-6.39-.01-8.85c-2.31-7.36-6.58-14.28-10.45-20.91-7.85-13.43-17.11-25.72-26.71-37.93-8.5-10.82-17.72-21.72-30.84-26.98-6.66-2.67-13.93-3.87-21.06-4.33-2.88-.18-6.54-.25-8.87-2.22-1.53-1.29-1.88-3.04-.37-4.5,1.23-1.19,2.88-1.39,4.45-1.88,8.86-2.76,14.15-10.41,14.83-19.49s-2.78-18.37-8.81-24.99c-8.25-9.05-24.03-12.66-34.72-5.75-2.89,1.87-5.01,4.59-6.92,7.4-2.04,2.99-3.98,6.3-4.71,9.89s-.22,7.7-.24,11.4c-.02,4.2,.24,8.4-.04,12.59-.37,5.56-1.89,10.81-6.18,14.59-3.42,3.02-7.89,4.63-12.25,5.73-9.23,2.34-18.91,2.29-28.09,4.78-11.88,3.23-23.28,10.35-31.99,18.95-9.27,9.16-16.53,21.41-16.99,34.7s4.56,26.12,12.86,36.24c14.96,18.24,38.98,26.77,61.3,31.71,12.87,2.85,26.01,5.07,39.16,5.99,5.66,.4,11.34,.6,17.01,.6,2.65,0,6.13,.42,8.41-1.14,4.62-3.16,3.29-11.19-2.48-12l-.44,3.23c7.64,.01,8.79-12.02,1.13-13.09l-.44,3.23c7.64,.01,8.79-12.02,1.13-13.09l-.44,3.23c5.42,.01,8.37-6.56,5.05-10.78-1.91-2.43-4.64-2.39-7.41-2.59-5.98-.42-11.95-.84-17.93-1.26l1.42,2.48c1.84-3.72,3.95-7.51,1.32-11.5-1.44-2.19-3.98-3.56-6.6-3.53-3.3,.03-5.94,2.35-8.66,3.93-2.56,1.49-5.26,2.78-8.24,3.1-3.65,.4-7.4-.39-10.89-1.43-6.49-1.95-12.88-5.38-17.25-10.67-2.03-2.46-3.84-5.68-3.35-8.98,.42-2.84,5.68-8.44,7.12-3.56,2.01,6.81,1.98,14.36,1.26,21.36-1.49,14.64-6.62,28.64-10.51,42.74-1.91,6.92-3.57,13.92-4.42,21.06-.91,7.68-1.08,15.5-.9,23.23,.37,15.63,2.65,31.25,6.83,46.32,2.13,7.67,4.76,15.19,7.86,22.51s6.94,14.61,7.09,22.61-4.41,15.66-7.85,22.8c-3.71,7.71-7.43,15.41-11.14,23.12s-7.55,15.67-11.33,23.51c-1.83,3.79-3.67,7.57-5.48,11.36-1.28,2.69-2.1,5.48-2.19,8.46-.18,5.6,2.17,11.2,6.3,14.99,2.18,2,4.81,3.32,7.4,4.68,2.79,1.47,5.62,2.89,8.48,4.22,10.32,4.82,22.46,10.06,34.12,9.1,7.63-.63,14.14-5.42,16.44-12.83,1.76-5.65,.35-11.74-.4-17.44-1.14-8.63-1-17.18,1.18-25.65,1.63-6.34,4.13-12.42,7.12-18.24s6.43-10.94,9.18-16.66c4.81-10.01,8.16-20.69,10.55-31.53,4.61-20.93,6.06-42.83,4.38-64.19-.61-7.73-1.56-15.58-3.71-23.06-1.1-3.82-2.67-9.4-6.5-11.44-3.58-1.91-6.06,1.15-6.45,4.47-.65,5.56,.82,11.54,1.87,16.95,4.28,22.12,9.68,43.97,13.34,66.22,2.43,14.78,4.29,29.66,5.34,44.61s.72,29.08,2.87,43.5c.97,6.48,2.47,12.93,5.19,18.91s6.67,11.63,12.59,14.29c6.42,2.88,14.42,2.22,21.18,1.11s13.04-3.43,19.16-6.27,11.92-5.91,17.8-8.97c5.01-2.61,8.41-6.64,8.52-12.52,.06-3.03-.87-6.13-2.57-8.64-1.97-2.92-4.87-4.1-7.38-6.38-2.7-2.46-3.08-6.58-3.7-9.97-.79-4.26-1.56-8.52-2.33-12.78-3.02-16.73-5.96-33.46-9.31-50.13-3.33-16.57-6.89-33.13-11.95-49.27-2.45-7.8-5.12-15.54-7.65-23.32s-4.71-15.67-7.15-23.49c-4.73-15.11-10.06-30.03-14.47-45.23-2.2-7.6-4.17-15.26-5.72-23.02s-2.54-16.24-3.46-24.42c-.46-4.05-.78-8.09-.9-12.17-.05-1.73-.17-3.48-.52-5.18-.78-3.74-3.7-6.18-7.01-3.08-4.21,3.94-3.07,10.56-1.39,15.46,2.03,5.93,5.4,11.33,8.97,16.45s7.16,9.56,10.67,14.39c4.39,6.05,8.5,12.29,12.94,18.3,8.55,11.58,17.95,23.36,31.62,28.99,11.95,4.92,24.83,3.5,34.98-4.59,8.61-6.87,14.49-16.77,24.33-22.13,1.86-1.01,.2-3.86-1.66-2.84h0Z"/>
        </g>
        <g>
          <path d="M320.64,73.52c-6.17,1.54-7.28,1.14-9.91,1.04-2.63-.1-5.31-.83-7.32-2.52,3.27,2.86,6.44,7.34,12.6,8.26,0,0-3.39-5.86,4.62-6.78Z"/>
          <path d="M320.2,71.94c-2.62,.65-4.91,1.2-7.56,1.09-2.81-.12-5.78-.28-8.07-2.14-.69-.56-1.65-.67-2.33,0-.6,.6-.67,1.74,0,2.33,1.84,1.62,3.47,3.47,5.39,5,2.34,1.85,4.97,3.21,7.94,3.68,1.36,.22,2.63-1.08,1.86-2.42-.04-.07-.08-.14-.11-.22-.04-.08-.07-.17-.11-.25,.18,.34,.09,.25,0-.01-.09-.27-.16-.54-.23-.82-.11-.48-.03,.16-.03-.16,0-.18-.01-.35-.01-.53,0-.09,.01-.18,.02-.27,0,.09-.07,.32,0,.11,.05-.18,.09-.37,.16-.55-.15,.4,.1-.13,.17-.25,.16-.26-.12,.12,.02-.02,.08-.08,.16-.16,.24-.24,.21-.21-.09,.05,.07-.07,.11-.08,.22-.15,.33-.22,.25-.15,.41-.23,.59-.3,.66-.26,1.38-.42,2.09-.51,.88-.11,1.65-.68,1.65-1.65,0-.8-.76-1.76-1.65-1.65-3.01,.37-6.44,1.57-6.91,5-.2,1.44,.15,3,.87,4.26l1.86-2.42c-2.56-.41-4.84-1.48-6.84-3.12-1.78-1.46-3.31-3.19-5.04-4.71l-2.33,2.33c5.22,4.26,12.74,3.41,18.83,1.9,2.05-.51,1.18-3.68-.87-3.17Z"/>
        </g>
        <path d="M460.43,153.29c-3.61,.15-6.11,3.32-6.11,6.83s2.5,6.69,6.11,6.83v-3.29c-3.61,.15-6.11,3.32-6.11,6.83s2.5,6.69,6.11,6.83v-3.29c-6.95,.28-8.31,10.86-1.97,13.3,1.04,.4,2.09,.37,3.17,.37h4.37c6.5,0,13.05,.24,19.55,0,3.56-.13,6.01-3.21,6.11-6.65s-2.44-6.87-6.11-7.02v3.29c3.61-.15,6.11-3.32,6.11-6.83s-2.5-6.69-6.11-6.83v3.29c3.61-.15,6.11-3.32,6.11-6.83s-2.5-6.69-6.11-6.83c-2.12-.09-2.11,3.2,0,3.29,3.75,.15,3.74,6.94,0,7.09-2.12,.09-2.12,3.2,0,3.29,3.75,.15,3.74,6.94,0,7.09-2.12,.09-2.12,3.2,0,3.29,3.9,.16,3.66,7.05-.26,7.09-2.17,.02-4.34,0-6.52,0h-17.74c-1.18,0-2.14-.28-2.83-1.37-1.25-1.95-.49-5.61,2.22-5.72,2.12-.09,2.12-3.2,0-3.29-3.75-.15-3.74-6.94,0-7.09,2.12-.09,2.12-3.2,0-3.29-3.75-.15-3.74-6.94,0-7.09,2.11-.09,2.12-3.38,0-3.29h0Z"/>
        <path d="M478.93,142.91c-5.82,0-11.63,0-17.45,0-1.28,0-2.5,.05-3.68,.67-2.52,1.32-3.75,4.32-3.41,7.06s2.32,5.45,5.25,5.87c1.08,.16,2.21,.07,3.29,.07,3.33,0,6.66,0,10,0,2.12,0,2.12-3.29,0-3.29h-11.87c-1.38,0-2.5-.47-3.1-1.85-.77-1.75-.24-4.48,1.78-5.13,.67-.21,1.49-.11,2.18-.11h9.48c2.51,0,5.02,0,7.54,0,2.12,0,2.12-3.29,0-3.29h0Z"/>
        <path d="M460.28,166.96h12.64c2.12,0,2.12-3.29,0-3.29h-12.64c-2.12,0-2.12,3.29,0,3.29h0Z"/>
        <path d="M460.43,177.34c3.69,0,7.38,0,11.07,0h1.57c2.12,0,2.12-3.29,0-3.29-3.69,0-7.38,0-11.07,0h-1.57c-2.12,0-2.12,3.29,0,3.29h0Z"/>
        <path d="M307.54,208.09c4.95,.35,9.9,.7,14.85,1.05,.71,.05,1.43,.1,2.14,.15,.89,.06,1.65-.8,1.65-1.65,0-.94-.76-1.58-1.65-1.65-4.95-.35-9.9-.7-14.85-1.05-.71-.05-1.43-.1-2.14-.15-.89-.06-1.65,.8-1.65,1.65,0,.94,.76,1.58,1.65,1.65h0Z"/>
        <path d="M307.61,198.21c4.95,.35,9.9,.7,14.85,1.05,.71,.05,1.43,.1,2.14,.15,.89,.06,1.65-.8,1.65-1.65,0-.94-.76-1.58-1.65-1.65-4.95-.35-9.9-.7-14.85-1.05-.71-.05-1.43-.1-2.14-.15-.89-.06-1.65,.8-1.65,1.65,0,.94,.76,1.58,1.65,1.65h0Z"/>
        <path d="M309.25,188.12c4.95,.35,9.9,.7,14.85,1.05,.71,.05,1.43,.1,2.14,.15,.89,.06,1.65-.8,1.65-1.65,0-.94-.76-1.58-1.65-1.65-4.95-.35-9.9-.7-14.85-1.05-.71-.05-1.43-.1-2.14-.15-.89-.06-1.65,.8-1.65,1.65,0,.94,.76,1.58,1.65,1.65h0Z"/>
        <ellipse cx="467.95" cy="19.41" rx="6.6" ry="2.32"/>
        <path d="M288.69,417.42c-4.82,1.18-6.44,6.74-4.55,10.92,.92,2.03,2.66,4.07,4.71,5.03s5.15,.27,5.51-2.34c.11-.81-.19-1.86-1.15-2.02-4.8-.82-7.27,4.4-6.73,8.48,.59,4.48,3.73,8.24,7.97,9.73,2,.71,2.86-2.47,.87-3.17-2.65-.94-4.67-3.25-5.39-5.95-.35-1.29-.42-2.71,.1-3.96,.36-.86,1.2-2.14,2.3-1.96l-1.15-2.02c-.17,1.18-2.05-.52-2.41-.87-.92-.91-1.66-2.01-2.01-3.27-.62-2.24,.41-4.84,2.79-5.42,2.06-.5,1.19-3.68-.87-3.17h0Z"/>
        <path d="M400.96,404.25c-.1-1.45-1.07-2.52-2.52-2.76-1.54-.25-2.92,.48-3.68,1.83s-.78,2.97-.81,4.44c-.04,1.64,.11,3.34,.71,4.87,1.04,2.64,3.55,5.01,6.57,4.67,1.55-.17,3.02-1.15,3.32-2.76s-.52-2.97-2-3.56c-.53-.21-1.22,.04-1.6,.42-2.58,2.54-1.75,6.78,.7,9.11,3.11,2.95,7.85,2.36,11.65,1.4,2.05-.52,1.18-3.69-.87-3.17-2.5,.63-5.95,1.4-8.2-.34-.77-.59-1.3-1.5-1.51-2.44-.19-.84-.07-1.61,.56-2.24l-1.6,.42c-.05-.02-.34-.27-.34-.27-.02,0,.1,.03-.04,.04-.28,.02-.51,.16-.82,.12-.19-.02-.4-.08-.58-.15-1.24-.48-2.02-1.77-2.35-3-.43-1.54-.42-3.33-.2-4.91,.06-.47,.22-.85,.41-1.25-.02,.04,.02,.01,.13-.04-.02,0-.13,0-.12,0,.27-.37,.16,.24,.1-.01-.05-.22-.15,.05-.18-.43,.06,.89,.71,1.65,1.65,1.65,.85,0,1.7-.75,1.65-1.65h0Z"/>
        <g>
          <path d="M294.4,42.65c-2.03,.53-3.67,2.34-4,4.41-.28,1.76,.31,3.55,1.17,5.11,1.54,2.78,4.55,4.88,4.03,8.4-.29,2-1.68,3.8-3.54,4.59-1.67,.72-4.14,.24-4.51-1.55-.07,1.27-1.04,2.4-2.25,2.79-1.21,.39-2.59,.08-3.61-.67-.64-.47-1.17-1.12-1.35-1.89-.19-.81,.02-1.65,.15-2.47,.86-5.24-1.33-10.43-3.18-15.41-1.85-4.98-3.39-10.59-1.32-15.48,.54-1.28,1.35-2.49,2.51-3.27s2.7-1.06,3.97-.49c-.54-.98-1.39-1.78-1.8-2.82s-.13-2.51,.95-2.82c1.27-.36,2.25,1.09,2.77,2.3,.03-1.53,.39-3.06,1.07-4.43,.19-.39,.43-.8,.82-1,.83-.43,1.88,.34,2.09,1.25s-.15,1.85-.5,2.72c8.57-7.4,19.25-12.12,30.3-14.55,4.52-1,9.31-1.62,13.74-.25,1.76,.54,3.55,1.53,4.23,3.24s-.44,4.11-2.27,4.06c2.25-.8,4.97,.19,6.27,2.19s1.15,4.81-.28,6.72-4,2.86-6.35,2.45c2.49,.48,4.56,2.67,4.9,5.18,.14,1.01,0,2.12-.67,2.91-.47,.57-1.16,.91-1.86,1.16-4.47,1.62-7.34-1.28-11.5-1.28-4.97,0-9.95,1.04-14.52,3-1.44,.62-2.94,1.44-3.56,2.87-.32,.74-.36,1.58-.35,2.38,.07,4.16,1.37,8.81-1.12,12.15,.84-1.13-2.87-7-3.54-8.02-1.57-2.39-3.8-4.31-6.9-3.49Z"/>
          <path d="M293.97,41.06c-2.56,.77-4.67,2.88-5.15,5.56-.55,3.07,.88,5.98,2.69,8.36,1.42,1.87,3.27,3.95,2.16,6.44-.46,1.01-1.36,1.95-2.44,2.29-.64,.2-1.86,.25-2.08-.54-.54-1.91-3.02-1.32-3.23,.44s-2.8,1.48-3.65,.43c-.54-.67-.3-1.46-.18-2.23,.16-1.04,.27-2.08,.25-3.13-.07-4.05-1.46-7.91-2.87-11.66s-2.84-7.48-2.81-11.46c.02-2.71,1.45-8.75,5.39-7.25,1.38,.52,2.54-1.26,1.86-2.42-.59-1-1.34-1.83-1.75-2.91-.04-.11,.02-.25,.04-.35-.03,.22-.34-.16-.14,.11,.37,.49,.67,.9,.93,1.48,.72,1.58,3.01,.67,3.07-.83,.02-.62,.09-1.23,.23-1.84,.14-.56,.54-1.22,.61-1.77l.15-.29-.33-.02s.1,.12,.07,.17c-.11,.18-.08,.67-.15,.89-.1,.32-.23,.64-.35,.95-.66,1.67,1.64,2.55,2.75,1.6,5.36-4.6,11.59-8.18,18.18-10.72,3.37-1.3,6.84-2.35,10.36-3.18,3.71-.87,7.61-1.59,11.42-1.04,1.7,.24,3.89,.69,5.1,2.03,.5,.55,1.1,2.54-.22,2.6l.44,3.23c2.58-.81,5.13,1.09,5.08,3.81s-2.73,4.77-5.43,4.38c-2.03-.3-2.99,2.7-.87,3.17,1.52,.34,2.82,1.31,3.43,2.78,.28,.66,.47,1.61,.19,2.29-.33,.79-1.3,1.07-2.07,1.27-3.36,.84-6.68-1.49-10.05-1.58-4.16-.11-8.47,.68-12.4,2.01-3.57,1.21-7.58,2.76-7.84,7.08-.24,3.98,1.59,8.57-.91,12.13l2.84,1.66c.77-1.3,.1-2.89-.44-4.13-.67-1.53-1.5-2.99-2.38-4.41-2.13-3.47-5.07-6.39-9.48-5.39-2.06,.47-1.19,3.65,.87,3.17,2.89-.66,4.57,1.92,5.88,4.06,.65,1.06,1.27,2.14,1.82,3.26,.23,.47,.46,.95,.62,1.45,.06,.17,.08,.54,.18,.67-.02-.16-.02-.15-.01,.03,0-.14,.04-.27,.1-.39-1.1,1.85,1.64,3.37,2.84,1.66,2.46-3.5,1.63-7.81,1.39-11.8-.05-.92-.21-2.03,.17-2.9s1.26-1.34,2.05-1.73c2.02-1.01,4.25-1.68,6.44-2.21s4.6-.86,6.95-.94c2.02-.06,3.74,.37,5.65,.97,3.38,1.04,8.74,1.46,10.66-2.33,2.08-4.11-1.61-8.96-5.62-9.86l-.87,3.17c4.78,.7,9.52-2.44,9.6-7.55,.07-4.79-4.63-8.43-9.24-6.98-1.71,.54-1.49,3.31,.44,3.23,3.97-.17,5.16-5.03,2.9-7.81-2.73-3.36-8.18-3.76-12.16-3.51-4.56,.29-9.1,1.43-13.45,2.78s-8.29,2.95-12.19,4.97c-4.4,2.27-8.51,5.05-12.27,8.27l2.75,1.6c.53-1.34,.94-2.91,.24-4.28-.59-1.15-1.81-1.97-3.12-1.87-3.02,.23-3.72,4.84-3.81,7.18l3.07-.83c-1.03-2.26-3.85-4.58-6.06-2.16-.87,.95-1.09,2.43-.76,3.65,.36,1.34,1.37,2.34,2.06,3.51l1.86-2.42c-3.81-1.44-7.15,1.59-8.51,4.91-1.6,3.93-1.13,8.31-.02,12.31s3.04,7.95,4.05,12.1c.52,2.12,.78,4.32,.46,6.49-.29,2.01-.5,3.83,1.02,5.43,3.12,3.27,8.72,1.87,9.26-2.76l-3.23,.44c.78,2.77,4.05,3.65,6.54,2.7,2.88-1.1,4.96-4.17,4.8-7.26s-2.39-5.1-3.96-7.56c-1.66-2.61-2.15-6.59,1.5-7.69,2.02-.61,1.16-3.78-.87-3.17Z"/>
        </g>
        <path class="cls-1" d="M418.03,14.87c1.15,1.44,2.3,2.87,3.45,4.31,.25,.31,.79,.48,1.16,.48,.4,0,.89-.18,1.16-.48s.5-.73,.48-1.16l-.06-.44c-.08-.28-.22-.52-.42-.73-1.15-1.44-2.3-2.87-3.45-4.31-.25-.31-.79-.48-1.16-.48-.4,0-.89,.18-1.16,.48s-.5,.73-.48,1.16l.06,.44c.08,.28,.22,.52,.42,.73h0Z"/>
        <path class="cls-1" d="M408.86,42.93c2.87,.32,5.74,.63,8.61,.95,.86,.09,1.68-.82,1.65-1.65-.04-.97-.73-1.54-1.65-1.65-2.87-.32-5.74-.63-8.61-.95-.86-.09-1.68,.82-1.65,1.65,.04,.97,.73,1.54,1.65,1.65h0Z"/>
        <path class="cls-1" d="M440.01,2.08c.29,2.01,.57,4.02,.86,6.03,.05,.38,.44,.8,.76,.98,.35,.21,.87,.29,1.27,.17s.78-.38,.98-.76c.22-.42,.23-.8,.17-1.27-.29-2.01-.57-4.02-.86-6.03-.05-.38-.44-.8-.76-.98-.35-.21-.87-.29-1.27-.17s-.78,.38-.98,.76c-.22,.42-.23,.8-.17,1.27h0Z"/>
        <path class="cls-3" d="M506.33,79.09c2.43,3.65,5.1,7.13,7.99,10.44,.57,.66,1.75,.61,2.33,0,6.76-7.17,13.2-14.65,19.96-21.82,1.45-1.54-.87-3.87-2.33-2.33-6.76,7.17-13.2,14.65-19.96,21.82h2.33c-2.7-3.1-5.19-6.35-7.47-9.77-1.17-1.75-4.02-.11-2.84,1.66h0Z"/>
        <path class="cls-3" d="M520.28,62.71c-7.01-4.16-15.76,.58-20.61,5.95-5.16,5.72-7.48,13.53-5.7,21.09s7.66,13.39,15.12,15.38,14.98-.15,20.64-5.05c6.08-5.26,10.37-15.23,5.27-22.56-1.2-1.73-4.06-.08-2.84,1.66,3.77,5.42,1.01,12.65-3.11,17.01-4.29,4.54-10.6,7.13-16.86,6.24-6.19-.89-11.76-4.86-14.15-10.71-2.51-6.15-1.49-13.09,2.21-18.51s11.88-11.51,18.37-7.65c1.82,1.08,3.48-1.76,1.66-2.84h0Z"/>
        <path d="M325.72,45.86c-.52,1.17-.41,2.44,.32,3.5s1.68,1.67,2.85,2.04c.53,.17,.82,.19,1.22,.51-.14-.11,.06,.08,.09,.11-.13-.17,.1,.13-.02-.02,.03,.13,.04,.14,.02,.03,0,.07,0,.14,0,.22,.01-.19-.03,.1-.04,.14-.05,.19,.03,0-.07,.15-.04,.07-.08,.13-.12,.19,.05-.07,.03-.06-.05,.04-.17,.15-.25,.22-.5,.33-.48,.23-1.15,.33-1.71,.42s-.91,.82-.77,1.35c.17,.62,.76,.86,1.35,.77,1.36-.23,2.74-.61,3.56-1.8s.7-2.77-.45-3.68c-.9-.71-2.12-.78-2.92-1.36-.31-.22-.61-.57-.82-1-.03-.07-.03-.07,0,0-.03-.07-.05-.14-.07-.21-.02-.07-.04-.14-.05-.21,.01,.1,.01,.1,0,.02,0-.05,.01-.4-.01-.19,0-.05,.12-.4,.06-.26,.24-.54,.16-1.18-.39-1.5-.47-.27-1.26-.15-1.5,.39h0Z"/>
        <path d="M318.82,61.09c1.42,.72,2.93,1.14,4.52,1.27,.57,.05,1.12-.54,1.1-1.1-.03-.63-.48-1.05-1.1-1.1-.17-.01-.33-.04-.5-.05,.34,.03,.01,0-.06-.01-.07-.01-.14-.02-.21-.04-.33-.06-.65-.14-.98-.23s-.64-.2-.95-.32c-.07-.03-.13-.06-.2-.08,.31,.1,0,0-.07-.03-.15-.07-.3-.14-.45-.22-.51-.26-1.21-.15-1.5,.39-.26,.5-.15,1.22,.39,1.5h0Z"/>
        <path d="M315.73,42.89c.2-.13,.41-.24,.62-.34,.11-.05,.07-.03-.02,0,.06-.02,.11-.04,.17-.06,.11-.04,.22-.08,.34-.11,.23-.06,.46-.11,.7-.15-.24,.04,.07,0,.15,0,.13,0,.27-.01,.4-.01,.12,0,.24,0,.36,.02,.06,0,.12,.01,.18,.02,.16,.01-.19-.04-.03,0,.23,.05,.47,.09,.69,.16,.11,.03,.23,.07,.34,.11,.02,0,.2,.08,.08,.03s.05,.02,.07,.04c.23,.11,.45,.24,.66,.38,.48,.32,1.24,.11,1.5-.39,.29-.55,.12-1.16-.39-1.5-2.03-1.36-4.86-1.37-6.92-.06-.48,.31-.72,.99-.39,1.5,.31,.48,.98,.72,1.5,.39h0Z"/>
        <path d="M317.76,48.19c.62-.06,1.25-.05,1.87,.03l-.29-.04c.56,.08,1.1,.21,1.63,.4s1.22-.22,1.35-.77c.14-.61-.19-1.14-.77-1.35-1.2-.42-2.52-.59-3.79-.47-.3,.03-.56,.1-.78,.32-.19,.19-.33,.5-.32,.78,.02,.55,.49,1.16,1.1,1.1h0Z"/>
        <path d="M329.95,42.68c.27-.17,.56-.31,.85-.44l-.26,.11c.51-.21,1.04-.36,1.59-.44l-.29,.04c.19-.03,.39-.04,.58-.05,.29-.01,.57-.11,.78-.32,.19-.19,.33-.5,.32-.78-.03-.57-.48-1.13-1.1-1.1-1.26,.06-2.5,.42-3.58,1.08-.49,.3-.72,1-.39,1.5s.98,.71,1.5,.39h0Z"/>
        <path d="M330.84,46.95c1.09-.39,2.17-.77,3.26-1.16,.27-.1,.51-.25,.66-.5,.14-.24,.2-.58,.11-.85-.17-.53-.77-.97-1.35-.77-1.09,.39-2.17,.77-3.26,1.16-.27,.1-.51,.25-.66,.5-.14,.24-.2,.58-.11,.85,.17,.53,.77,.97,1.35,.77h0Z"/>
      </g>
      <path class="cls-1" d="M483.58,372.71c7.37,8.13,19.74,11.15,30.01,7.24,1.96-.75,1.23-3.6-.87-3.17-6.77,1.38-12.11,7.76-12.17,14.69s5.2,13.38,11.94,14.88c2.06,.46,2.92-2.57,.87-3.17-4.26-1.26-9.23-.02-12.22,3.34-3.16,3.55-3.76,8.57-1.93,12.88,.35,.82,1.55,.99,2.25,.59,.85-.48,.94-1.44,.59-2.25-1.28-3-.61-6.81,1.66-9.15s5.69-3.14,8.77-2.22l.87-3.17c-5.34-1.19-9.56-6.16-9.52-11.71s4.41-10.43,9.76-11.52l-.87-3.17c-9.26,3.52-20.15,.95-26.81-6.4-1.43-1.57-3.75,.76-2.33,2.33h0Z"/>
    </g>
  </g>
</svg>