<?xml version="1.0" encoding="UTF-8"?>
<svg id="Layer_2" data-name="Layer 2" xmlns="http://www.w3.org/2000/svg" viewBox="0 0 757.03 808.64">
  <defs>
    <style>
      .cls-1 {
        fill: #f4d13b;
      }

      .cls-2 {
        fill: #f953b2;
      }

      .cls-3 {
        fill: #6966ed;
      }
    </style>
  </defs>
  <g id="Layer_1-2" data-name="Layer 1">
    <g>
      <g>
        <path class="cls-1" d="M247.26,295.75l-36.84-16.58-.48-.26c-48.63-26.04-58.83-81.92-43.74-121.27,11.05-28.82,33.74-43.62,57.81-37.71,34.26,8.41,41.79,30.36,43.23,42.69,.9,7.69,5.25,14,11.63,16.87l20.11,9.05-12.99,28.87-20.11-9.05c-16.63-7.48-27.87-23.21-30.08-42.06-1.31-11.2-14.41-14.41-19.34-15.63-11.9-2.92-19.33,14.73-20.7,18.3-5.08,13.25-5.69,29.7-1.62,44,3.28,11.51,11.19,27.37,30.29,37.78l35.82,16.12-12.99,28.87Z"/>
        <path class="cls-1" d="M353.96,343.77l-34.6-15.57,12.99-28.87,33.51,15.08c18.57,6.58,34.49,1.79,44.61-3.42,12.85-6.62,24.5-18.13,31.15-30.8,5.44-10.36,7.99-22.9,1.43-27.55-13.3-9.43-19.18-5.08-21.7-3.23-15.24,11.27-33.94,13.67-50.01,6.44l-18.85-8.48,12.99-28.87,18.85,8.48c5.49,2.47,12.3,1.34,18.2-3.02,7.71-5.7,16.64-8.75,25.82-8.83,10.84-.09,21.94,3.84,33,11.69,19.49,13.82,22.74,40.54,8.29,68.09-9.7,18.49-25.99,34.62-44.69,44.24-22.71,11.69-47.07,13.36-70.45,4.83l-.55-.2Z"/>
        <path class="cls-1" d="M443.18,196.16l-176.59-79.48-10.61,23.58h0c4.19,1.88,6.05,6.8,4.17,10.99l-31.34,69.64c-23.29,51.75-6.04,109.97,38.54,130.03,44.58,20.06,99.6-5.63,122.89-57.38l30.2-70.01c1.84-4.26,6.81-6.19,11.04-4.29l1.09,.49,10.61-23.58Z"/>
        <path class="cls-1" d="M284.59,504.81l6.16-13.7c3.45-7.67,.03-16.68-7.64-20.14l-16.49-7.42c-14.88-6.7-21.51-24.19-14.82-39.07l34.2-76-28.87-12.99-34.2,76c-6.7,14.88-24.19,21.51-39.07,14.82l-14.03-6.31c-7.67-3.45-16.68-.03-20.14,7.64l-6.16,13.7-34.93,22.33-34.43,76.49,179.29,80.69,34.43-76.49-3.31-39.54Z"/>
      </g>
      <path class="cls-3" d="M151.97,472.52c2.68-1.29,5.38-2.5,8.11-3.57,8.25-3.23,19.28,3.92,26.68,7.31,14.83,6.77,29.65,13.53,44.48,20.3,6.74,3.08,13.77,5.83,20.36,9.22,3.6,1.85,10.94,4.14,12.82,7.91,1.85,3.71,.42,9.12,.5,13.09,.11,5.78,.22,11.57,.33,17.35,.05,2.36,.09,4.76-.55,7.03-.64,2.29-1.93,4.33-3.16,6.36-4.49,7.42-8.37,15.2-11.6,23.24-2.14,5.33-66.24-26.33-72.31-29.5-11.46-5.98-22.79-12.2-34.21-18.25-11.24-5.96-22.63-10.81-32.69-18.54,4.07-8.09,8.15-16.19,12.22-24.28,.58-1.15,1.17-2.32,2.1-3.21,.8-.77,1.81-1.28,2.8-1.78,7.96-4.02,15.93-8.75,24.09-12.69Z"/>
      <path class="cls-2" d="M400.73,230.48c0,.16-.02,.32-.03,.48,.03-.79,.07-.35,0-.17-.1,.23-.48,1.04-.1,.36-.15,.26-.28,.53-.44,.78-.09,.15-.2,.29-.3,.44-.21,.31,.34-.37-.07,.09-1.08,1.18-2.23,2.26-3.44,3.3-2.38,2.04-5.1,4.11-6.44,7.03-1.6,3.47-.77,7.33,.06,10.89,.2,.85,.41,1.7,.6,2.56,.09,.42,.18,.84,.26,1.26,.04,.2,.2,1.31,.12,.65,.09,.77,.1,1.51,.08,2.28,0,.2-.14,.58,.02-.09-.04,.17-.07,.33-.11,.5-.03,.12-.08,.24-.11,.36-.08,.23-.05,.16,.09-.22l-.12,.22s-.23,.37-.27,.42c.49-.71,.16-.17,.05-.12-.08,.03-.27,.25-.35,.32,.14-.12,.54-.29,.07-.1-.19,.08-1.08,.51-.34,.23-.33,.13-.67,.24-1.02,.34-.74,.21-1.5,.35-2.26,.45,.7-.1-.49,.05-.64,.06-.41,.04-.83,.08-1.25,.11-3.42,.28-7.13,.36-10.2,2.06-2.84,1.57-4.36,4.6-5.59,7.47-.38,.9-.76,1.8-1.13,2.71-.04,.11-.25,.58-.01,.03-.08,.18-.15,.36-.23,.54-.15,.35-.31,.71-.48,1.06-.32,.67-.65,1.33-1.04,1.96-.18,.3-.38,.58-.58,.87,.4-.57-.09,.09-.28,.27-.24,.24-.82,.57-.22,.24-.28,.16-.97,.38-.22,.2-.33,.08-1.07,.13-.29,.15-.33,0-.66,0-.99,0,.8,.02-.13-.06-.41-.13-.36-.1-.71-.23-1.06-.36,.63,.25-.43-.22-.57-.28-.37-.19-.74-.39-1.1-.59-3.07-1.72-5.99-3.96-9.44-4.89-3.73-1-7.19,.36-10.4,2.21-1.51,.87-2.97,1.83-4.5,2.68-.36,.2-.73,.4-1.1,.59-.14,.07-1.2,.53-.57,.28-.35,.14-.7,.26-1.06,.36-.17,.05-.35,.08-.52,.13-.6,.18,.36,.01-.01,.01-.29,0-.58,0-.87,0,.77-.02,.04-.05-.29-.15,.67,.21,.08-.03-.22-.2,.11,.06,.51,.49,.12,.09-.14-.14-.29-.27-.43-.41-.19-.2-.57-.71-.2-.19-.2-.28-.4-.57-.58-.87-.41-.67-.77-1.38-1.1-2.09-.14-.31-.28-.62-.42-.93-.08-.18-.16-.36-.23-.54,.23,.55,.03,.07-.01-.03-.39-.95-.78-1.9-1.19-2.84-.58-1.35-1.19-2.72-2.03-3.93-2.02-2.94-4.85-4.4-8.34-4.91-1.83-.27-3.67-.41-5.52-.57-.36-.03-.73-.06-1.09-.1-.15-.02-1.34-.16-.64-.06-.81-.11-1.61-.26-2.39-.49-.3-.09-.59-.19-.89-.3,.73,.28-.15-.14-.34-.23-.47-.2-.06-.02,.07,.1-.09-.07-.27-.29-.35-.32-.11-.04-.44-.58,.05,.12-.12-.17-.22-.35-.33-.53-.19-.3,.07,.19,.08,.22-.05-.16-.11-.32-.15-.48s-.07-.33-.11-.5c.16,.67,.02,.29,.02,.09,0-.37-.03-.74-.02-1.11,0-.19,.02-.39,.04-.58,0-.08,.1-.88,.04-.45s.04-.23,.06-.32c.03-.15,.05-.31,.08-.46,.08-.42,.17-.84,.26-1.26,.2-.91,.42-1.81,.63-2.72,.42-1.82,.81-3.66,.93-5.53,.24-3.65-1.3-6.59-3.83-9.11-2.28-2.26-4.94-4.1-7.05-6.53-.32-.37,.28,.42,.02,.02-.07-.11-.15-.22-.23-.33-.19-.29-.34-.59-.51-.89,.39,.68,0-.13-.1-.36-.09-.19-.02-.6,0,.17,0-.2-.02-.4-.02-.6,0-.13,.09-.64,0-.16s0,.02,.03-.03c.12-.24,.45-.98,.1-.36,.17-.3,.32-.6,.51-.89,.1-.15,.2-.29,.3-.44-.27,.38-.11,.14,.09-.08,2.14-2.41,4.82-4.23,7.07-6.52,2.51-2.56,3.92-5.56,3.61-9.2-.16-1.88-.55-3.72-.98-5.56-.19-.8-.38-1.6-.56-2.4-.09-.42-.18-.84-.26-1.26-.04-.21-.07-.41-.11-.62-.12-.63,0,.2-.03-.18-.07-.72-.08-1.41-.06-2.13,.01-.62,.01-.04-.02,.09,.04-.17,.07-.33,.11-.5s.1-.32,.15-.48c-.14,.39-.17,.34,.04,0,.42-.64-.34,.2,.24-.27s-.33,.06,.19-.14c.21-.08,1.02-.49,.34-.23,.38-.15,.76-.27,1.15-.37,.7-.19,1.41-.32,2.13-.42-.66,.09,.43-.04,.64-.06,.47-.05,.93-.09,1.4-.12,1.84-.15,3.67-.29,5.5-.58,3.47-.55,6.24-2.11,8.19-5.08,.82-1.25,1.42-2.62,2-3.99,.36-.85,.72-1.71,1.07-2.57,.24-.59,.06-.16,.01-.03,.08-.18,.15-.36,.23-.54,.17-.4,.35-.79,.54-1.19,.3-.62,.62-1.24,.98-1.83,.18-.3,.38-.58,.58-.87-.46,.65,.22-.21,.36-.36,.11-.11,.23-.21,.35-.32,.32-.3-.5,.3-.11,.1s.67-.26,.12-.13c.32-.07,1.02-.19,.29-.15,.2,0,1.19,.04,.81-.02-.44-.06,.59,.16,.72,.2,.31,.09,.62,.21,.93,.32-.59-.23,.38,.19,.57,.28,.42,.21,.83,.44,1.24,.67,1.52,.86,2.98,1.82,4.5,2.68,3.22,1.83,6.68,3.14,10.39,2.09,3.44-.98,6.35-3.21,9.44-4.92,.36-.2,.73-.4,1.1-.58,.18-.09,.36-.17,.54-.26,.47-.22-.45,.16,.02,0,.31-.11,.61-.22,.92-.31,.17-.05,.35-.08,.52-.13,.75-.22-.41,0,.01-.01,.16,0,1.12,.06,.67-.02-.63-.12,.89,.38,.31,.1-.43-.2,.27,.2,.4,.27-.69-.39,.08,.09,.31,.32,.11,.12,.21,.24,.32,.36,.31,.34-.32-.46-.05-.07,.19,.29,.39,.58,.57,.88,.38,.64,.72,1.3,1.03,1.97,.16,.35,.32,.71,.48,1.06,.04,.08,.28,.65,.12,.29s.09,.21,.12,.29c.37,.9,.75,1.81,1.13,2.7,1.24,2.88,2.82,5.96,5.75,7.45,3.17,1.61,6.83,1.68,10.29,1.98,.36,.03,.72,.06,1.09,.1,.2,.02,.41,.05,.61,.07,.53,.06-.5-.08,.02,0,.8,.12,1.6,.27,2.37,.51,.14,.04,.98,.37,.6,.2s.5,.3,.6,.36c.31,.17-.15-.14-.18-.16,.05,.05,.27,.29,.35,.32,.32,.12,.14,.14-.05-.12,.15,.21,.26,.42,.38,.63-.31-.52-.06-.09,.05,.27,.22,.75,.04-.39,.07,.42,.01,.33,.02,.65,0,.97,0,.19-.02,.39-.04,.58,0,.07-.13,1.03-.02,.32-.26,1.71-.7,3.38-1.09,5.06-.83,3.56-1.55,7.35,.11,10.79,1.4,2.9,4.21,4.97,6.58,7.02,1.13,.98,2.2,1.99,3.21,3.1,.41,.45,.07,.09,0-.02,.1,.14,.21,.29,.3,.44,.19,.29,.34,.59,.51,.89-.31-.55-.04-.05,.06,.24,.04,.11,.16,.64,.06,.15-.11-.54,0,.21,0,.28,.05,1.78,1.48,3.3,3.3,3.3s3.34-1.51,3.3-3.3c-.1-3.77-2.59-6.65-5.27-9.03-1.26-1.12-2.58-2.18-3.82-3.33-.56-.52-1.11-1.05-1.61-1.63-.12-.14-.23-.27-.35-.41,.08,.1,.35,.54,.04,.04-.18-.29-.35-.7-.57-.96-.28-.32,.17,.54,.06,.14-.04-.16-.1-.32-.14-.48-.23-.75-.05,.37-.08-.44-.02-.38-.02-.75,0-1.13,0-.17,.14-1.43,.05-.76,.26-1.82,.75-3.6,1.16-5.39,.8-3.5,1.62-7.63-.42-10.89s-6.07-4.17-9.71-4.58c-1.76-.2-3.53-.28-5.29-.48-.2-.02-.4-.04-.61-.07,.14,.02,.62,.11-.01-.01-.33-.06-.66-.12-.99-.19-.36-.08-.72-.17-1.07-.28-.17-.05-.34-.12-.5-.17-.36-.12,.46,.31-.04-.02-.27-.18-.56-.34-.84-.51,.69,.41,.02-.04-.19-.25-.11-.11-.21-.24-.32-.36,.46,.51,.16,.23,.07,.08-.24-.37-.48-.73-.69-1.1-.37-.65-.69-1.32-1-2-.16-.35-.31-.71-.47-1.07,.26,.61-.24-.57-.29-.72-1.25-3.03-2.49-6.44-5.1-8.6-3.32-2.74-7.23-2.18-10.86-.42-1.59,.77-3.09,1.74-4.6,2.65-.74,.45-1.49,.89-2.25,1.3-.37,.2-.74,.37-1.12,.56-.47,.23,.44-.16-.04,.03-.23,.09-.45,.17-.68,.25-.36,.12-.72,.19-1.08,.29-.6,.16-.06,0,.08,0-.17,0-.35,.02-.52,.02s-.35-.02-.52-.02c.14,0,.68,.16,.08,0-.41-.11-.81-.2-1.22-.34-.18-.06-.37-.13-.55-.2-.48-.19,.43,.21-.04-.03-.37-.18-.75-.36-1.12-.56-.81-.43-1.61-.9-2.39-1.38-3.05-1.85-6.44-4.21-10.17-4.14s-6.44,2.71-8.12,5.84c-.84,1.57-1.5,3.24-2.18,4.89-.05,.13-.5,1.2-.24,.58-.15,.36-.31,.72-.47,1.07-.34,.76-.71,1.51-1.13,2.23-.18,.3-.37,.58-.56,.87-.1,.15-.4,.44,.07-.08-.11,.12-.2,.25-.32,.36-.21,.21-.88,.66-.19,.25-.32,.19-.63,.38-.95,.56-.41,.23,.53-.18,.08-.03-.17,.06-.33,.12-.5,.17-.35,.11-.71,.2-1.07,.28-.33,.07-.66,.13-.99,.19-.63,.12-.15,.03-.01,.01-.3,.04-.61,.07-.91,.11-3.41,.36-7.06,.26-10.28,1.56-3.84,1.55-5.88,4.88-5.68,9.02,.09,1.9,.49,3.79,.92,5.64,.2,.86,.41,1.71,.6,2.56,.09,.42,.19,.84,.27,1.27,.04,.21,.08,.42,.12,.62,.01,.08,.13,.91,.08,.48s.02,.22,.03,.31c.01,.2,.03,.39,.04,.59,.02,.38,0,.75,0,1.13-.03,.81,.15-.31-.08,.44-.05,.16-.1,.32-.14,.48-.09,.33,.34-.51,0-.03-.19,.26-.35,.57-.52,.85-.31,.5-.04,.06,.04-.04-.11,.14-.23,.28-.35,.41-.57,.65-1.2,1.25-1.83,1.83-2.55,2.32-5.41,4.34-7.33,7.26-2.04,3.1-1.97,6.97,.15,10.01,2.01,2.88,4.85,4.89,7.4,7.24,.56,.52,1.11,1.05,1.61,1.63,.12,.14,.23,.27,.35,.41-.42-.52-.12-.17-.04-.04,.22,.35,.43,.7,.62,1.07-.34-.65-.03,.07,.06,.36,.05,.15,.1,.64,.01-.1,.02,.18,.03,.36,.04,.54,.02,.38,.01,.76,0,1.14-.01,.2-.03,.39-.05,.59-.04,.63,.05-.21-.02,.18-.58,3.62-1.9,7.15-1.99,10.84-.1,4.17,2.07,7.35,5.93,8.84,3.25,1.25,6.93,1.12,10.35,1.5,.2,.02,.4,.04,.61,.07-.63-.09-.11-.01,.01,.01,.38,.07,.76,.13,1.13,.22s.71,.18,1.06,.29c.17,.05,.33,.12,.5,.18-.4-.15-.3-.15,.02,.04,.12,.07,.93,.63,.57,.33-.37-.31,.34,.37,.43,.46,.54,.55-.2-.37,.24,.3,.22,.33,.43,.66,.62,1,.37,.65,.69,1.32,1,2,.16,.35,.31,.71,.47,1.07-.24-.55-.03-.08,.01,.03,.11,.28,.23,.55,.34,.82,.68,1.64,1.34,3.3,2.2,4.86,1.7,3.06,4.51,5.71,8.24,5.59s7.08-2.43,10.21-4.31c.74-.45,1.49-.88,2.25-1.29,.37-.19,.74-.37,1.11-.55-.56,.26,.57-.2,.72-.25,.36-.11,.71-.19,1.08-.27,.48-.11-.56,0-.08,.02,.13,0,.26-.01,.39-.01,.18,0,.35,.02,.52,.02-.68-.03-.27-.05-.08,0,.46,.12,.91,.23,1.35,.38,.18,.07,.37,.14,.55,.21-.14-.06-.52-.26,.04,.04,.37,.19,.75,.37,1.12,.57,.81,.44,1.61,.91,2.39,1.39,1.5,.91,2.99,1.87,4.59,2.61,3.66,1.71,7.52,2.11,10.77-.69,2.56-2.21,3.78-5.7,5.03-8.73,.08-.18,.15-.37,.23-.55,.2-.48-.19,.44,.01-.03,.15-.36,.31-.71,.47-1.07,.33-.72,.67-1.42,1.07-2.1,.18-.3,.37-.58,.56-.87,.32-.5,.01-.01-.07,.08,.11-.12,.2-.25,.32-.36,.23-.22,.79-.65,.19-.25,.34-.23,.69-.43,1.07-.62-.65,.33,.21-.05,.44-.12,.36-.11,.72-.19,1.08-.27,.33-.07,.67-.12,1-.18,.52-.09-.51,.06,.02,0,.25-.03,.51-.06,.76-.09,1.76-.18,3.53-.27,5.29-.48,3.64-.44,7.53-1.34,9.53-4.76s1.03-7.49,.22-10.99c-.2-.86-.41-1.71-.6-2.56-.09-.42-.19-.84-.27-1.27-.04-.21-.08-.42-.12-.62-.01-.06-.14-1.07-.06-.35-.08-.77-.09-1.52-.07-2.3,0-.2,.15-.57-.01,.08,.04-.17,.08-.34,.12-.51,.04-.16,.1-.31,.15-.46-.12,.38-.21,.4,.02,.03,.17-.29,.35-.57,.53-.85,.26-.39-.35,.41-.03,.04,.12-.14,.23-.28,.36-.41,.54-.61,1.14-1.18,1.74-1.73,1.25-1.14,2.58-2.19,3.83-3.33,2.59-2.34,4.95-5.17,5.04-8.83,.05-1.78-1.55-3.3-3.3-3.3s-3.25,1.51-3.3,3.3Z"/>
      <circle class="cls-2" cx="348.23" cy="230.48" r="29.68"/>
      <path d="M281.28,297.95c-7.36-3.44-14.71-6.89-22.07-10.33-11.72-5.48-23.44-10.97-35.15-16.45-2.68-1.26-5.36-2.51-8.05-3.77-1.61-.75-3.55-.45-4.51,1.18-.84,1.43-.44,3.75,1.18,4.51,7.36,3.44,14.71,6.89,22.07,10.33,11.72,5.48,23.44,10.97,35.15,16.45,2.68,1.26,5.36,2.51,8.05,3.77,1.61,.75,3.55,.45,4.51-1.18,.84-1.43,.44-3.75-1.18-4.51h0Z"/>
      <path d="M268.23,325.84c-7.36-3.44-14.71-6.89-22.07-10.33-11.72-5.48-23.44-10.97-35.15-16.45-2.68-1.26-5.36-2.51-8.05-3.77-1.61-.75-3.55-.45-4.51,1.18-.84,1.43-.44,3.75,1.18,4.51,7.36,3.44,14.71,6.89,22.07,10.33,11.72,5.48,23.44,10.97,35.15,16.45,2.68,1.26,5.36,2.51,8.05,3.77,1.61,.75,3.55,.45,4.51-1.18,.84-1.43,.44-3.75-1.18-4.51h0Z"/>
      <path d="M255.18,353.73c-7.36-3.44-14.71-6.89-22.07-10.33-11.72-5.48-23.44-10.97-35.15-16.45-2.68-1.26-5.36-2.51-8.05-3.77-1.61-.75-3.55-.45-4.51,1.18-.84,1.43-.44,3.75,1.18,4.51,7.36,3.44,14.71,6.89,22.07,10.33,11.72,5.48,23.44,10.97,35.15,16.45,2.68,1.26,5.36,2.51,8.05,3.77,1.61,.75,3.55,.45,4.51-1.18,.84-1.43,.44-3.75-1.18-4.51h0Z"/>
      <path d="M500.72,802.39c-12.57-8.29-21.3-21.24-26.24-35.32-5.27-15.04-4.41-30.35-3.42-46,.5-7.9,.98-15.85,.35-23.76-.54-6.63-1.46-14.23-5.18-19.91-7.09-10.83-22.84-14.14-31.69-3.48-9.12,11-2.23,25.55,10.92,28.69,7.93,1.89,16.04-.36,23.4-3.33,6.62-2.67,13.01-5.85,19.1-9.58,23.86-14.63,42.04-36.44,57.81-59.2,36.21-52.28,66.65-108.2,86.77-168.66,10.4-31.24,18.17-63.35,23.11-95.9,2.5-16.46,4.31-33.02,5.36-49.63,.75-11.85,3.59-28.19-4.49-38.32-6-7.54-18.71-8.63-23.44,.76-4.04,8.02-2.24,19.09,4.02,25.44,8.38,8.51,20.63,12.75,30.81,18.6,11.11,6.38,20.32,16.6,28.18,26.59,34.38,43.72,42.76,104.83,22.76,156.51-15.89,41.06-48.72,71.87-87.68,91.15-40.78,20.18-86.92,28.77-132.12,30.44-47.45,1.76-94.67-4.41-139.94-18.76-32.97-10.45-64.65-24.52-95.47-40.14-15.21-7.7-30.22-15.79-45.13-24.04-7.66-4.24-15.29-8.52-22.91-12.81-6.68-3.77-13.82-7.19-20.01-11.73-4.67-3.42-9.75-9.24-6.45-15.27,2.63-4.79,9.15-7.59,14.11-4.79,3.75,2.12,6.75-3.28,3.33-5.69-4.98-3.52-7.02-10.87-4.06-16.32s9.89-7.68,15.69-5.76c3.71,1.23,5.51-4.03,2.54-6.03-5.05-3.4-7.23-10.68-4.28-16.15s9.92-7.57,15.67-5.55c3.55,1.25,5.77-4.23,2.54-6.03-5.54-3.07-6.85-10.68-3.99-16.07,4.75-8.93,16.91-4.4,23.81-1.09,19.84,9.52,39.32,19.86,58.96,29.78,2.39,1.21,4.67-.33,4.96-2.85,1.4-12.23,4.18-30.54,19.42-32.58,13.56-1.81,15.1,14.44,15.5,24,.49,11.64,1.42,22.46,6.76,33.05,5.3,10.51,13.55,19.25,22.84,26.34,20.86,15.92,46.95,23.47,72.77,25.96,28.92,2.8,59.16-1.75,84.57-16.38,21.64-12.46,39.51-31.83,48.43-55.31,8.75-23.04,7.24-49.44-3.92-71.4-5.43-10.69-13.26-20.06-22.94-27.14-11.26-8.24-24.71-12.91-38.03-16.63-13.63-3.81-27.49-6.79-40.73-11.88-12.85-4.95-25.06-11.63-36.29-19.58-21.74-15.39-38.94-35.84-51.62-59.17-11.72-21.56-19.94-44.76-28.2-67.79-15.85-44.24-32.96-91.96-73.04-120.16-42.5-29.89-102.11-30.65-146.33-4.09-44.31,26.61-71.99,76.54-73.39,127.91-1.52,56.04,25.79,109.17,68.73,144.3,21.57,17.65,46.15,31.08,71.82,41.75,12.85,5.34,26.07,10.34,39.48,14.07,10.39,2.89,25.69,3.92,30.34-8.37,2.98-7.86-.12-17.91-9.34-18.88v6.59c17.61,1.42,28.49-23.84,15.72-35.83l-3.21,5.51c8.61,1.76,17.93-2.16,21.83-10.29,3.82-7.96,1.25-18.08-5.69-23.44l-3.21,5.51c8.6,2.7,18.06-2.29,21.67-10.37,3.88-8.69-.9-17.34-7.83-22.73-8.89-6.9-20.29-10.91-30.39-15.68-12.43-5.87-24.87-11.74-37.3-17.61l.67,5.18c6.48-6.87,13.23-14.21,15.95-23.49,2.17-7.4,1.01-15.97-3.77-22.13s-12.55-8.25-19.89-5.96c-7.78,2.43-13.87,8.24-20.91,12.1-7.72,4.23-15.95,3.9-23.11-1.43-8.37-6.23-11.59-16.36-11.25-26.47,.6-17.79,10.13-35.63,21.45-48.98,21.13-24.91,52.84-39.55,84.91-43.62,35.81-4.54,71.56,5.24,103.15,21.87,34.4,18.11,64.95,44.32,88.35,75.35,5.38,7.13,9.87,14.76,14.89,22.12,6.16,9.03,14.07,17.25,21.7,25.04s16.04,14.89,24.78,21.6,16,13.5,24.01,20.37c11.85,10.18,26.05,17.33,41.8,18.55,14.2,1.1,28.2-3.9,36.64-15.73,5.29-7.41,7.4-16.57,10.25-25.07,3.3-9.82,7.96-17.65,16.21-24.1,7.09-5.55,14.65-10.32,20.09-17.66,5.64-7.6,8.7-16.84,9.83-26.17,2.31-18.94-3.14-38.77-11.77-55.53-8.47-16.44-21.06-31.83-36.75-41.84-14.41-9.19-31.56-12.51-48.32-9.15s-33.21,13.78-45.82,26.16c-11.4,11.2-22.08,24.59-29.36,38.89-4.48,8.79-7.77,18.65-6.96,28.64,1.3,16.02,12.31,27.71,20.32,40.79,4.21,6.87,7.49,14.34,8.28,22.43,1.08,11-1.88,21.99-6.24,32.01-5.75,13.21-12.23,26.21-20.92,39.06-18.37,27.17-42.87,50.14-71.27,66.56-36.79,21.26-78.87,29.5-121.03,26.24-26.74-2.07-53.67-2.52-80.44-.72-30.83,2.07-62.27,6.85-90.97,18.76-13.35,5.54-26.05,12.65-37,22.16-12.63,10.97-24.68,22.98-35.44,35.79-22.48,26.77-39.33,57.53-51.86,90.09-6.73,17.49-12.22,35.44-16.94,53.57-1.07,4.11,5.29,5.86,6.36,1.75,9.26-35.61,21.63-70.62,40.26-102.49,8.6-14.72,18.48-28.67,29.65-41.55,5.74-6.61,11.79-12.95,18.12-18.99,5.39-5.14,10.76-10.46,16.51-15.2,22.88-18.87,53.04-27.62,81.76-32.66,29.39-5.15,59.46-6.32,89.25-5.52,12.25,.33,24.44,1.29,36.67,2.04,20.77,1.28,41.76-.49,62.03-5.23,37.69-8.83,72.32-28.46,100.03-55.39,17.28-16.79,32.21-36.48,43.08-58.02,7.19-14.25,14.63-29.6,15.18-45.78,.59-17.43-8.38-31-17.81-44.76-4.07-5.95-8.06-12.14-9.95-19.17-2.21-8.25-.92-16.65,2.07-24.53,5.22-13.72,14.83-25.89,24.41-36.81,11.97-13.66,26.96-25.53,44.68-30.53,16.6-4.68,33.8-1.99,48.32,7.26,16.11,10.26,28.6,26.69,36.53,43.88,7.88,17.09,12.37,37.98,6.85,56.42-2.78,9.3-8.19,16.76-15.75,22.74-7.18,5.68-15.01,10.45-20.43,18.03-10.06,14.08-8.85,34.95-23.05,46.18-11.17,8.83-26.87,7.85-39.62,3.47-17.62-6.06-29.36-20.55-43.77-31.55-17.69-13.5-33.67-28.46-47.35-46.09-2.73-3.52-4.84-7.56-7.31-11.28-2.8-4.22-5.73-8.35-8.78-12.4-5.44-7.21-11.21-14.16-17.32-20.81-12.83-13.95-27.09-26.56-42.45-37.66-29.74-21.5-64.57-37.71-101.25-42.16-31.92-3.86-65.53,2.89-93.37,19.01-27.64,16.01-52.78,44.59-55.59,77.64-1.47,17.28,7.52,36.86,26.25,39.91,8.27,1.35,15.54-1.92,22.32-6.35,5.86-3.82,12.84-10.22,20.36-9.39,8.18,.9,11.68,10.23,10.78,17.45-1.19,9.5-8.72,17.15-14.96,23.77-1.34,1.42-1.33,4.24,.67,5.18,19.27,9.1,38.72,17.91,57.84,27.33,6.32,3.11,15.23,7.79,15.85,15.8,.59,7.51-7.92,13.35-14.75,11.2-2.97-.93-5.88,3.45-3.21,5.51,4.57,3.53,6.98,9.69,4.72,15.28s-8.71,8.6-14.45,7.42c-3.05-.62-5.75,3.12-3.21,5.51,8.76,8.23,.78,25.53-11.06,24.58-4.26-.34-4.16,6.16,0,6.59,3.93,.41,4.25,5.78,3.56,8.71-1.38,5.87-7.37,7.51-12.8,7.36-6.63-.18-13.14-2.66-19.37-4.71-6.25-2.06-12.46-4.24-18.62-6.57-25.21-9.56-49.63-21.72-71.43-37.67-21.62-15.82-40.28-35.65-53.5-59.03-13.28-23.5-21.19-50.14-22.22-77.16-1.9-50,21.83-100.03,63.48-128.39,41.7-28.39,99.21-30.39,141.99-3,40.07,25.65,57.49,72.27,72.82,115.01,7.87,21.93,15.57,44.01,25.91,64.93,10.87,21.98,25.07,42.07,43.55,58.33,19.61,17.25,42.79,29.78,67.86,37.01,25.14,7.25,53.17,11.22,71.69,31.58,15.97,17.56,22.53,43.24,18.55,66.47-4.13,24.09-19.09,45.43-38.52,59.85-22.56,16.74-50.45,23.94-78.31,23.62-26.02-.3-52.96-6.23-75.24-20.06-9.69-6.01-18.66-13.69-25.03-23.23-6.37-9.53-9.05-19.85-9.49-31.2-.38-9.74,.02-21.42-6.68-29.32-7.43-8.77-19.9-7.64-28.29-.94-10.15,8.1-11.93,21.72-13.31,33.79l4.96-2.85c-12.74-6.44-25.48-12.88-38.22-19.32-6.15-3.11-12.29-6.25-18.45-9.33-5.21-2.6-10.59-5.12-16.41-5.91-9.18-1.25-17.96,3.13-20.39,12.45-2.05,7.85,.73,16.83,8.03,20.88l2.54-6.03c-8.84-3.11-19.44,.94-23.56,9.47s-.65,19.07,7.09,24.28l2.54-6.03c-8.91-2.95-19.44,1.13-23.59,9.69-4.19,8.66-.77,19.06,6.88,24.45l3.33-5.69c-9.75-5.51-23.36,1.35-24.95,12.45-2.04,14.18,14.68,21.7,24.64,27.33,29.46,16.65,59.03,33.17,89.51,47.91,51.08,24.7,104.74,43.91,161.39,49.98,44.36,4.75,89.88,2.94,133.45-6.94,42.01-9.53,83.48-27.31,114.84-57.53,34.41-33.16,53.08-80.24,50.57-128.02-1.41-26.94-9.21-53.54-22.93-76.79-6.87-11.64-15.24-22.45-24.85-31.95-4.19-4.14-8.57-8.32-13.55-11.52s-10.5-5.87-15.82-8.65c-8.62-4.52-20.19-9.41-21.16-20.41-.3-3.47,.02-8.7,3.3-10.82,3.9-2.52,9.28,.76,11.32,4.18,3.19,5.35,3.04,12.29,2.83,18.29-.28,7.95-.76,15.9-1.4,23.83-1.32,16.45-3.37,32.83-6.15,49.09-10.98,64.21-32.91,126.47-64.38,183.49-14.32,25.95-30.37,51.46-47.72,75.5-16.23,22.48-35.59,43.38-60.77,55.83-6.93,3.43-14.76,7.09-22.62,7.24-6.79,.12-15.77-3.82-15.33-11.87,.37-6.71,6.98-11.95,13.55-10.89,7.42,1.2,11.41,7.42,13.04,14.18,3.59,14.89,.94,30.64,.35,45.72s1.4,29.42,7.75,43.29c5.71,12.45,14.42,23.36,25.9,30.93,3.55,2.34,6.86-3.37,3.33-5.69h0Z"/>
      <path d="M212.12,444.82c7.26,3.64,14.52,7.28,21.78,10.92,11.57,5.8,23.13,11.6,34.7,17.4,2.65,1.33,5.29,2.66,7.94,3.98,1.59,.8,3.57,.42,4.51-1.18,.86-1.46,.42-3.71-1.18-4.51-7.26-3.64-14.52-7.28-21.78-10.92-11.57-5.8-23.13-11.6-34.7-17.4-2.65-1.33-5.29-2.66-7.94-3.98-1.59-.8-3.57-.42-4.51,1.18-.86,1.46-.42,3.71,1.18,4.51h0Z"/>
      <path d="M198.32,472.35c7.26,3.64,14.52,7.28,21.78,10.92,11.57,5.8,23.13,11.6,34.7,17.4,2.65,1.33,5.29,2.66,7.94,3.98,1.59,.8,3.57,.42,4.51-1.18,.86-1.46,.42-3.71-1.18-4.51-7.26-3.64-14.52-7.28-21.78-10.92-11.57-5.8-23.13-11.6-34.7-17.4-2.65-1.33-5.29-2.66-7.94-3.98-1.59-.8-3.57-.42-4.51,1.18-.86,1.46-.42,3.71,1.18,4.51h0Z"/>
      <path d="M184.51,499.87c7.26,3.64,14.52,7.28,21.78,10.92,11.57,5.8,23.13,11.6,34.7,17.4,2.65,1.33,5.29,2.66,7.94,3.98,1.59,.8,3.57,.42,4.51-1.18,.86-1.46,.42-3.71-1.18-4.51-7.26-3.64-14.52-7.28-21.78-10.92-11.57-5.8-23.13-11.6-34.7-17.4-2.65-1.33-5.29-2.66-7.94-3.98-1.59-.8-3.57-.42-4.51,1.18-.86,1.46-.42,3.71,1.18,4.51h0Z"/>
      <path d="M597.28,125.89c.16,.01,.32,.03,.47,.04,.1,.01,.55,.08,.08,0,.28,.05,.56,.09,.84,.15,.59,.12,1.17,.28,1.75,.46,.3,.1,.6,.21,.9,.32,.39,.14-.14-.07,.09,.04,.14,.07,.29,.13,.43,.2,.54,.26,1.08,.55,1.59,.86,.24,.15,.48,.31,.72,.47,.13,.09,.26,.18,.39,.28,.07,.05,.41,.33,.08,.06,.46,.39,.92,.78,1.35,1.2s.83,.88,1.21,1.34c-.2-.24-.04-.06,.06,.08,.09,.13,.19,.26,.28,.39,.18,.26,.35,.53,.51,.8,.6,.98,2,1.44,3.01,.79s1.43-1.95,.79-3.01c-3.11-5.13-8.58-8.41-14.54-8.88-1.15-.09-2.25,1.08-2.2,2.2,.06,1.27,.97,2.1,2.2,2.2h0Z"/>
      <path d="M558.75,97.88c2.2-.37,4.35,1.52,5.8,2.93,1.91,1.86,3.55,3.95,4.66,6.39s1.78,5.24,1.43,7.81c-.33,2.43-2.55,3.43-4.71,3.89-6.25,1.32-12.64-1.4-18.95-.34-2.7,.45-5.4,1.89-6.63,4.45-1.47,3.06-.25,5.87,1.8,8.29,4.14,4.88,9.95,8.35,16.14,9.91,2.74,.7,3.91-3.54,1.17-4.24-5.46-1.39-10.37-4.36-14.07-8.63-.69-.79-1.57-1.82-1.28-2.95s1.41-1.87,2.47-2.23c2.82-.95,6.12-.45,9.01-.13,5.55,.61,12.87,1.68,17.21-2.81,4.19-4.34,2.04-12.09-.55-16.7-2.82-5.01-8.4-10.92-14.67-9.86-1.17,.2-1.83,1.64-1.54,2.7,.34,1.24,1.53,1.73,2.7,1.54h0Z"/>
      <g>
        <path d="M583.02,65.51c-1.94-6.97-.23-14.63,3.55-20.8,3.79-6.17,9.49-10.96,15.67-14.72,10.98-6.68,23.92-10.38,36.74-9.43s25.4,6.74,33.68,16.57c4.55,5.4,7.8,12.09,8.13,19.15,.32,7.05-2.58,14.41-8.3,18.54-1.89,1.36-4.14,2.38-6.47,2.25s-4.66-1.65-5.2-3.92c-.57-2.4,.93-4.81,2.7-6.53,8.08-7.84,21.15-6.95,31.95-3.78,11.66,3.43,22.71,8.92,32.49,16.15,13.39,9.89,24.84,24.26,25.79,40.88,1.08,18.87-13.5,37.39-32.1,40.77-6.32,1.15-13.42,.51-18.24-3.73-1.36-1.2-2.55-2.77-2.67-4.58-.18-2.67,2.1-5.04,4.68-5.77,2.58-.73,5.34-.18,7.91,.59,8.94,2.69,17.14,8.23,22.29,16.03,14.98,22.71-9.51,53.07-34.9,49.93-3.81-.47-8.44-2.86-7.86-6.65,.22-1.43,1.2-2.65,2.36-3.51,5.67-4.23,14.67,.1,16.83,6.83,2.16,6.74-.95,14.2-5.69,19.45-9.51,10.52-25.91,14.13-38.95,8.57-5.36-2.29-10.11-5.92-15.62-7.83-6.27-2.17-13.09-1.95-19.72-1.71,11.23-9.21,20.41-20.92,26.69-34.02,2.22-4.64,4.09-10.05,2.16-14.82-1.34-3.31-4.35-5.72-7.61-7.18-6.2-2.78-14.04-2.35-19.18,2.08-5.14,4.43-6.5,13.06-2.09,18.22-3.29,1.16-7.11-.06-9.66-2.46s-3.97-5.76-4.73-9.18c-1.57-7.11-.42-14.79,3.18-21.12,3.07-5.41,7.75-9.72,11.46-14.72,7.76-10.46,10.94-25.14,5.06-36.77-3.72-7.36-10.6-12.74-18.09-16.2-7.12-3.3-16.35-3.58-22.66-8.25-5.61-4.16-11.71-11.63-13.57-18.35Z"/>
        <path d="M586.19,64.63c-2.76-10.35,3.16-20.42,11.03-27.07,8.22-6.95,18.91-11.53,29.56-13.24s21.1-.12,30.31,4.66,16.74,12.26,19.5,22.06c.72,2.55,1.02,4.84,.88,7.5-.1,1.95-.69,4.63-1.43,6.43-.9,2.18-2.1,4.01-3.63,5.55s-3.54,3.09-5.6,3.25c-.96,.07-1.37-.04-2.13-.51-.41-.25-.25-.15-.51-.51-.17-.23-.25-.39-.21-.76,.17-1.78,2.47-3.72,3.71-4.59,3.76-2.59,7.99-3.5,12.44-3.58,4.95-.09,9.26,.69,14.1,2.09,5.33,1.54,10.53,3.52,15.53,5.94,9.8,4.74,18.8,10.78,26.29,18.6,6.79,7.09,12.11,15.58,13.91,25.33,.39,2.09,.59,4.5,.53,6.92-.03,1.06-.11,2.12-.22,3.18-.12,1.13,.05-.31-.04,.35-.04,.29-.09,.58-.14,.87-.1,.58-.22,1.16-.34,1.73-1.04,4.67-2.63,8.35-5.24,12.37-1.3,2.01-2.3,3.3-3.96,5.09-.76,.83-1.56,1.62-2.39,2.39-.39,.36-.79,.71-1.2,1.06-.27,.23-.54,.46-.82,.68-.06,.05-.8,.62-.45,.36-3.74,2.84-7.53,4.76-11.8,5.96-4.5,1.26-9.22,1.63-13.66,.25-2.05-.64-4.2-1.75-5.6-3.53-.45-.58-.7-1.1-.59-1.82-.1,.69,.23-.55,0,.03,.08-.2,.22-.42,.33-.6,.13-.21,.48-.56,.64-.69,1.73-1.27,4.25-.94,6.57-.31,2.52,.68,4.74,1.53,6.96,2.63,4.53,2.24,8.32,5.03,11.67,8.8,1.49,1.68,2.81,3.53,3.93,5.65,.23,.43,.45,.88,.66,1.32,.11,.24,.23,.49,.33,.74-.2-.48,0,.02,.03,.1,.36,.99,.71,1.98,.97,3,.13,.5,.25,1,.35,1.51,.05,.25,.09,.51,.14,.76,.03,.16,.13,.83,.04,.19,.14,1.01,.2,2.03,.22,3.04,.01,.96-.02,1.92-.11,2.88-.02,.2-.17,1.45-.07,.78-.09,.6-.19,1.2-.32,1.8-.39,1.9-.98,3.75-1.69,5.56-.37,.94,.28-.57-.15,.35-.09,.19-.17,.38-.26,.56-.22,.47-.45,.93-.69,1.39-.48,.92-1,1.82-1.55,2.7-.5,.8-1.04,1.57-1.6,2.33-.02,.03-.65,.84-.25,.33-.13,.16-.26,.33-.4,.49-.37,.45-.74,.89-1.13,1.32-1.37,1.54-2.86,2.97-4.45,4.28-.2,.17-.41,.33-.62,.5-.47,.37,.61-.44-.21,.16-.39,.28-.77,.56-1.16,.83-.91,.63-1.85,1.22-2.82,1.77-.82,.47-1.67,.91-2.52,1.32-.24,.11-.48,.22-.72,.33-.13,.06-.76,.32-.23,.1-.53,.22-1.08,.43-1.62,.62-1.94,.69-3.92,1.16-5.94,1.53-.99,.18,.38-.04-.22,.04-.26,.03-.52,.06-.78,.09-.47,.05-.94,.08-1.42,.11-1.11,.06-2.23,.06-3.34,0-.48-.03-.96-.07-1.44-.12-.61-.06,.77,.17-.25-.03-.22-.04-.43-.08-.65-.13-1.23-.28-1.8-.49-2.67-.99-.28-.16-.57-.33-.82-.53,.14,.11,.32,.33-.06-.08,.03,.03-.64-.7-.35-.34s-.25-.42-.23-.4c.27,.46-.12,.02,0,0l-.07-.28c.03,.35,.04,.4,.03,.15-.02-.17,.12-.74,0-.25,.17-.67-.14,.06,.23-.53s.84-.92,1.58-1.32c.09-.05,.96-.38,.3-.16,.19-.06,.37-.13,.56-.18,.24-.07,.48-.12,.72-.17,.24-.04,.19-.04-.15,0,.15-.02,.29-.03,.44-.04,.45-.01,.89,0,1.34,0,.92,0-.59-.17,.32,.03,.2,.04,.4,.08,.59,.12,.5,.12,.98,.28,1.46,.45,.1,.04,.56,.26,.07,.03,.28,.13,.56,.27,.84,.42,1.73,.95,2.85,2,3.77,3.53s1.35,3.53,1.27,5.75c-.16,4.48-2.71,9.13-5.91,12.51-6.23,6.57-15.2,9.92-24.16,9.65-4.5-.14-9.06-1.36-13.27-3.54-5.28-2.73-10.24-6.11-16.1-7.53s-11.95-1.27-17.94-1.05l2.33,5.63c6.49-5.34,12.23-11.48,17.25-18.22,2.46-3.31,4.72-6.76,6.76-10.35s4.2-7.65,5.51-11.76c1.4-4.35,1.6-9.04-.46-13.21-1.84-3.73-5.47-6.39-9.22-7.98-7.38-3.12-16.43-2.42-22.57,3.02-6.45,5.71-7.45,16.15-1.97,22.78l1.45-5.51c-2.03,.66-4.01,.25-5.95-1.17-1.66-1.22-3.04-3.66-3.74-5.81-1.74-5.35-1.55-11.11,.21-16.44s5.68-9.81,9.39-14.15c3.96-4.63,7.31-9.43,9.6-15.1,4.19-10.37,4.3-22.74-1.8-32.4-3.06-4.85-7.35-8.79-12.15-11.88s-9.66-4.88-14.98-6.26c-2.95-.77-5.94-1.49-8.79-2.58-2.34-.9-4.72-2.48-6.64-4.21-4.42-3.98-8.49-9.17-10.09-14.73-1.17-4.07-7.54-2.34-6.36,1.75,1.68,5.83,5.33,11.05,9.48,15.4,2,2.1,4.23,4.1,6.68,5.66s5.18,2.59,7.91,3.43c5.2,1.6,10.79,2.57,15.41,4.93s9.08,5.53,12.45,9.84c6.51,8.31,6.49,19.71,2.54,29.25-2.25,5.42-5.86,9.82-9.64,14.23-4.25,4.96-8.05,10.12-9.81,16.51-1.9,6.89-1.66,14.62,1.28,21.19,2.81,6.28,9.7,11.21,16.76,8.91,2.5-.81,3.05-3.58,1.45-5.51-.17-.2-.45-.62-.78-1.24-.1-.19-.2-.39-.29-.58,.03,.07,.15,.39,.02,.04s-.25-.72-.35-1.09c-.08-.32-.15-.64-.21-.96-.12-.59-.03,.18-.05-.42-.02-.78-.03-1.53,.02-2.31,.04-.6-.06,.14,.07-.44,.07-.33,.13-.65,.22-.98,.1-.38,.21-.75,.34-1.12,.05-.16,.11-.32,.17-.47-.12,.33,0,0,.06-.14,.69-1.44,1.21-2.24,2.13-3.17,1-1.01,1.99-1.66,3.44-2.35,.43-.21,.11-.07,.56-.23,.34-.12,.69-.24,1.04-.34s.71-.2,1.07-.28c.18-.04,.36-.08,.54-.11,.12-.02,.81-.14,.4-.08,3.18-.45,5.86-.05,8.81,1.13,2.4,.96,5.13,2.87,6.27,5.5,1.25,2.87,.35,6.37-.8,9.4-1.24,3.28-3,6.43-4.76,9.46s-3.81,6.19-5.96,9.11c-4.74,6.45-10.4,12.29-16.59,17.39-2.22,1.83-.38,5.73,2.33,5.63,6.61-.24,13.38-.5,19.67,1.89,5.86,2.23,10.86,6.25,16.83,8.31,10.42,3.6,22.48,2.06,31.9-3.53,4.97-2.95,9.37-7.12,12.24-12.16s4.52-11.92,2.32-17.75c-1.83-4.85-6.16-8.72-11.23-9.92-5.42-1.29-12.46,.88-14.04,6.84-1.78,6.69,5.48,10.51,10.96,11.18,4.67,.57,9.53,.03,14.02-1.36,9.39-2.91,17.54-9.37,22.84-17.61,5.12-7.96,7.37-17.92,4.85-27.17-2.98-10.93-12.17-19.6-22.32-24.07-5.52-2.44-13.03-5.27-18.56-1.4-2.86,2-4.6,5.27-3.94,8.79,.62,3.28,3.27,5.81,5.97,7.54,5.25,3.36,11.8,3.77,17.81,2.87,5.26-.78,10.38-2.79,14.87-5.62,9.18-5.77,16.19-14.97,19.24-25.39,3.21-11.01,1.23-22.61-4.05-32.64-5.53-10.5-14.32-19.01-23.96-25.76-10.28-7.19-22.13-12.88-34.36-15.8-10.7-2.55-23.75-2.73-32.08,5.63-2.46,2.47-4.33,6.02-3.41,9.59,.81,3.14,3.66,5.54,6.81,6.14,6.6,1.27,12.69-3.91,15.92-9.19,6.67-10.92,3.6-24.54-3.81-34.22s-18.51-16.15-30.39-18.52c-12.81-2.56-25.96-.45-37.82,4.83s-22.3,13.26-27.14,25.05c-2.36,5.76-2.98,12.23-1.37,18.26,1.09,4.1,7.46,2.36,6.36-1.75Z"/>
      </g>
      <path d="M551.23,166.66c6.46,1.92,13.98-.26,18.29-5.47,.76-.91,.89-2.21,0-3.11-.78-.78-2.35-.92-3.11,0-.45,.54-.93,1.06-1.45,1.53-.58,.53-.75,.66-1.41,1.09-.59,.39-1.21,.73-1.84,1.03-.41,.19-.31,.15-.67,.28-.33,.12-.66,.24-1,.34-.64,.19-1.29,.35-1.95,.46-.1,.02-.53,.08-.23,.04-.16,.02-.31,.03-.47,.05-.35,.03-.7,.05-1.06,.06-1.56,.03-2.43-.1-3.94-.54-1.14-.34-2.39,.41-2.7,1.54s.39,2.36,1.54,2.7h0Z"/>
      <path d="M592.2,135.04c1.04,.24,2.05,.56,3.04,.97l-.53-.22c.95,.4,1.86,.89,2.73,1.44,.97,.62,2.47,.23,3.01-.79,.58-1.09,.25-2.34-.79-3.01-1.91-1.23-4.07-2.14-6.29-2.64-.57-.13-1.18-.08-1.69,.22-.46,.27-.89,.79-1.01,1.31-.25,1.12,.34,2.43,1.54,2.7h0Z"/>
      <path d="M556.37,110.78c.22,.14,.43,.29,.63,.45l-.44-.34c.63,.49,1.19,1.05,1.68,1.68l-.34-.44c.38,.49,.7,1.01,.98,1.56,.24,.47,.82,.87,1.31,1.01,.53,.14,1.23,.08,1.69-.22s.88-.75,1.01-1.31l.08-.58c0-.4-.1-.77-.3-1.11-.91-1.83-2.37-3.37-4.07-4.48-.46-.3-1.17-.37-1.69-.22s-1.06,.53-1.31,1.01c-.27,.51-.4,1.13-.22,1.69s.51,.99,1.01,1.31h0Z"/>
      <g>
        <path d="M535.98,230.01c.09-12.46-9.81-29.94-18.75-38.62,6.82,4,16.33,15.42,22.98,19.78,7.61,4.99,15.6,9.42,23.87,13.24-8.78,4.51-18.98,5.09-28.83,5.58"/>
        <path d="M539.27,230.01c0-7.76-2.89-15.39-6.35-22.22s-7.89-13.38-13.36-18.74l-4,5.18c.56,.33,1.1,.69,1.64,1.06,.29,.2,.57,.41,.85,.62,.3,.22,0,0-.05-.04,.21,.16,.42,.33,.63,.5,1.3,1.05,2.55,2.16,3.78,3.28,2.6,2.39,5.11,4.87,7.67,7.29s4.93,4.58,7.68,6.53c3.45,2.45,7.16,4.59,10.83,6.68,4.51,2.56,9.12,4.93,13.82,7.1v-5.69c-8.36,4.23-17.99,4.67-27.17,5.13-1.78,.09-3.3,1.45-3.3,3.3,0,1.72,1.51,3.39,3.3,3.3,10.42-.52,21.03-1.24,30.5-6.03,2.1-1.06,2.21-4.67,0-5.69-8.19-3.8-16.12-8.16-23.67-13.12-.57-.38-1.13-.77-1.68-1.18-.41-.31,.37,.29-.04-.03-.12-.1-.24-.19-.36-.29-.33-.27-.66-.54-.98-.81-1.28-1.08-2.51-2.21-3.73-3.35-2.57-2.41-5.08-4.9-7.67-7.3s-5.53-5.05-8.71-6.94-6.69,2.54-4,5.18c5.05,4.94,8.86,10.64,12.15,17.05,1.68,3.27,2.95,6.23,4.03,9.78,.52,1.69,.95,3.41,1.25,5.16,.03,.15,.18,1.12,.15,.89s.08,.73,.09,.87c.08,.84,.11,1.69,.11,2.53,0,4.24,6.59,4.25,6.59,0h0Z"/>
      </g>
      <path d="M204.98,754.33c-.52-21.41,1.1-42.86,4.92-63.94,3.84-21.21,9.81-42.04,17.8-62.07,4.44-11.14,9.57-22,15.27-32.55,.85-1.57,.39-3.59-1.18-4.51s-3.66-.39-4.51,1.18c-10.45,19.34-18.93,39.77-25.25,60.83s-10.42,42.5-12.41,64.26c-1.12,12.23-1.52,24.51-1.22,36.79,.04,1.78,1.48,3.3,3.3,3.3s3.34-1.51,3.3-3.3h0Z"/>
      <path d="M318.82,425.96c-3.63,6.79-1.36,15.54,5.01,19.8,1.44,.96,3.71,.33,4.51-1.18,.88-1.66,.35-3.49-1.18-4.51-.14-.1-.28-.2-.42-.29-.33-.22,.54,.47,.1,.07-.25-.23-.51-.45-.75-.69-.22-.22-.41-.46-.62-.68-.27-.3,.41,.59,.08,.1-.1-.14-.2-.28-.29-.42-.36-.54-.66-1.11-.94-1.7-.3-.63,.18,.51,.06,.12-.05-.16-.12-.32-.18-.48-.11-.32-.21-.65-.29-.99-.08-.3-.14-.6-.19-.91-.1-.58,.07-.05,.01,.16,.04-.14-.04-.37-.05-.51-.05-.65-.05-1.3,.01-1.95,0-.08,.08-.76,.01-.17s.02-.04,.04-.17c.07-.33,.15-.67,.24-.99,.09-.29,.2-.58,.3-.87,.13-.38-.32,.65-.05,.13,.1-.18,.18-.37,.28-.55,.81-1.52,.43-3.66-1.18-4.51-1.53-.81-3.64-.44-4.51,1.18h0Z"/>
      <path d="M212.48,211.07c2.73,2.72,6.68,3.51,10.37,2.73,1.84-.39,3.5-1.28,4.96-2.44s2.45-2.74,3.13-4.49c.29-.75,.06-1.87-.33-2.54s-1.18-1.34-1.97-1.52c-1.89-.43-3.39,.58-4.06,2.3-.21,.55,.35-.72,.1-.23-.07,.13-.13,.27-.21,.39s-.15,.25-.23,.38c-.35,.53,.15-.05,.17-.19-.02,.18-.46,.53-.59,.65-.26,.25-1.06,.74-.12,.15-.51,.32-.99,.64-1.54,.9s.8-.29,.23-.1c-.14,.05-.28,.1-.43,.15-.29,.09-.58,.17-.87,.23-.15,.03-.3,.06-.44,.08-.55,.1,.88-.08,.28-.04-.3,.02-.6,.04-.9,.04-.06,0-.89,0-.89-.05,0,0,1.02,.17,.29,.03-.15-.03-.29-.06-.43-.09-.29-.07-.56-.16-.84-.26-.49-.16,.65,.32,.31,.14-.13-.07-.27-.13-.4-.2-.26-.14-.5-.32-.75-.47-.28-.17,.68,.6,.2,.15-.13-.12-.26-.24-.38-.36-1.22-1.22-3.46-1.31-4.66,0s-1.3,3.36,0,4.66h0Z"/>
      <path class="cls-2" d="M345.98,0c-2.25,0-8.23,31.26-9.26,34.55-3.54,11.42-6.49,23.11-9.47,34.76-1.14-3.25-1.58-6.7-2.01-10.12-1.91-15.13-1.65-33.04-6.45-47.5-2.06-6.21-4.07-7.95,3.73-9.57s15.7-1.99,23.46-2.13Z"/>
      <path class="cls-2" d="M461.42,76.49c-2.15-1.89-20.33,6.97-23.09,8.18-6.75,2.96-13.02,6.74-19.44,10.35,4.3-6.52,7.63-12.55,13.23-17.89,1.56-1.49,18.83-17,18.85-16.91,1.88,6.25,5.54,11.96,10.45,16.28Z"/>
      <path class="cls-2" d="M131.95,176.1c-10.41-4.53-27.19-3.79-38.53-3.79-.69,0,4.49,22.58,5.15,25.27,6.07-3.58,12.14-7.17,18.21-10.75,4.02-2.37,13.95-5.92,15.17-10.73Z"/>
      <path class="cls-2" d="M156.95,71.31c3.36,4.85,6.72,9.71,10.08,14.56,.98,1.41,2.93,2.2,4.51,1.18,1.41-.91,2.23-2.99,1.18-4.51-3.36-4.85-6.72-9.71-10.08-14.56-.98-1.41-2.93-2.2-4.51-1.18-1.41,.91-2.23,2.99-1.18,4.51h0Z"/>
      <path class="cls-2" d="M404.94,412.19c1.52,6.34,3.05,12.68,4.57,19.02,.4,1.68,2.4,2.84,4.06,2.3,1.75-.56,2.73-2.26,2.3-4.06-1.52-6.34-3.05-12.68-4.57-19.02-.4-1.68-2.4-2.84-4.06-2.3-1.75,.56-2.73,2.26-2.3,4.06h0Z"/>
      <path class="cls-2" d="M532.95,306.91c2.24,.37,4.48,.75,6.72,1.12,.44,.14,.88,.16,1.31,.06,.44-.02,.85-.15,1.23-.39,.68-.4,1.34-1.18,1.52-1.97,.19-.84,.15-1.79-.33-2.54-.44-.68-1.14-1.38-1.97-1.52-2.24-.37-4.48-.75-6.72-1.12-.44-.14-.88-.16-1.31-.06-.44,.02-.85,.15-1.23,.39-.68,.4-1.34,1.18-1.52,1.97-.19,.84-.15,1.79,.33,2.54,.44,.68,1.14,1.38,1.97,1.52h0Z"/>
    </g>
  </g>
</svg>