<?xml version="1.0" encoding="UTF-8"?>
<svg id="Layer_2" data-name="Layer 2" xmlns="http://www.w3.org/2000/svg" viewBox="0 0 125.33 44.23">
  <g id="Layer_1-2" data-name="Layer 1">
    <g>
      <path d="M28.82,32.11c-.28-.45-.66-.67-1.15-.67-.56,0-1.07,.26-1.52,.79-1.68,1.95-3.14,3.41-4.38,4.38-1.23,.97-2.66,1.46-4.27,1.46-1.98,0-3.43-.79-4.35-2.36-.92-1.57-1.38-4.3-1.38-8.19,0-1.05,.04-2.51,.11-4.38h6.85c4.23,0,6.34-1.29,6.34-3.87,0-.71-.13-1.2-.39-1.46-.26-.26-.69-.39-1.29-.39h-6.29s-2.56,.02-3.24,.02c-.32,0-.64-.02-.96-.04-.4-.03-.6-.59-.5-1.13,.4-2.93,.98-5.55,1.58-7.97,.62-2.49,1.27-4.43,1.96-5.84h0c.31-.64,.08-1.41-.54-1.76-.2-.11-.4-.23-.6-.33-1.4-.75-3.15-.28-3.96,1.09s-1.55,2.94-2.22,4.68c-1.31,3.41-2.28,7.17-2.92,11.28H2.53c-1.68,0-2.53,1.05-2.53,3.14,0,.9,.2,1.55,.59,1.96,.39,.41,1.15,.62,2.27,.62h2.19c-.11,1.68-.17,3.35-.17,5,0,10.74,3.82,16.11,11.45,16.11,2.47,0,4.66-.64,6.57-1.91,1.91-1.27,3.67-2.9,5.28-4.88,.71-.82,1.07-1.98,1.07-3.48,0-.79-.14-1.4-.42-1.85Z"/>
      <path d="M25.68,41.99c-.58-1.5-.87-3.89-.87-7.18,0-4.86,.69-9.49,2.08-13.86,.34-1.08,.89-1.88,1.66-2.39,.77-.51,1.84-.76,3.23-.76,.75,0,1.27,.09,1.57,.28,.3,.19,.45,.54,.45,1.07,0,.6-.28,1.95-.84,4.04-.37,1.5-.67,2.81-.9,3.93-.22,1.12-.41,2.51-.56,4.15,1.23-3.22,2.62-5.84,4.15-7.86,1.53-2.02,3.04-3.46,4.52-4.32,1.48-.86,2.83-1.29,4.07-1.29,2.43,0,3.65,1.22,3.65,3.65,0,.49-.17,1.67-.51,3.54-.3,1.5-.45,2.43-.45,2.81,0,1.31,.47,1.96,1.4,1.96,1.05,0,2.39-.82,4.04-2.47,.49-.49,.99-.73,1.52-.73,.49,0,.87,.22,1.15,.65,.28,.43,.42,1,.42,1.71,0,1.38-.37,2.47-1.12,3.26-1.05,1.09-2.27,2.01-3.68,2.78-1.4,.77-2.89,1.15-4.46,1.15-1.98,0-3.49-.51-4.52-1.52-1.03-1.01-1.54-2.38-1.54-4.1,0-.56,.06-1.12,.17-1.68,.07-.75,.11-1.25,.11-1.52,0-.6-.21-.9-.62-.9-.56,0-1.3,.63-2.22,1.88-.92,1.25-1.82,2.91-2.72,4.97-.9,2.06-1.63,4.23-2.19,6.51-.41,1.76-.89,2.95-1.43,3.56-.54,.62-1.39,.93-2.55,.93-1.42,0-2.42-.75-3-2.25Z"/>
      <path d="M51.83,41.65c-1.1-1.72-1.66-4-1.66-6.85,0-1.68,.21-3.84,.65-6.48,.43-2.64,.98-5.1,1.66-7.38,.34-1.2,.79-2.02,1.35-2.47,.56-.45,1.46-.67,2.69-.67,1.91,0,2.86,.64,2.86,1.91,0,.94-.36,3.11-1.07,6.51-.9,4.12-1.35,6.9-1.35,8.36,0,1.12,.15,1.98,.45,2.58,.3,.6,.8,.9,1.52,.9,.67,0,1.52-.47,2.53-1.4,1.01-.93,2.36-2.41,4.04-4.43,.45-.52,.95-.79,1.52-.79,.49,0,.87,.22,1.15,.67,.28,.45,.42,1.07,.42,1.85,0,1.5-.36,2.66-1.07,3.48-3.7,4.53-7.17,6.79-10.38,6.79-2.43,0-4.2-.86-5.3-2.58Z"/>
      <path d="M54.05,13c-.79-.73-1.18-1.75-1.18-3.06s.51-2.4,1.54-3.28c1.03-.88,2.31-1.32,3.84-1.32,1.38,0,2.51,.34,3.37,1.01,.86,.67,1.29,1.63,1.29,2.86,0,1.5-.49,2.69-1.46,3.56-.97,.88-2.26,1.32-3.87,1.32s-2.75-.36-3.54-1.09Z"/>
      <path d="M92.94,26.83c.56,0,.99,.19,1.29,.56,.3,.37,.45,.88,.45,1.52,0,1.16-.22,2.07-.67,2.72-.45,.66-1.12,1.13-2.02,1.43-1.72,.56-3.56,.84-5.5,.84-1.65,0-3.2-.22-4.66-.67-1.09,1.76-2.28,3.57-3.59,5.44-1.5,2.13-2.79,3.59-3.87,4.38-1.09,.79-2.32,1.18-3.7,1.18-1.53,0-2.74-.6-3.62-1.8-.88-1.2-1.43-3.09-1.66-5.67-.45-5.24-.67-9.82-.67-13.75v-1.96c.04-1.24,.37-2.1,1.01-2.58,.64-.49,1.59-.73,2.86-.73,.97,0,1.69,.22,2.16,.65,.47,.43,.7,1.15,.7,2.16,0,4.3,.26,9.9,.79,16.78,2.24-3.33,3.93-5.99,5.05-7.97-.56-1.08-.84-2.38-.84-3.87,0-1.27,.28-2.51,.84-3.7,.56-1.2,1.33-2.17,2.3-2.92,.97-.75,2.08-1.12,3.31-1.12,1.08,0,1.96,.38,2.64,1.15,.67,.77,1.01,1.88,1.01,3.34,0,1.68-.45,3.61-1.35,5.78,1.42-.07,3.31-.36,5.67-.84l1.52-.28c.11-.04,.3-.06,.56-.06Z"/>
      <path d="M91.4,41.65c-1.1-1.72-1.66-4-1.66-6.85,0-1.68,.21-3.84,.65-6.48,.43-2.64,.98-5.1,1.66-7.38,.34-1.2,.79-2.02,1.35-2.47,.56-.45,1.46-.67,2.69-.67,1.91,0,2.86,.64,2.86,1.91,0,.94-.36,3.11-1.07,6.51-.9,4.12-1.35,6.9-1.35,8.36,0,1.12,.15,1.98,.45,2.58,.3,.6,.8,.9,1.52,.9,.67,0,1.52-.47,2.53-1.4,1.01-.93,2.36-2.41,4.04-4.43,.45-.52,.95-.79,1.52-.79,.49,0,.87,.22,1.15,.67,.28,.45,.42,1.07,.42,1.85,0,1.5-.36,2.66-1.07,3.48-3.7,4.53-7.17,6.79-10.38,6.79-2.43,0-4.2-.86-5.3-2.58Z"/>
      <path d="M93.62,13c-.79-.73-1.18-1.75-1.18-3.06s.51-2.4,1.54-3.28c1.03-.88,2.31-1.32,3.84-1.32,1.38,0,2.51,.34,3.37,1.01,.86,.67,1.29,1.63,1.29,2.86,0,1.5-.49,2.69-1.46,3.56-.97,.88-2.26,1.32-3.87,1.32s-2.75-.36-3.54-1.09Z"/>
      <path d="M104.87,41.71c-1.33-1.68-1.99-3.89-1.99-6.62,0-2.99,.69-5.83,2.08-8.5,1.38-2.68,3.23-4.83,5.53-6.45s4.74-2.44,7.32-2.44c.82,0,1.37,.16,1.66,.48,.28,.32,.51,.89,.7,1.71,.71-.15,1.5-.22,2.36-.22s1.59,.22,2.08,.67c.49,.45,.73,1.09,.73,1.91s-.19,2.36-.56,4.49c-.41,2.28-.73,4.46-.95,6.54-.22,2.08-.34,4.41-.34,6.99,0,1.42-.29,2.44-.87,3.06-.58,.62-1.53,.93-2.83,.93s-2.22-.31-2.83-.93c-.62-.62-.93-1.62-.93-3l.06-.9c-1.16,3.22-3.16,4.83-6.01,4.83-2.13,0-3.86-.84-5.19-2.53Zm10.24-5.33c.86-1.46,1.63-4.06,2.3-7.8l1.07-5.67c-1.53,.04-2.96,.63-4.27,1.77-1.31,1.14-2.36,2.65-3.14,4.52-.79,1.87-1.18,3.85-1.18,5.95,0,1.12,.21,1.97,.65,2.55,.43,.58,1,.87,1.71,.87,1.05,0,2-.73,2.86-2.19Z"/>
    </g>
  </g>
</svg>