<?xml version="1.0" encoding="UTF-8"?>
<svg id="Layer_2" data-name="Layer 2" xmlns="http://www.w3.org/2000/svg" viewBox="0 0 483.43 524.28">
  <defs>
    <style>
      .cls-1 {
        fill: #f4d13b;
      }

      .cls-2 {
        fill: #f953b2;
      }

      .cls-3 {
        fill: #6966ed;
      }
    </style>
  </defs>
  <g id="Layer_1-2" data-name="Layer 1">
    <g>
      <path d="M295.15,410.29c25.23,7.53,51.53,9.41,77.7,10.57,8.39,.37,17.15,.79,25.38-1.26,2.46-.61,5.68-1.52,7.15-3.8,1.61-2.52-.08-5.62-2.5-6.88-4.69-2.45-11.61-.75-16.29,.85-5.46,1.87-10.72,4.46-15.84,7.11-10.04,5.19-19.58,11.28-28.81,17.79-18.63,13.13-36.02,27.91-54.73,40.92-35.36,24.6-77.73,42.13-121.04,44.72-21.07,1.26-42.63-1.34-62.09-9.85-9.8-4.29-19.13-9.81-26.28-17.89s-11.76-18.25-11.24-29.06c.54-11.25,6.17-22.4,13.49-30.79,6.09-6.97,13.74-12.19,21.97-16.33,16.62-8.37,34.99-12.78,51.11-22.24,7.77-4.56,14.94-10.24,20.33-17.52,4.94-6.66,7.99-14.53,9.39-22.68,.78-4.53,1.12-9.12,1.15-13.72,.02-3.76-.53-7.5-.45-11.26,.03-1.51,.06-3.57,1.03-4.83,.85-1.09,2.34-1.47,2.49,.14,.12,1.27-.34,2.69-.88,3.81-1.31,2.74-3.23,5.75-5.49,7.78-3.87,3.49-10.14,2.98-14.92,4.33-3.8,1.07-7.64,1.98-11.51,2.75-8.16,1.63-16.43,2.63-24.73,3.08-17.44,.95-35.11-.45-52.06-4.74s-32.55-11.18-45.58-22.23c-13.87-11.76-23.36-27.77-26.82-45.64-6.29-32.46,7.46-65.92,25.41-92.41,2.2-3.25,4.55-6.51,6.92-9.49,.43-.53,.91-1.04,1.31-1.6,.82-1.17,.61-2.64,.62-4.02,0-3.59-.24-7.17-.64-10.74-.72-6.42-1.89-12.78-2.98-19.15-.43-2.49-1.72-5.89,.46-7.91s5.6-1.16,6.38,1.77c1.17,4.39,1.76,9.02,2.64,13.48s1.7,8.68,2.55,13.02c.39,1.98,3.83,1.56,3.56-.48-.81-6.21-1.63-12.41-2.44-18.62-.29-2.2-.68-4.4-.87-6.61-.26-3.02,2.47-7.04,5.78-4.94,1.55,.98,1.76,2.48,1.93,4.11,.38,3.54,.76,7.08,1.14,10.62,.25,2.28,3.55,2.38,3.63,0,.1-2.98,.19-5.96,.29-8.94,.05-1.62,.08-3.24,1.48-4.36,2.69-2.14,6.19-.01,6.32,3.14,.25,5.94-.25,12-.38,17.94-.05,2.51-.11,5.01-.16,7.52-.04,2.03,3.07,2.48,3.56,.48,1.13-4.58,2.26-9.17,3.39-13.75,.69-2.8,1.38-5.6,2.07-8.41,.59-2.4,1.19-5.25,4.38-5.2,6.1,.09,2.88,8.62,2.17,11.9-1.36,6.28-2.73,12.55-4.09,18.83-.94,4.32-1.88,8.64-2.82,12.96-.28,1.28,.84,2.68,2.23,2.23,2.04-.66,4.08-1.33,6.12-1.99,2.19-.71,4.61-1.92,6.82-.63,3.67,2.14,2.38,6.78-1,8.33-2.03,.93-4.09,1.79-6.14,2.68-4.33,1.89-8.28,3.11-11.23,6.99-4.35,5.73-7.37,12.73-10.69,19.09-8.17,15.66-14.92,35.66-6.2,52.5,7.91,15.28,25.21,21.69,41.32,23.72,18.79,2.36,38.44-.2,56.63-5.14,9.51-2.58,18.7-6.26,27.12-11.42,6.59-4.05,13.13-9.08,17.04-15.9s4-14.68,1.29-22.12c-2.86-7.86-6.2-15.59-7.96-23.81-1.78-8.31-1.62-17.3,4.12-24.1,5.34-6.32,12.56-10.98,20.54-13.15,4.71-1.28,9.6-1.73,14.46-1.3,.82,.07,1.99,.3,3.28,.72,9.18,2.98,16.37,10.4,20.21,19.11,3.29,7.45,5.16,16.39,2.17,24.22-1.47,3.85-4.03,7.31-7.28,9.84-1.53,1.19-3.24,2.2-5.03,2.95-1.34,.56-3,.69-3.47,2.3-.64,2.21,1.28,5.18,2.27,7.01,1.23,2.28,2.55,4.28,4.57,5.96,5.71,4.73,13.41,6.21,20.56,7.14,19.47,2.52,38.99,3.49,58.45,.32,13.82-2.26,27.56-5.82,40.58-11.03,12.98-5.2,26.44-12.27,34.87-23.82,4.23-5.79,6.66-12.96,8.58-19.81,2.18-7.77,3.43-15.88,3.46-23.96,.03-7.92-1.13-15.96-3.99-23.37-2.95-7.64-7.54-13.53-13.23-19.29s-9.23-13.16-11.79-20.64c-1.02-2.99-1.89-6.03-2.6-9.11s-1.27-6.04-2.68-8.9c-3.82-7.77-7.89-15.43-11.84-23.14-.73-1.44-1.64-2.82-1.19-4.52,1.03-3.85,5.64-3.43,7.34-.5,2.17,3.73,3.94,7.76,5.9,11.6,1.64,3.23,3.28,6.46,4.93,9.68,.92,1.81,4.02,.55,3.32-1.4-2.55-7.03-5.09-14.06-7.64-21.1-.58-1.59-1.25-3.26-.02-4.79,1.99-2.47,5.87-1.49,6.98,1.2,1.43,3.45,2.44,7.13,3.65,10.66s2.47,7.23,3.71,10.84c.76,2.21,3.98,1.33,3.5-.96-1.52-7.25-3.28-14.49-4.58-21.79-.48-2.69,1.13-5.5,4.23-5.08,2.28,.31,3.1,2.19,3.51,4.17,.85,4.13,1.71,8.26,2.56,12.39,.77,3.72,1.54,7.43,2.3,11.15,.41,1.97,3.8,1.56,3.56-.48-.97-8.3-2.29-16.63-2.91-24.95-.39-5.28,6.76-6.26,7.73-1.02,.2,1.09,.3,2.2,.44,3.3l2.23,16.58c.58,4.34,1.17,8.68,1.75,13.01,.23,1.72,2.53,1.53,3.32,.43,1.18-1.64,2.26-3.58,3.69-5.01,3.75-3.76,9.34,1.11,6.74,5.55-2.27,3.88-4.99,7.5-7.29,11.36-1.69,2.83,2.24,6.47,3.83,8.64,3.29,4.51,6.67,8.94,9.98,13.43,4.67,6.33,8.34,13.62,11.73,20.69,4.65,9.73,8.34,19.96,10.51,30.53,3.74,18.21,1.26,37.01-5.73,54.14s-18.43,32.68-32.26,45.09c-15.45,13.87-34.23,23.4-54.12,29.12s-42.66,8-64.27,7.13c-2.49-.1-4.97-.24-7.45-.42-1.16-.08-2.51,.06-1.99-1.54,.35-1.09,1.28-1.91,2.3-2.39,4.69-2.22,8.6,2.74,9.75,6.73,1.21,4.21,1.08,8.85,1.12,13.2,.03,3.46-.02,6.93,.04,10.39,.1,5.76,.36,11.97,3,17.22s7.38,7.59,12.84,8.15c4.19,.43,8.32-.33,12.45-.97,6-.93,12.03-1.61,18.08-2.07,11.66-.89,23.39-.92,35.06-.11,21.4,1.49,44,5.27,62.15,17.44,15.01,10.06,25.8,25.82,26.71,44.17,1.53,30.92-24.75,53.85-50.4,65.94-13.93,6.57-28.86,10.51-44.24,11.43-22.86,1.37-45.68-2.49-67.64-8.62-10.41-2.9-20.77-6.11-31.05-9.44s-20.1-6.92-29.51-11.85c-8.62-4.52-17.61-7.33-27.4-5.57-4.76,.86-9.31,2.68-13.61,4.86-4.71,2.39-9.02,5.63-13.91,7.64-4.07,1.67-8.77,2.2-12.64-.3-4.66-3.01-3.65-8.17-.87-12.16,3.26-4.68,7.69-8.73,11.56-12.91s8.02-8.68,12.03-13.02c3.88-4.2,7.73-8.42,11.64-12.59,3.48-3.71,7.1-7.4,11.31-10.28,9.09-6.21,19.91-7,30.51-5.15s19.81,5.32,29.61,8.29c2.24,.68,3.2-2.82,.96-3.5-19.97-6.04-43.59-15.97-62.91-2.78-9.36,6.4-16.69,15.86-24.32,24.12-4.43,4.8-8.86,9.59-13.29,14.39-3.7,4-7.95,7.89-10.85,12.54-2.39,3.82-3.39,8.71-.8,12.71,2.12,3.26,5.89,5.09,9.66,5.58,4.96,.64,9.74-1.31,14-3.66,4.97-2.74,9.67-5.88,14.97-7.98,10.26-4.06,20.44-3.2,30.25,1.72s20.3,9.35,31.05,12.88c40.55,13.33,85.54,26.63,128,14.16,15.24-4.47,29.83-11.69,42.36-21.47,12.02-9.39,22.38-21.7,26.86-36.49,4.95-16.33,1.87-34.47-8.04-48.34-12.39-17.33-32.16-26.81-52.51-31.32-23.57-5.22-48.48-5.84-72.43-3.25-5.67,.61-11.3,1.79-16.98,2.31-3.52,.32-7.38,.3-10.62-1.3-5.28-2.6-6.63-8.84-7.12-14.2-.65-7.14-.16-14.33-.45-21.48-.19-4.86-.51-10.06-3.41-14.18-2.34-3.33-6.25-5.72-10.42-4.86-3.58,.74-7.1,3.93-6.58,7.88,.25,1.91,1.48,3.07,3.34,3.42,2.77,.52,5.78,.45,8.59,.58,11.44,.52,22.92,.23,34.3-1,22.61-2.45,45.08-8.53,64.95-19.78,17.15-9.71,31.96-23.28,43.22-39.44,11.05-15.87,18.59-34.42,20.23-53.78,1.81-21.34-4.72-42.3-14.31-61.15-3.38-6.66-7.05-13.16-11.52-19.15-3.62-4.84-7.3-9.65-10.76-14.6-.47-.68-.89-1.58-1.45-2.18-.45-.48,.03-.39-.14-.2l-.17,1.3,.06-.09c.11-.04,.22-.37,.29-.45,1.64-1.94,2.87-4.47,4.24-6.6,1.15-1.79,2.49-3.55,3.45-5.46,1.92-3.82,.44-8.63-3.32-10.68-3.45-1.88-7.71-.86-10.13,2.14-1.3,1.61-2.44,3.36-3.64,5.03l3.32,.43c-1.37-10.18-2.74-20.37-4.11-30.55-.24-1.76-.36-3.48-1.31-5.05-2.25-3.69-7.34-4.64-10.81-2.12-4.71,3.42-2.65,10.14-2.09,14.98,.65,5.6,1.3,11.19,1.96,16.79l3.56-.48c-1.67-8.09-3.17-16.24-5.02-24.3-1.64-7.14-11.94-8.37-14.46-1.09-1.28,3.7,.78,8.98,1.54,12.61,.97,4.62,1.94,9.25,2.92,13.87l3.5-.96c-1.26-3.69-2.52-7.37-3.79-11.06s-2.3-7.49-3.82-11.05c-3.09-7.28-15.21-5.29-14.56,3.04,.11,1.46,.78,2.89,1.27,4.25,.87,2.4,1.74,4.8,2.6,7.19,1.54,4.25,3.08,8.5,4.62,12.75l3.32-1.4c-3.61-7.11-6.95-14.45-10.88-21.38-3.62-6.39-13.85-4.62-14.18,3.1-.15,3.48,2.66,7.35,4.18,10.31,2.47,4.82,4.93,9.64,7.4,14.46,.67,1.31,1.35,2.61,2.01,3.92,1.24,2.47,1.68,5.09,2.28,7.75,1.54,6.82,3.81,13.54,7,19.76,1.83,3.58,4.02,6.98,6.63,10.03s5.89,5.74,8.34,9.12c9.75,13.4,11.15,31.04,8.33,46.94-1.37,7.73-3.62,15.58-7.08,22.66-2.94,6.01-7.7,10.93-12.98,14.95-12.07,9.17-26.86,14.61-41.34,18.63-16.88,4.68-34.3,7.34-51.84,6.85-8.83-.25-17.76-1.21-26.53-2.26-7.12-.85-15.75-2.21-20.87-7.75-1.62-1.75-2.84-4.24-3.73-6.43-.19-.47-.32-.97-.49-1.45-.09-.26-.13,.24-.23,.3-.97,.56,1.1-.12,1.09-.12,1.77-.71,3.47-1.59,5.04-2.68,6.54-4.55,10.7-11.86,11.39-19.78s-1.96-16.21-5.62-22.91c-2.74-5.02-6.56-9.38-11.18-12.75-3.96-2.89-8.7-5.27-13.63-5.8-12.44-1.32-25.24,3.35-34.34,11.81-6.42,5.97-9.94,13.21-9.75,22.06,.17,8.47,2.99,16.69,5.93,24.55s6.7,15.17,4.23,23.34c-2.32,7.68-8.93,13.35-15.4,17.61-16.63,10.97-37.01,15.77-56.64,17.68-17.88,1.74-38.65,1.2-54.07-9.19-6.58-4.43-11.73-10.87-13.95-18.54-2.69-9.26-1.01-19.27,1.98-28.25,2.84-8.55,7.33-16.28,11.39-24.27,2.48-4.86,4.95-10.75,10.2-13.04,3.98-1.74,8.09-3.3,11.98-5.23,7.34-3.65,5.34-15.1-3.03-15.54-2.19-.11-4.33,.84-6.37,1.5-1.9,.62-3.8,1.24-5.7,1.85l2.23,2.23c2.4-11.06,4.81-22.13,7.21-33.19,1.11-5.12,3.29-11.77-3.12-14.49-4.32-1.83-8.92,.75-10.2,5.1-.57,1.93-.97,3.92-1.45,5.87-1.51,6.15-3.03,12.29-4.54,18.44l3.56,.48c.15-7.16,.3-14.32,.45-21.48,.07-3.31,.49-6.69-2.03-9.32-4.38-4.55-12.18-1.7-12.85,4.48-.39,3.63-.27,7.37-.39,11.02h3.63c-.39-3.64-.78-7.29-1.18-10.93-.21-1.93-.52-3.74-1.81-5.3-1.88-2.26-5.26-3.48-8.04-2.23-4.4,1.97-5.39,6.33-4.83,10.63s1.13,8.64,1.7,12.95c.45,3.44,.9,6.88,1.35,10.32l3.56-.48c-1.45-7.43-2.91-14.85-4.36-22.28-.66-3.36-.93-7.11-4.31-8.95-2.82-1.53-6.67-.86-8.96,1.36-2.84,2.75-2.29,6.13-1.7,9.66,1.87,11.07,4.1,22.12,3.75,33.4l.53-1.28c-4.13,4.83-7.77,10.14-11.21,15.47-7.64,11.85-14.06,24.58-18.58,37.95-5.47,16.17-7.98,33.48-5.37,50.45s10.36,32.52,22.15,44.7c22.48,23.22,56.22,32.43,87.64,33.87,15.76,.72,31.69-.49,47.11-3.85,3.77-.82,7.46-2,11.23-2.83,4.62-1.02,9.49-.89,13.37-3.99,3.26-2.6,6.27-7.03,7.57-11.01,.81-2.47,1.2-6.17-1.3-7.83s-6.03-.12-7.44,2.22c-1.77,2.94-1.54,6.91-1.32,10.19,.54,7.97,.42,15.98-1.39,23.8-1.77,7.68-5.2,14.87-10.35,20.85-5.83,6.77-13.3,11.86-21.16,16.01-15.44,8.15-32.56,12.47-48.06,20.49-16.43,8.5-29.99,22.43-34.76,40.72-5.23,20.08,5.73,39.08,22.03,50.39,15.99,11.09,35.85,16.74,55.04,18.6,40.02,3.89,80.95-8,116.37-26.01,18.83-9.57,35.93-21.75,52.65-34.58,16.9-12.97,33.58-26.38,51.95-37.26,4.7-2.78,9.5-5.39,14.42-7.78s10.16-4.92,15.64-5.98c1.28-.25,11.56-1.06,9.75,2.1-1.01,1.76-5.46,2.25-7.2,2.57-8.7,1.61-17.84,.89-26.6,.41-12.24-.67-24.48-1.31-36.64-2.86-12.04-1.53-23.98-3.89-35.62-7.36-2.24-.67-3.2,2.83-.96,3.5Z"/>
      <path d="M243.86,195.57c.09,.92,.32,1.8,1.03,2.45,.66,.62,1.54,.89,2.42,.97,1.79,.17,3.49-.53,5.22-.84,.48-.09,1.3-.23,1.73,.06,.48,.32-.17,.98-.46,1.35-.88,1.12-2.07,2.04-3.39,2.58-.61,.24-1.03,.81-.84,1.49,.16,.57,.88,1.09,1.49,.84,1.66-.67,3.17-1.67,4.33-3.05,.61-.72,1.27-1.55,1.45-2.5,.2-1.11-.36-2.16-1.29-2.75-1.69-1.07-3.92-.31-5.69,.12-1.06,.26-3.4,.87-3.56-.73-.07-.65-.51-1.21-1.21-1.21-.6,0-1.28,.56-1.21,1.21h0Z"/>
      <path d="M56.43,135.04c.45,5.78,.89,11.56,1.34,17.34,.06,.83,.13,1.66,.19,2.5,.08,.98,.78,1.81,1.81,1.81,.92,0,1.89-.83,1.81-1.81-.45-5.78-.89-11.56-1.34-17.34-.06-.83-.13-1.66-.19-2.5-.08-.98-.78-1.81-1.81-1.81-.92,0-1.89,.83-1.81,1.81h0Z"/>
      <path d="M421,80.93c-8.92,.06-17.72,2.79-25.08,7.85-1.91,1.31-.1,4.46,1.83,3.13,6.85-4.71,14.92-7.29,23.25-7.35,2.33-.02,2.34-3.64,0-3.63h0Z"/>
      <g>
        <path d="M243.25,227.83c-4.58,1.78-11.81,3.08-16.6,2.01,3.87,5.68,14.77,10.24,19.74,9.51,0,0-2.71-7.16-2.76-8.27s-.37-3.25-.37-3.25Z"/>
        <path d="M242.77,226.08c-2.54,.98-5.21,1.64-7.91,2.03-2.53,.36-5.22,.51-7.73-.02-1.42-.3-3.02,1.27-2.05,2.66,2.46,3.53,6.25,6.04,10.11,7.81,3.35,1.54,7.44,3.1,11.2,2.6,1.05-.14,2.22-1.06,1.75-2.3-.68-1.78-1.33-3.58-1.94-5.38-.18-.52-.35-1.05-.51-1.57-.07-.23-.14-.46-.19-.69-.03-.11-.13-.63-.07-.25s-.03-.57-.04-.69c-.04-.38-.08-.75-.13-1.13-.08-.6-.16-1.21-.25-1.81-.15-.97-1.37-1.5-2.23-1.27-1.04,.28-1.42,1.26-1.27,2.23,.17,1.11,.19,2.24,.39,3.38,.16,.94,.5,1.86,.81,2.76,.61,1.81,1.26,3.6,1.94,5.38l1.75-2.3c-3.1,.41-6.46-.77-9.37-2.11-3.24-1.49-6.75-3.55-8.81-6.51l-2.05,2.66c2.95,.63,5.98,.52,8.95,.12s5.85-1.06,8.62-2.13c.91-.35,1.54-1.22,1.27-2.23-.24-.87-1.31-1.62-2.23-1.27Z"/>
      </g>
      <g>
        <path d="M177.36,252.4c2.35,5.51,4.59,11.06,5.7,16.69,1.52,7.7,.55,16.22,4.75,22.85,4.81,7.59,15.64,10,23.91,6.48,8.27-3.51,13.82-11.89,15.53-20.7,1.71-8.82,0-18-3.13-26.43-4.31-11.63-11.24-21.23-19.69-30.16-5.41-5.72-15.81-16.49-5.85-23.56,6.97-4.94,13.36,11.06,13.36,11.06l4.09,6.18s2.69-1.75-.24-6.33c-2.93-4.57-4.09-13.34,.86-13.53,7.58,3.84,15.85-3.35,15.65-8.58,8.86,1.32,11.31-6.76,7.29-11.29,25.08,.43,26.98-22.23,19.93-19.21-7.05,3.02-18.7-6.45-36.15-9.1-10.34-1.57-21.1,2.58-29.16,8.89-3.74,2.93-23.41,24.7-14.71,28.7,.84,.39,2.06-.04,2.18-.95,.06-.46-.16-.91-.45-1.26-1.93-2.31-5.74-.47-7.67,1.84-3.26,3.9-5.07,8.83-6.11,13.8-2.87,13.66-.18,27.33,4.16,40.35,1.58,4.74,3.71,9.49,5.75,14.26Z"/>
        <path d="M175.8,253.31c1.94,4.55,3.81,9.17,5.01,13.98,1.05,4.21,1.25,8.51,1.72,12.81s1.2,8.37,3.3,12.06c1.76,3.1,4.49,5.62,7.66,7.23,6.43,3.27,14.24,3.2,20.64-.1,6.9-3.56,11.73-10.37,14.01-17.67,2.75-8.81,1.68-18.43-1.01-27.12-2.57-8.3-6.64-16.07-11.74-23.08-2.54-3.5-5.31-6.83-8.23-10.02-2.29-2.49-4.7-4.88-6.77-7.56-1.83-2.38-3.76-5.22-4.1-8.29-.31-2.79,1.48-5.81,3.97-6.88,.86-.37,1.47-.31,2.25,.01,.84,.35,1.64,1.03,2.35,1.76,1.61,1.65,2.83,3.66,3.91,5.69,.4,.76,.78,1.53,1.14,2.31,.11,.24,.22,.49,.32,.74-.07-.16-.16-.37-.03-.07,.77,1.74,2.1,3.33,3.15,4.92,.37,.57,.75,1.13,1.12,1.7,.51,.78,1.63,1.23,2.48,.65,1.99-1.35,2.39-3.98,1.68-6.15-.55-1.71-1.69-3.1-2.37-4.75-.59-1.43-1.02-3.01-1.14-4.56-.09-1.13-.1-2.51,.44-3.45,.15-.26,.42-.5,.48-.55,.12-.11,.86-.14,.04-.23,.51,.05,1.14,.49,1.65,.65,3.61,1.13,7.63,.3,10.72-1.8s5.72-5.37,5.67-9.17l-2.3,1.75c4.02,.54,8.52-.34,10.53-4.29,1.7-3.35,.92-7.25-1.48-10.04l-1.28,3.1c7.42,.09,15.32-1.79,20.59-7.35,2.93-3.09,5.57-7.94,4.48-12.35-.44-1.77-1.75-3.27-3.65-3.4-.92-.06-1.66,.25-2.51,.53-1.13,.38-2.25,.4-3.53,.23-3.5-.46-7.04-2.04-10.35-3.33-4.63-1.81-9.27-3.58-14.09-4.82-5.53-1.43-11.08-2.2-16.77-1.37-5.41,.79-10.63,2.81-15.33,5.57-2.84,1.67-5.5,3.59-7.81,5.94-2.11,2.14-4.08,4.41-5.96,6.75-2.17,2.71-4.26,5.51-6.01,8.51-1.46,2.5-2.84,5.26-3.12,8.18-.24,2.43,.76,4.85,3.06,5.94s5.45-.54,4.84-3.34c-.56-2.56-3.39-3.62-5.72-3.19-5.15,.95-8.17,6.6-9.95,11-2.26,5.58-3.16,11.76-3.3,17.75-.28,12.43,2.99,25.04,7.64,36.49,1.18,2.91,2.45,5.79,3.69,8.68,.39,.91,1.71,1.09,2.48,.65,.94-.53,1.03-1.59,.65-2.48-2.24-5.23-4.5-10.42-6.22-15.85s-3.08-10.75-3.9-16.28-.98-11.1-.34-16.62c.59-5.08,1.86-10.3,4.48-14.73,1.09-1.85,2.41-3.78,4.42-4.71,.78-.36,1.33-.38,2.15-.27,.08,.01,.14,.16,.22,.17l.14,.15,.32-.66s.12,.08-.19-.11c-.44-.27,.04,.04-.28-.2-.09-.07-.17-.17-.24-.25,.04,.04,.21,.32,.03,.04-.1-.15-.19-.31-.27-.47,.2,.41-.04-.22-.08-.36-.13-.48-.02,.06-.03-.24-.01-.24,0-.47,0-.7,0-.11,.01-.22,.02-.33,.03-.32-.08,.44,.01-.11,.05-.3,.11-.59,.19-.88,.62-2.44,1.9-4.65,3.27-6.84,1.6-2.55,3.41-4.96,5.32-7.28,3.39-4.12,6.86-7.87,11.42-10.69,4.21-2.61,8.83-4.53,13.71-5.47s9.66-.49,14.46,.6c4.47,1.02,8.81,2.5,13.09,4.14,3.41,1.31,6.78,2.77,10.29,3.8,2.64,.77,5.57,1.34,8.27,.56,.41-.12,.82-.28,1.22-.44,.12-.05,.26-.06,.38-.09-.83,.19,.06-.06,.05,.03,0-.06-.22,.06-.23-.04,0,0,.18,.04,.2,.04,.34,.08-.35-.24-.07-.04,.13,.09,.47,.34-.01-.04,.08,.06,.25,.19,.28,.29-.25-.76,.24,.71-.03-.03,.11,.31,.19,.61,.25,.93-.09-.45,.02,.31,.02,.61,0,.17,0,.34-.02,.5,0,.14-.09,.78-.02,.31-.31,2.07-.9,3.37-2.06,5.1-2.95,4.42-8.37,6.98-13.77,7.85-1.92,.31-3.87,.38-5.81,.36-1.67-.02-2.27,1.95-1.28,3.1,1.37,1.59,1.76,3.86,.91,5.64-1.14,2.4-4,2.95-6.43,2.62-1.13-.15-2.31,.44-2.3,1.75,.04,2.7-2.27,5.08-4.42,6.39-1.33,.81-2.85,1.37-4.41,1.45-.83,.04-1.64-.02-2.44-.22-.94-.24-1.82-.87-2.8-.83-3,.1-4.57,2.8-4.88,5.47-.36,3.02,.46,6.18,1.7,8.92,.69,1.53,2.07,2.99,2.11,4.73,.01,.51,0,.58-.29,.99,.21-.31,.05,0-.09,.08-.33,.17,.19-.13,.15-.1l2.48,.65c-1.05-1.59-2.1-3.17-3.15-4.76-.24-.36-.46-.72-.71-1.07-.43-.61,.03,.02-.06,.05,.01,0-.57-1.34-.65-1.51-1.8-3.96-4.3-8.56-8.19-10.8-5.7-3.28-11.91,2.73-12.22,8.45-.36,6.64,5.28,12.56,9.48,17.04,11.73,12.49,22.18,27.52,23.81,45.09,.77,8.23-.82,16.8-6.04,23.41-4.52,5.72-11.39,9.23-18.76,8.23-3.24-.44-6.5-1.72-8.99-3.87-2.93-2.54-4.49-5.99-5.3-9.73-.89-4.12-.95-8.35-1.5-12.52-.6-4.65-1.91-9.12-3.57-13.49-.89-2.33-1.85-4.64-2.83-6.93-.39-.91-1.71-1.09-2.48-.65-.94,.53-1.03,1.59-.65,2.48Z"/>
      </g>
      <path d="M241.91,212.07c2.02,.12,4.14,.14,5.94-.93,.54-.32,.79-1.1,.43-1.65s-1.07-.78-1.65-.43c-.1,.06-.2,.12-.31,.17-.05,.03-.1,.05-.16,.08-.12,.05-.11,.05,.05-.02-.15,.1-.4,.15-.57,.19-.22,.06-.45,.11-.68,.15-.08,.01-.33,.1-.03,0-.11,.03-.24,.03-.35,.04-.89,.08-1.78,.03-2.67-.02-.63-.04-1.24,.58-1.21,1.21,.03,.69,.53,1.17,1.21,1.21h0Z"/>
      <path d="M244.84,187.86c.14-.13,.28-.26,.42-.38,.04-.03,.08-.06,.11-.09-.23,.22-.11,.09-.05,.04,.08-.06,.15-.11,.23-.16,.33-.22,.67-.41,1.03-.57,.15-.07-.05,.02-.09,.04,.04-.01,.09-.04,.13-.05,.09-.03,.18-.07,.27-.1,.18-.06,.36-.11,.55-.16,.2-.05,.4-.08,.59-.12,.16-.03-.27,.03-.11,.01,.05,0,.09-.01,.14-.02,.11-.01,.21-.02,.32-.02,.63-.03,1.24-.53,1.21-1.21-.03-.63-.53-1.25-1.21-1.21-1.97,.11-3.85,.91-5.27,2.3-.45,.44-.48,1.27,0,1.71s1.23,.47,1.71,0h0Z"/>
      <path d="M231.67,196.29c.29-.32,.6-.61,.94-.88,.03-.02,.17-.13,.02-.02-.16,.13,.03-.02,.05-.04,.08-.06,.16-.11,.24-.17,.18-.12,.37-.24,.56-.35,.18-.1,.37-.2,.55-.29,.1-.05,.2-.09,.3-.14-.05,.02-.24,.1-.08,.04,.05-.02,.09-.04,.14-.05,.41-.16,.84-.28,1.27-.37,.62-.13,1.04-.89,.84-1.49-.21-.66-.82-.98-1.49-.84-1.92,.4-3.74,1.44-5.06,2.9-.43,.47-.5,1.25,0,1.71,.46,.43,1.25,.5,1.71,0h0Z"/>
      <g>
        <path d="M238.33,199.53c1.95,.18,1.68-3.23-.3-2.54-.71,.25-1.12,1.21-.77,1.89,.2,.39,.63,.61,1.06,.65Z"/>
        <path d="M238.33,200.74c.45,.04,.91-.08,1.32-.29,.36-.19,.67-.52,.87-.86,.37-.64,.46-1.48,.23-2.19-.13-.39-.32-.76-.62-1.05s-.68-.52-1.07-.6c-1.12-.22-2.34,.3-2.83,1.37-.18,.38-.28,.75-.3,1.18s.1,.8,.28,1.17,.53,.7,.88,.91c.39,.24,.8,.32,1.25,.37,.29,.03,.66-.16,.86-.35,.21-.21,.37-.55,.35-.86s-.12-.64-.35-.86l-.24-.19c-.19-.11-.39-.16-.61-.17-.02,0-.05,0-.07,0l.32,.04c-.14-.02-.27-.06-.4-.11l.29,.12c-.1-.05-.2-.1-.29-.17l.24,.19c-.08-.06-.15-.13-.21-.21l.19,.24c-.06-.08-.1-.16-.14-.24l.12,.29c-.04-.09-.06-.18-.07-.28l.04,.32c-.02-.13-.02-.26,0-.38l-.04,.32c.02-.13,.06-.25,.11-.37l-.12,.29c.05-.12,.12-.23,.2-.34l-.19,.24c.07-.09,.15-.18,.25-.25l-.24,.19c.08-.06,.17-.12,.27-.16l-.29,.12c.13-.05,.26-.09,.4-.1l-.32,.04c.11-.01,.21-.01,.32,0l-.32-.04c.09,.01,.18,.04,.26,.07l-.29-.12c.08,.03,.15,.08,.22,.13l-.24-.19c.08,.06,.14,.13,.2,.21l-.19-.24c.07,.09,.12,.19,.17,.29l-.12-.29c.05,.13,.09,.26,.11,.4l-.04-.32c.02,.15,.02,.31,0,.46l.04-.32c-.02,.13-.05,.26-.11,.38l.12-.29c-.04,.1-.09,.19-.16,.27l.19-.24c-.06,.07-.12,.14-.2,.2l.24-.19c-.07,.05-.15,.1-.23,.13l.29-.12c-.1,.04-.2,.07-.3,.08l.32-.04c-.11,.01-.22,.01-.33,0-.29-.02-.65,.15-.86,.35s-.37,.55-.35,.86,.12,.64,.35,.86,.52,.33,.86,.35Z"/>
      </g>
      <g>
        <path d="M248.33,191.65c1.95,.18,1.68-3.23-.3-2.54-.71,.25-1.12,1.21-.77,1.89,.2,.39,.63,.61,1.06,.65Z"/>
        <path d="M248.33,192.86c.45,.04,.91-.08,1.32-.29,.36-.19,.67-.52,.87-.86,.37-.64,.46-1.48,.23-2.19-.13-.39-.32-.76-.62-1.05s-.68-.52-1.07-.6c-1.12-.22-2.34,.3-2.83,1.37-.18,.38-.28,.75-.3,1.18s.1,.8,.28,1.17,.53,.7,.88,.91c.39,.24,.8,.32,1.25,.37,.29,.03,.66-.16,.86-.35,.21-.21,.37-.55,.35-.86s-.12-.64-.35-.86l-.24-.19c-.19-.11-.39-.16-.61-.17-.02,0-.05,0-.07,0l.32,.04c-.14-.02-.27-.06-.4-.11l.29,.12c-.1-.05-.2-.1-.29-.17l.24,.19c-.08-.06-.15-.13-.21-.21l.19,.24c-.06-.08-.1-.16-.14-.24l.12,.29c-.04-.09-.06-.18-.07-.28l.04,.32c-.02-.13-.02-.26,0-.38l-.04,.32c.02-.13,.06-.25,.11-.37l-.12,.29c.05-.12,.12-.23,.2-.34l-.19,.24c.07-.09,.15-.18,.25-.25l-.24,.19c.08-.06,.17-.12,.27-.16l-.29,.12c.13-.05,.26-.09,.4-.1l-.32,.04c.11-.01,.21-.01,.32,0l-.32-.04c.09,.01,.18,.04,.26,.07l-.29-.12c.08,.03,.15,.08,.22,.13l-.24-.19c.08,.06,.14,.13,.2,.21l-.19-.24c.07,.09,.12,.19,.17,.29l-.12-.29c.05,.13,.09,.26,.11,.4l-.04-.32c.02,.15,.02,.31,0,.46l.04-.32c-.02,.13-.05,.26-.11,.38l.12-.29c-.04,.1-.09,.19-.16,.27l.19-.24c-.06,.07-.12,.14-.2,.2l.24-.19c-.07,.05-.15,.1-.23,.13l.29-.12c-.1,.04-.2,.07-.3,.08l.32-.04c-.11,.01-.22,.01-.33,0-.29-.02-.65,.15-.86,.35s-.37,.55-.35,.86,.12,.64,.35,.86,.52,.33,.86,.35Z"/>
      </g>
      <path d="M157.42,451.77c17.55-3.91,34.51-10.3,50.3-18.91,2.05-1.12,.22-4.25-1.83-3.13-15.52,8.46-32.17,14.69-49.43,18.54-2.28,.51-1.31,4.01,.96,3.5h0Z"/>
      <path class="cls-1" d="M106.55,32.65l12.8,13.34c1.52,1.59,3.73,2.32,5.9,1.97l18.25-2.98c5.46-.89,9.58,4.87,6.96,9.75l-8.73,16.3c-1.04,1.94-1.06,4.26-.05,6.22l8.47,16.43c2.54,4.92-1.67,10.62-7.12,9.64l-18.2-3.27c-2.16-.39-4.38,.31-5.93,1.87l-13.01,13.14c-3.9,3.93-10.61,1.69-11.36-3.79l-2.51-18.32c-.3-2.18-1.65-4.07-3.61-5.06l-16.51-8.31c-4.95-2.49-4.89-9.57,.1-11.98l16.64-8.05c1.98-.96,3.36-2.83,3.69-5l2.81-18.27c.84-5.47,7.59-7.61,11.42-3.61Z"/>
      <path class="cls-1" d="M215.73,7.12l8.1,16.62c.96,1.98,2.84,3.35,5.01,3.68l18.28,2.75c5.47,.82,7.63,7.57,3.64,11.41l-13.31,12.84c-1.58,1.53-2.31,3.73-1.95,5.9l3.03,18.24c.91,5.46-4.84,9.59-9.73,6.99l-16.32-8.69c-1.94-1.03-4.27-1.04-6.22-.03l-16.41,8.52c-4.91,2.55-10.62-1.64-9.66-7.09l3.22-18.21c.38-2.17-.32-4.38-1.89-5.92l-13.17-12.97c-3.94-3.88-1.72-10.61,3.76-11.37l18.31-2.57c2.18-.31,4.07-1.66,5.05-3.63l8.27-16.54c2.48-4.95,9.56-4.92,11.98,.06Z"/>
      <path class="cls-2" d="M330.55,8.5l5.48,17.66c.65,2.1,2.29,3.75,4.39,4.4l17.65,5.5c5.29,1.65,6.39,8.64,1.87,11.83l-15.1,10.66c-1.8,1.27-2.85,3.34-2.83,5.54l.22,18.49c.07,5.54-6.24,8.75-10.68,5.43l-14.81-11.07c-1.76-1.32-4.06-1.68-6.14-.98l-17.51,5.92c-5.24,1.77-10.25-3.24-8.47-8.48l5.95-17.51c.71-2.08,.35-4.38-.97-6.14l-11.05-14.83c-3.31-4.44-.09-10.75,5.45-10.67l18.49,.25c2.2,.03,4.27-1.02,5.54-2.82l10.69-15.09c3.2-4.52,10.19-3.41,11.83,1.88Z"/>
      <path class="cls-3" d="M26.83,29.43c2.04,1.08,4.09,2.16,6.13,3.24,.84,.44,2.01,.24,2.48-.65,.44-.84,.25-2.01-.65-2.48-2.04-1.08-4.09-2.16-6.13-3.24-.84-.44-2.01-.24-2.48,.65-.44,.84-.25,2.01,.65,2.48h0Z"/>
      <path class="cls-3" d="M27.6,75.56c1.24-.21,2.48-.41,3.72-.62,.42-.07,.88-.48,1.08-.83,.23-.39,.32-.96,.18-1.4s-.41-.86-.83-1.08l-.43-.18c-.32-.09-.64-.09-.96,0-1.24,.21-2.48,.41-3.72,.62-.42,.07-.88,.48-1.08,.83-.23,.39-.32,.96-.18,1.4s.41,.86,.83,1.08l.43,.18c.32,.09,.64,.09,.96,0h0Z"/>
      <path class="cls-3" d="M63.82,2.31c.83,2.9,1.65,5.79,2.48,8.69,.26,.91,1.29,1.57,2.23,1.27s1.55-1.25,1.27-2.23c-.83-2.9-1.65-5.79-2.48-8.69-.26-.91-1.29-1.57-2.23-1.27s-1.55,1.25-1.27,2.23h0Z"/>
      <path class="cls-3" d="M330.11,121.12c-1.28,3.95-1.94,8.11-2,12.26-.01,.95,.84,1.86,1.81,1.81s1.8-.8,1.81-1.81c.05-3.9,.66-7.55,1.87-11.3,.29-.9-.34-2.02-1.27-2.23-.99-.23-1.92,.3-2.23,1.27h0Z"/>
      <path class="cls-3" d="M349.77,114.82c2.48,2.28,4.96,4.56,7.44,6.84,.7,.64,1.88,.74,2.57,0,.64-.7,.75-1.88,0-2.57-2.48-2.28-4.96-4.56-7.44-6.84-.7-.64-1.88-.74-2.57,0-.64,.7-.75,1.88,0,2.57h0Z"/>
      <path class="cls-3" d="M357.73,95.91c2.9-.62,5.79-1.24,8.69-1.85,.93-.2,1.56-1.34,1.27-2.23-.32-.98-1.24-1.48-2.23-1.27-2.9,.62-5.79,1.24-8.69,1.85-.93,.2-1.56,1.34-1.27,2.23,.32,.98,1.24,1.48,2.23,1.27h0Z"/>
    </g>
  </g>
</svg>