<svg xmlns="http://www.w3.org/2000/svg" viewBox="0 0 243.45 259.99"><defs><style>.cls-1{fill:#f953b2;}.cls-2{fill:#fff;}.cls-3{fill:#ffc814;}.cls-4{fill:#6966ed;}</style></defs><g id="Layer_2" data-name="Layer 2"><g id="Layer_1-2" data-name="Layer 1"><polygon class="cls-1" points="157.04 15 243.45 50.99 156.14 72.1 157.04 15"/><ellipse class="cls-2" cx="153.19" cy="239.85" rx="46.49" ry="20.14"/><path class="cls-2" d="M182.86,239.85c-.07,2.63-3.84,4.19-5.84,5a53,53,0,0,1-14,3.1,94.44,94.44,0,0,1-18,.19,59.59,59.59,0,0,1-14.79-2.87c-2.24-.79-6.11-2.17-6.87-4.77-.71-2.43,2.58-4.16,4.3-5A44,44,0,0,1,140.9,232a93.31,93.31,0,0,1,17.76-.63,63.23,63.23,0,0,1,17.09,3c2.25.78,7,2.43,7.11,5.45a.9.9,0,0,0,1.8,0c-.08-3-3.2-4.94-5.65-6.07a49.44,49.44,0,0,0-14.91-3.7,95,95,0,0,0-19.87-.23,55.69,55.69,0,0,0-15.79,3.39c-2.59,1-6.16,2.74-6.81,5.79s2.13,5.09,4.4,6.32c4.25,2.3,9.24,3.32,14,4a94,94,0,0,0,19.55.69c6-.4,12.28-1.23,17.94-3.47,2.86-1.13,7.07-3.1,7.16-6.72A.9.9,0,0,0,182.86,239.85Z"/><ellipse class="cls-3" cx="153.1" cy="239.85" rx="11.99" ry="3.72"/><path class="cls-4" d="M149.93,10.52H157a0,0,0,0,1,0,0v220a3.56,3.56,0,0,1-3.56,3.56h0a3.56,3.56,0,0,1-3.56-3.56v-220A0,0,0,0,1,149.93,10.52Z"/><path class="cls-2" d="M149.89,107.27c-7.75,4.13-11,13.33-20.16,15.63-7.5,1.88-15.45-2-20.83-7.53s-9.66-12-14-18.25c-3.88-5.55-12.12-14.62-12-21.8a4.29,4.29,0,0,1,.79-2.64c2.85-3.47,3.07,2,3.1,3.44.06,3.71.62,7.49,1,11.18,2,18.08,9.24,34.87,14.19,52.14,2.76,9.64,6.46,18.92,8.88,28.7s4.37,19.62,6.2,29.5c1.47,7.92,2.85,15.85,4.31,23.76.32,1.72.7,3.55,2,4.79a21.17,21.17,0,0,0,2.42,1.73,7.37,7.37,0,0,1,2.83,6.69c-.53,4.23-3.73,5-6.89,6.7-7.75,4.09-14,7.42-23,7.3a13,13,0,0,1-5.55-1.1,11.93,11.93,0,0,1-4.39-4.11c-4.46-6.47-5-16.19-5.56-23.83-.4-46.17-17-85.35-10.2-84.75s11,48.77-4.79,74.75-.6,33.58-9.6,42.37c-6,5.85-20.92-.85-30.27-6a9.82,9.82,0,0,1-4.09-12.87q8.46-17.56,16.93-35.13a25.25,25.25,0,0,0,2.79-8c.53-4.86-1.78-9.51-3.71-14a102.68,102.68,0,0,1-7.78-48.85C33.85,111.37,44.08,94.76,40.2,79c-.22-.9-.55-1.89-1.73-2a2.31,2.31,0,0,0-1.51.37,5.16,5.16,0,0,0-2.43,3.12c-.81,3.89,3.3,7.8,6.2,9.53a24,24,0,0,0,8.89,3.24c4.44.65,6.6-.89,10.34-3.2a3.55,3.55,0,0,1,2.75-.44,3.43,3.43,0,0,1,2.19,4.82l-1,1.94,11.4.81a2.58,2.58,0,0,1,2.32,2.56A2.61,2.61,0,0,1,75,102.58a2.72,2.72,0,0,1-.38,5.39,2.72,2.72,0,0,1-.38,5.39,2.71,2.71,0,0,1-.45,5.39,122,122,0,0,1-24.38-1.92c-16.66-2.65-38.09-8.48-45.9-25.31C1,86.11,0,79.07,1.86,73.32c3.53-10.84,13.51-18.9,24-22.51,8.31-2.85,24.36-.48,26.85-12,.81-3.75.28-7.63.45-11.43.07-1.57-.27-3.05.11-4.6a15.64,15.64,0,0,1,2.56-5.15,13.6,13.6,0,0,1,2.86-3.23,10.56,10.56,0,0,1,3.89-1.72,15.38,15.38,0,0,1,12.23,2.39c8.33,5.9,10.46,22.28-1.6,25.08-2.08.48-3.79,2.61-1.89,4.53s5.46,1.54,7.84,1.85A33.93,33.93,0,0,1,89.89,49.4c7.59,3.74,12.36,10.7,17.48,17.1a143.75,143.75,0,0,1,15.26,23.4,22.49,22.49,0,0,1,2.85,8,1.22,1.22,0,0,1-.37,1c-.54.48-1.14.15-1.57-.23a6.48,6.48,0,0,1-1.7-6.17,14.72,14.72,0,0,1,3-5.76,37.51,37.51,0,0,1,14.44-11.46,58.18,58.18,0,0,0,12.42-7.56,3,3,0,0,1,3.9.17l0,0a3,3,0,0,1,0,4.22l-2.15,2.15,8.53.19a3.86,3.86,0,0,1,3.54,4.12v3.21s-.09,3.23-2.44,2.84"/><path d="M149.44,106.49c-5.26,2.86-8.5,8-12.95,11.79a16.88,16.88,0,0,1-8.53,4.06,18.71,18.71,0,0,1-10.79-2C110,116.83,105.1,110,100.58,103.68c-2.12-3-4.12-6-6.31-8.93-2-2.62-4-5.19-5.79-7.9a28.54,28.54,0,0,1-4.32-8.76c-.37-1.49-.7-3.51.25-4.84.79-1.08,1-1,1.24.23a13.82,13.82,0,0,1,.26,2.64c.06,2.2.25,4.39.49,6.57.48,4.24.94,8.47,1.73,12.66a194.71,194.71,0,0,0,6.64,24.29c2.62,8,5.1,16.09,7.62,24.15,2.58,8.27,5.62,16.4,7.7,24.83,2.14,8.65,3.91,17.39,5.56,26.16s3.18,17.59,4.81,26.37a12.38,12.38,0,0,0,1.54,4.78c1,1.51,2.73,2.07,4,3.34,2.39,2.48,2.51,6.83-.38,9a24.64,24.64,0,0,1-3.72,2c-1.71.86-3.39,1.78-5.1,2.64a47.66,47.66,0,0,1-10,3.94c-3.69.92-8.16,1.5-11.87.38s-6-4.85-7.42-8.26A41.46,41.46,0,0,1,85,228.61a95.43,95.43,0,0,1-.83-10.68,231.4,231.4,0,0,0-1.8-24.54C80.68,180,78,166.87,75.09,153.73c-.91-4.18-1.89-8.37-2.48-12.61a20.19,20.19,0,0,1-.27-3.8,3.58,3.58,0,0,1,.18-1.17.94.94,0,0,1,.23-.41s0,0,.11,0c-.21,0,.31,0,.1,0a1.25,1.25,0,0,1,.64.34,6.76,6.76,0,0,1,1.49,2.42A40.51,40.51,0,0,1,77.49,149a116.81,116.81,0,0,1-.78,32.66,92.57,92.57,0,0,1-4.36,17.19,61.13,61.13,0,0,1-3.51,7.89c-1.75,3.25-3.73,6.32-5.25,9.69a40.1,40.1,0,0,0-3.83,16.2c0,3.63.77,7.15,1,10.75A9.31,9.31,0,0,1,58,251.31c-1.87,1.79-4.55,2.11-7,2a33.26,33.26,0,0,1-9.27-2.15,80.32,80.32,0,0,1-9.27-4.06c-2.88-1.46-5.86-2.79-7.35-5.83a8.91,8.91,0,0,1-.88-4.54,14.82,14.82,0,0,1,1.92-5.44L32,219.11l6-12.39c1.85-3.85,3.88-7.66,5.51-11.61a17.08,17.08,0,0,0,.78-11.49c-1.1-4-3.08-7.66-4.55-11.51a100.1,100.1,0,0,1-6-24.17,88.28,88.28,0,0,1,.1-24.46c1.26-7.65,4-15,5.91-22.46C41.65,93.85,43,86.1,41.07,78.78a3.15,3.15,0,0,0-2.2-2.62c-1.54-.34-3,.66-3.95,1.76-2.2,2.47-1.45,5.84.33,8.31a18.84,18.84,0,0,0,7.7,6c3.14,1.41,6.83,2.51,10.3,2a12.42,12.42,0,0,0,3.91-1.38c1.46-.78,3.3-2.58,5-2.34A2.53,2.53,0,0,1,64.11,94c-.26.66-.64,1.29-1,1.93a.91.91,0,0,0,.78,1.35l7.41.52c1.22.09,2.45.13,3.67.26,2.17.24,2.34,3.63,0,3.62-1,0-1.27,1.62-.24,1.77,2.14.3,2.07,3.63-.14,3.62-1,0-1.27,1.62-.24,1.77,2.14.3,2.07,3.63-.14,3.62-1,0-1.27,1.62-.24,1.77a1.84,1.84,0,0,1,.11,3.62,7.49,7.49,0,0,1-1.16,0c-2.17,0-4.34,0-6.51-.07a143.78,143.78,0,0,1-20.68-2.49c-11.32-2.09-23.26-5.4-32.36-12.78A31.11,31.11,0,0,1,3.09,87.87,25.84,25.84,0,0,1,2,76.9a24.25,24.25,0,0,1,3.67-9.54A37.72,37.72,0,0,1,20.2,54.24a33.34,33.34,0,0,1,8.05-3.15c2.25-.52,4.56-.78,6.85-1.08,4.54-.6,9.5-1.16,13.44-3.7a11.24,11.24,0,0,0,4.23-4.78c1.46-3.21,1.36-6.87,1.3-10.32,0-2.05,0-4.09,0-6.13a10.22,10.22,0,0,1,1.87-5.88,13,13,0,0,1,4-4.49,11.61,11.61,0,0,1,5.5-1.49A14.43,14.43,0,0,1,79,21.61c1.87,3.83,2.56,8.83.56,12.75a9.23,9.23,0,0,1-4.81,4.38c-1.24.5-2.59.62-3.68,1.46a3.4,3.4,0,0,0-1.43,3.28c.58,3,4.28,3.57,6.76,3.75A40.66,40.66,0,0,1,87,49.16c6.92,2.41,11.88,8,16.3,13.6a194.5,194.5,0,0,1,13.6,18.81A118.57,118.57,0,0,1,122.66,92a24.67,24.67,0,0,1,1.22,2.9c.14.42.27.85.38,1.29s.49,1.51.32,1.75c-.51.73-1.46-1.19-1.59-1.52a6.11,6.11,0,0,1-.42-2.43c.1-3.59,2.93-6.83,5.25-9.32a37,37,0,0,1,8.47-6.78c3.22-1.86,6.69-3.21,9.88-5.14q2.46-1.5,4.75-3.22a6.76,6.76,0,0,1,2.13-1.41,2.1,2.1,0,0,1,2.31,1c1,1.84-1.35,3.47-2.49,4.61a.91.91,0,0,0,.64,1.53c2.82.06,5.7,0,8.52.19s2.65,3.22,2.65,5.3c0,1.15.13,3.25-1.54,3.07-1.15-.12-1.15,1.68,0,1.8,2.26.25,3.26-1.89,3.34-3.83.1-2.33.28-5.14-1.52-6.91-1.55-1.51-3.75-1.25-5.74-1.29l-5.71-.13.64,1.54c1.38-1.38,3.29-2.76,3.28-4.91a3.92,3.92,0,0,0-6.28-3,71.41,71.41,0,0,1-10.93,6.83,48.27,48.27,0,0,0-9.84,5.88,35,35,0,0,0-7.74,8.58c-1.75,2.84-2.7,6.55-.87,9.61.66,1.12,2,2.6,3.46,2,1.79-.79,1-3.27.65-4.68-1.14-4-3.48-7.82-5.57-11.42a183.23,183.23,0,0,0-14.77-21.08c-4.66-5.93-9.67-11.92-16.84-14.85a36.44,36.44,0,0,0-11.4-2.4c-1.63-.11-3.56-.12-4.93-1.11-.9-.65-1.27-1.63-.45-2.5a4.91,4.91,0,0,1,2.41-1.08,11.6,11.6,0,0,0,8.19-10.51,18.74,18.74,0,0,0-4.63-13.65c-4.44-5-12.75-7-18.74-3.59a13.08,13.08,0,0,0-4.08,4.13,16.24,16.24,0,0,0-2.65,5.37c-.48,2.06-.17,4.4-.17,6.51,0,2.31.13,4.62,0,6.93-.22,3-1.1,5.91-3.48,7.95A16.16,16.16,0,0,1,42.05,47c-5,1.26-10.32,1.23-15.32,2.61A41.11,41.11,0,0,0,9.25,60C4.19,65,.25,71.72,0,79a30.11,30.11,0,0,0,7.14,19.9c8.21,9.91,21.33,14.54,33.52,17.22a145.79,145.79,0,0,0,21.49,3.27q4.59.31,9.2.31c1.49,0,3.38.23,4.63-.71,2.4-1.8,1.6-6-1.48-6.47l-.24,1.77c4.18,0,4.8-6.57.62-7.16l-.24,1.77c4.18,0,4.8-6.57.62-7.16L75,103.48a3.66,3.66,0,0,0,2.9-5.71c-1-1.44-2.51-1.48-4.06-1.59l-9.93-.7.77,1.36c1-2,2.1-3.9.87-6a4.35,4.35,0,0,0-3.68-2.18c-1.8,0-3.25,1.24-4.73,2.11a12,12,0,0,1-4.5,1.73,15,15,0,0,1-6-.76,19.36,19.36,0,0,1-9.49-5.84,6.78,6.78,0,0,1-1.87-4.69,3.81,3.81,0,0,1,1.37-2.5c.8-.7,2-1.19,2.47.06a19.86,19.86,0,0,1,.94,5.78A39.24,39.24,0,0,1,40,90.24c-.75,8.14-3.61,15.92-5.78,23.75a78.88,78.88,0,0,0-2.42,11.48,90.23,90.23,0,0,0-.5,12.73A104,104,0,0,0,35,163.54a99.07,99.07,0,0,0,4.25,12.21c1.62,3.84,3.68,7.76,3.91,12,.24,4.57-2.22,8.68-4.14,12.66l-6.19,12.84-6.18,12.83c-1,2.11-2,4.2-3,6.31A11.58,11.58,0,0,0,22.43,237a10.8,10.8,0,0,0,3.5,8.22c2.37,2.14,5.72,3.47,8.58,4.81,5.64,2.63,12.22,5.47,18.58,5a10.07,10.07,0,0,0,9.1-7c1-3.08.21-6.4-.2-9.51a36.48,36.48,0,0,1,.58-13.85,47.16,47.16,0,0,1,3.85-10c1.6-3.13,3.55-6.06,5.08-9.22a78.32,78.32,0,0,0,5.77-17.19,120.3,120.3,0,0,0,2.43-35.2,63.92,63.92,0,0,0-2-12.59c-.6-2.09-1.45-5.15-3.54-6.27s-3.32.57-3.54,2.4c-.36,3,.42,6.2,1,9.12,2.34,12.11,5.31,24.08,7.31,36.26,1.35,8.16,2.37,16.37,3,24.62.55,7.87.39,15.75,1.55,23.58a38.71,38.71,0,0,0,2.86,10.44c1.44,3.18,3.7,6.43,7,7.85,3.54,1.53,7.91,1.15,11.62.52a40.85,40.85,0,0,0,10.43-3.46c3.29-1.53,6.55-3.22,9.76-4.92,2.72-1.45,4.52-3.75,4.5-6.94a8.33,8.33,0,0,0-1.41-4.54,8.23,8.23,0,0,0-1.6-1.78,26.07,26.07,0,0,1-2.57-1.84c-1.35-1.37-1.56-3.56-1.89-5.36q-.63-3.39-1.23-6.79c-1.66-9.16-3.27-18.33-5.1-27.46a261.67,261.67,0,0,0-6.48-26.78c-1.35-4.32-2.83-8.59-4.23-12.9s-2.56-8.54-3.9-12.8c-2.6-8.32-5.53-16.53-8-24.9C92,104.34,90.89,100.09,90,95.78c-.88-4.49-1.4-9-1.89-13.57-.24-2.12-.38-4.23-.45-6.36A15.16,15.16,0,0,0,87.39,73c-.51-2.18-2.27-3.09-4-1.33C81.18,74,82,77.75,83,80.43a39.49,39.49,0,0,0,5,8.87c1.87,2.65,3.91,5.17,5.8,7.81,2.39,3.34,4.67,6.75,7.11,10,4.65,6.25,9.77,12.56,17.19,15.56a18.62,18.62,0,0,0,19-2.65c4.66-3.75,7.86-9.11,13.21-12,1-.55.11-2.11-.91-1.55Z"/><path d="M73,40.19a13.41,13.41,0,0,1-5.42.58,6.66,6.66,0,0,1-4-1.38c1.79,1.56,3.52,4,6.89,4.51C70.45,43.9,68.6,40.7,73,40.19Z"/><path d="M72.74,39.33a14.32,14.32,0,0,1-4.13.59,7.11,7.11,0,0,1-4.41-1.17.93.93,0,0,0-1.28,0,.92.92,0,0,0,0,1.27c1,.89,1.9,1.9,3,2.73a9.33,9.33,0,0,0,4.34,2,.91.91,0,0,0,1-1.32.34.34,0,0,1-.06-.12l-.07-.14c.1.19.05.14,0,0s-.09-.3-.13-.45,0,.09,0-.09,0-.2,0-.29,0-.1,0-.15,0,.17,0,.06,0-.2.09-.3c-.08.22,0-.07.09-.14s-.06.07,0,0l.14-.13c.11-.12,0,0,0,0l.19-.12a1.9,1.9,0,0,1,.32-.16A4.88,4.88,0,0,1,73,41.09a.93.93,0,0,0,.9-.9.91.91,0,0,0-.9-.9c-1.65.21-3.52.86-3.78,2.74a3.8,3.8,0,0,0,.47,2.33l1-1.33A7.76,7.76,0,0,1,67,41.33c-1-.8-1.81-1.75-2.75-2.58L62.92,40c2.86,2.33,7,1.87,10.3,1A.9.9,0,0,0,72.74,39.33Z"/><path d="M149.4,83.8C145,84,145,91,149.4,91.28v-1.8c-4.36.24-4.36,7.23,0,7.47v-1.8c-3.64.2-4.57,5.56-1.35,7.15,1.2.6,3,.32,4.27.32h7.09c1.31,0,2.66.1,4,0,4.23-.36,4-7.23-.23-7.46V97c4.36-.24,4.36-7.23,0-7.47v1.8c4.36-.25,4.36-7.24,0-7.48-1.16-.06-1.16,1.74,0,1.8,2,.11,2,3.76,0,3.88a.9.9,0,0,0,0,1.8c2,.11,2,3.76,0,3.87a.9.9,0,0,0,0,1.8c2.17.12,2,3.83-.21,3.88-1.2,0-2.4,0-3.61,0h-9.47a1.79,1.79,0,0,1-1.38-.4c-1.05-1-.72-3.39.93-3.48a.9.9,0,0,0,0-1.8c-2-.11-2.05-3.76,0-3.87a.9.9,0,0,0,0-1.8c-2-.12-2.05-3.77,0-3.88,1.15-.06,1.16-1.86,0-1.8Z"/><path d="M159.51,78.13H150a4.11,4.11,0,0,0-2,.36,3.85,3.85,0,0,0-1.87,3.86A3.57,3.57,0,0,0,149,85.56a12,12,0,0,0,1.8,0h5.47a.9.9,0,0,0,0-1.8h-6.49a1.67,1.67,0,0,1-1.7-1,2.09,2.09,0,0,1,1-2.8,3.94,3.94,0,0,1,1.19-.06h9.3a.9.9,0,0,0,0-1.8Z"/><path d="M149.32,91.28h6.91a.9.9,0,0,0,0-1.8h-6.91a.9.9,0,0,0,0,1.8Z"/><path d="M149.4,97h6.91a.9.9,0,0,0,0-1.8H149.4a.9.9,0,0,0,0,1.8Z"/><path d="M65.81,113.76l8.12.57,1.17.08a.9.9,0,0,0,.9-.9.91.91,0,0,0-.9-.89L67,112,65.81,112a.9.9,0,0,0,0,1.8Z"/><path d="M65.86,108.36l8.12.57,1.17.08a.9.9,0,0,0,.89-.9.92.92,0,0,0-.89-.9L67,106.64l-1.17-.08a.9.9,0,0,0-.9.9.92.92,0,0,0,.9.9Z"/><path d="M66.75,102.84l8.12.58,1.17.08a.9.9,0,0,0,0-1.8l-8.12-.57-1.17-.08a.9.9,0,0,0-.9.9.91.91,0,0,0,.9.89Z"/><ellipse cx="153.51" cy="10.61" rx="3.61" ry="1.27"/><path d="M55.51,228.2c-2.61.64-3.51,3.64-2.5,5.92a5.67,5.67,0,0,0,2.59,2.79c1.15.54,2.8.14,3-1.27a.92.92,0,0,0-.63-1.11c-2.61-.44-4,2.38-3.69,4.61a6.64,6.64,0,0,0,4.36,5.35c1.1.38,1.57-1.35.48-1.74a4.75,4.75,0,0,1-3-3.26,3.39,3.39,0,0,1,0-2.09c.19-.49.65-1.24,1.28-1.14l-.63-1.1c-.1.65-1.15-.32-1.36-.52a3.9,3.9,0,0,1-1.08-1.86A2.31,2.31,0,0,1,56,229.93c1.13-.27.65-2-.48-1.73Z"/><path d="M116.89,221a1.58,1.58,0,0,0-1.38-1.51,1.91,1.91,0,0,0-2,1,5.14,5.14,0,0,0-.44,2.42,6.9,6.9,0,0,0,.38,2.67,3.68,3.68,0,0,0,3.6,2.55,2,2,0,0,0,1.81-1.51,1.68,1.68,0,0,0-1.09-1.94.88.88,0,0,0-.88.23c-1.41,1.39-1,3.7.39,5,1.7,1.61,4.29,1.29,6.36.76a.9.9,0,0,0-.48-1.73c-1.36.35-3.25.76-4.48-.19a2.28,2.28,0,0,1-.82-1.33,1.2,1.2,0,0,1,.31-1.22l-.88.23a1,1,0,0,1-.18-.15s.05,0,0,0a1.57,1.57,0,0,1-.45.07,1.09,1.09,0,0,1-.31-.08,2.39,2.39,0,0,1-1.29-1.64,6.91,6.91,0,0,1-.11-2.68,2.53,2.53,0,0,1,.22-.69s0,0,.07,0h-.06c.14-.21.08.13,0,0s-.08,0-.1-.23a.9.9,0,0,0,1.8,0Z"/><path d="M58.63,23.31a3.06,3.06,0,0,0-2.18,2.41,4.4,4.4,0,0,0,.63,2.8c.85,1.51,2.49,2.67,2.21,4.59a3.31,3.31,0,0,1-1.93,2.51c-.92.39-2.27.13-2.47-.85a1.77,1.77,0,0,1-1.23,1.53,2.27,2.27,0,0,1-2-.37,1.86,1.86,0,0,1-.73-1A3.44,3.44,0,0,1,51,33.55c.47-2.87-.73-5.7-1.74-8.43s-1.85-5.78-.72-8.46a4.05,4.05,0,0,1,1.37-1.79,2.33,2.33,0,0,1,2.18-.26,15,15,0,0,1-1-1.55c-.22-.56-.07-1.37.52-1.54s1.23.6,1.52,1.26a5.67,5.67,0,0,1,.58-2.42,1.21,1.21,0,0,1,.45-.55c.45-.23,1,.19,1.14.69A2.5,2.5,0,0,1,55.06,12,37.71,37.71,0,0,1,71.63,4a14.72,14.72,0,0,1,7.51-.14,3.45,3.45,0,0,1,2.31,1.77c.38.93-.24,2.25-1.24,2.22a3,3,0,0,1,3.43,1.2,3.3,3.3,0,0,1-.16,3.67A3.61,3.61,0,0,1,80,14.09a3.42,3.42,0,0,1,2.68,2.83,2,2,0,0,1-.36,1.59,2.37,2.37,0,0,1-1,.64c-2.44.89-4-.7-6.28-.7a20.1,20.1,0,0,0-7.94,1.65,3.36,3.36,0,0,0-1.94,1.57A3,3,0,0,0,65,23c0,2.27.74,4.82-.62,6.64.46-.62-1.57-3.83-1.93-4.39C61.55,23.92,60.33,22.87,58.63,23.31Z"/><path d="M58.4,22.45c-2.73.9-3.47,3.69-2.28,6.15.53,1.12,1.51,1.95,2,3.07A2.27,2.27,0,0,1,58,34c-.3.41-1.87,1.54-2.22.53-.27-.76-1.57-.95-1.74,0a1,1,0,0,1-1.32.87c-.85-.21-.91-.85-.8-1.62a11,11,0,0,0,.09-2.5,21.48,21.48,0,0,0-1.51-5.54A20.15,20.15,0,0,1,49,20c-.09-1.61.5-5.33,2.93-4.54a.9.9,0,0,0,1-1.32c-.22-.36-.53-.68-.72-1.06-.32-.62,0-.25.22.15.41.86,1.63.36,1.68-.46a6.06,6.06,0,0,1,.35-1.68c.25-.76-.17.5-.22.64-.36.92.89,1.4,1.5.88A35.4,35.4,0,0,1,68,5.93,31.46,31.46,0,0,1,75,4.4a10.59,10.59,0,0,1,3.72.3,3.79,3.79,0,0,1,1.41.65c.32.26,1.07,1.53.12,1.63l.24,1.77A2.12,2.12,0,0,1,83.21,11c-.14,1.65-1.7,2.38-3.2,2.2-1-.12-1.2,1.52-.23,1.77,1.17.29,2.82,1.89,1.64,3-1,1-2.58.43-3.73.08a14.09,14.09,0,0,0-7.62.09c-2,.48-5.16,1.23-5.85,3.48-.77,2.47.91,5.19-.65,7.52l1.55.9c.71-1.45-.83-3.51-1.56-4.7-1.19-1.93-2.75-3.4-5.16-2.91-1.14.22-.66,2,.47,1.73,1.63-.32,2.52,1.07,3.25,2.28.3.5.59,1,.85,1.51a7.12,7.12,0,0,1,.35.74c.08.21.1.75.25.45a.9.9,0,0,0,1.55.9,6.38,6.38,0,0,0,.95-3.79c0-1.46-.78-3.83.49-4.89s3.23-1.35,4.66-1.64a11.54,11.54,0,0,1,5.16-.18c2.11.55,5.52,1.67,6.91-.87,1.25-2.28-.85-4.91-3-5.47L80,15a4.35,4.35,0,0,0,5-4.41A3.94,3.94,0,0,0,80,7c-.94.27-.8,1.88.24,1.77,2.66-.28,2.79-3.52.89-4.92C78.61,2,74.88,2.45,72.05,3a38.78,38.78,0,0,0-17.62,8.33l1.5.87c.48-1.25.4-3.38-1.45-3.37s-2.14,2.64-2.21,3.93l1.67-.45C53.39,11.16,52,9.91,50.76,11s-.13,2.89.58,4l1-1.32c-2.84-.93-4.71,1.88-5.11,4.33-.51,3.14.78,6.14,1.82,9a15.22,15.22,0,0,1,1.17,5.09c0,1.36-.61,2.75.35,3.92,1.5,1.85,4.74,1.41,5.17-1.1H54a2.62,2.62,0,0,0,3.29,1.58,4.18,4.18,0,0,0,2.85-3.24,5,5,0,0,0-1.36-3.94c-1.14-1.51-2.63-4.34.07-5.23C60,23.82,59.5,22.08,58.4,22.45Z"/><path class="cls-1" d="M126.22,8.13l1.89,2.36a.92.92,0,0,0,.63.26.94.94,0,0,0,.64-.26.92.92,0,0,0,.26-.64l0-.24a1,1,0,0,0-.23-.4l-1.89-2.35a.88.88,0,0,0-.63-.26.9.9,0,0,0-.64.26.94.94,0,0,0-.26.63l0,.24a.84.84,0,0,0,.23.4Z"/><path class="cls-1" d="M121.21,23.47l4.7.52a.9.9,0,1,0,0-1.8l-4.7-.52a.9.9,0,0,0-.9.9.92.92,0,0,0,.9.9Z"/><path class="cls-1" d="M138.24,1.14l.47,3.3a.9.9,0,0,0,1.64.21,1,1,0,0,0,.09-.69L140,.66a.89.89,0,0,0-.41-.54.93.93,0,0,0-.69-.09.91.91,0,0,0-.54.42,1,1,0,0,0-.09.69Z"/><path class="cls-2" d="M174.49,43.24A56,56,0,0,0,178.86,49a.91.91,0,0,0,1.27,0c3.7-3.92,7.22-8,10.91-11.93.8-.84-.47-2.12-1.27-1.27-3.69,3.92-7.21,8-10.91,11.92h1.27a50.24,50.24,0,0,1-4.08-5.34c-.64-1-2.2-.06-1.56.91Z"/><path class="cls-2" d="M182.12,34.28c-3.8-2.19-8.42.21-11.11,3.09a12.86,12.86,0,0,0-3.31,11.5A11.48,11.48,0,0,0,176,57.46a12.4,12.4,0,0,0,11.39-2.79c3.33-2.91,5.56-8.27,2.83-12.29-.65-1-2.21-.05-1.55.91,2,3,.56,6.9-1.71,9.3A10.79,10.79,0,0,1,177.82,56a9.81,9.81,0,0,1-8-6.13A10.82,10.82,0,0,1,171.17,40c2-2.89,6.47-6.25,10-4.18a.9.9,0,0,0,.91-1.56Z"/><path d="M75.75,25.07A1.92,1.92,0,0,0,75.93,27a2.89,2.89,0,0,0,1.56,1.12,1.52,1.52,0,0,1,.66.28c-.07-.06,0,0,0,.06s0,.07,0,0c0,.07,0,.08,0,0v.12c0-.11,0,.05,0,.07s0,0,0,.09l-.06.1s0,0,0,0a.75.75,0,0,1-.27.18,3.92,3.92,0,0,1-.94.24.59.59,0,0,0-.41.73.6.6,0,0,0,.73.42,2.72,2.72,0,0,0,2-1,1.47,1.47,0,0,0-.24-2c-.49-.39-1.16-.43-1.6-.75a1.53,1.53,0,0,1-.45-.54s0,0,0,0a.49.49,0,0,1,0-.11l0-.12c0,.05,0,.06,0,0s0-.22,0-.11.06-.22,0-.14a.62.62,0,0,0-.22-.82.6.6,0,0,0-.82.21Z"/><path d="M72,33.4a6.6,6.6,0,0,0,2.47.69.6.6,0,0,0,.6-.6.62.62,0,0,0-.6-.6l-.27,0c.18,0,0,0,0,0l-.11,0-.54-.13a5.25,5.25,0,0,1-.52-.17l-.11,0c.17,0,0,0,0,0l-.25-.12a.6.6,0,0,0-.6,1Z"/><path d="M70.3,23.44a2.21,2.21,0,0,1,.34-.18c.06,0,0,0,0,0l.09,0a.64.64,0,0,1,.18-.06,2.7,2.7,0,0,1,.39-.08h.59c.09,0-.1,0,0,0l.38.09.18.06s.11,0,0,0l0,0a2.6,2.6,0,0,1,.36.21.61.61,0,0,0,.82-.22.61.61,0,0,0-.22-.82,3.54,3.54,0,0,0-3.78,0,.61.61,0,0,0-.21.82.6.6,0,0,0,.82.21Z"/><path d="M71.4,26.34a5.07,5.07,0,0,1,1,0l-.16,0a4,4,0,0,1,.89.22.61.61,0,0,0,.74-.42.63.63,0,0,0-.42-.74,4.89,4.89,0,0,0-2.08-.25.61.61,0,0,0-.42.17.67.67,0,0,0-.18.42c0,.3.27.64.6.6Z"/><path d="M78.07,23.33a4,4,0,0,1,.46-.24l-.14.06a4.31,4.31,0,0,1,.87-.24l-.16,0,.32,0a.64.64,0,0,0,.42-.18.56.56,0,0,0,.18-.42.61.61,0,0,0-.6-.6,4.11,4.11,0,0,0-2,.59.61.61,0,0,0-.21.82.6.6,0,0,0,.82.21Z"/><path d="M78.55,25.67,80.34,25a.65.65,0,0,0,.36-.27.67.67,0,0,0,.06-.46.62.62,0,0,0-.74-.42l-1.78.63a.63.63,0,0,0-.36.28.56.56,0,0,0-.06.46.6.6,0,0,0,.73.42Z"/><path class="cls-1" d="M162.05,203.76a15.35,15.35,0,0,0,16.41,4A.9.9,0,0,0,178,206a8.26,8.26,0,0,0-.13,16.17.9.9,0,0,0,.48-1.74,6.5,6.5,0,0,0-7.82,8.65c.43,1.06,2.17.6,1.73-.48a4.7,4.7,0,0,1,5.61-6.43l.48-1.74a6.46,6.46,0,0,1,.13-12.69L178,206a13.56,13.56,0,0,1-14.65-3.49c-.79-.86-2.06.42-1.28,1.27Z"/></g></g></svg>