<?xml version="1.0" encoding="UTF-8"?>
<svg id="Layer_2" data-name="Layer 2" xmlns="http://www.w3.org/2000/svg" viewBox="0 0 411.81 350.14">
  <defs>
    <style>
      .cls-1 {
        fill: #f4d13b;
      }

      .cls-2 {
        fill: #f953b2;
      }

      .cls-3 {
        fill: #6966ed;
      }

      .cls-4 {
        fill: #fff;
      }
    </style>
  </defs>
  <g id="Layer_1-2" data-name="Layer 1">
    <g>
      <g>
        <g>
          <path class="cls-1" d="M130.58,172.58c0,5.81-4.71,10.51-10.51,10.51H10.51c-5.81,0-10.51-4.71-10.51-10.51V22.91H130.58V172.58Z"/>
          <path class="cls-2" d="M10.51,3.42H120.06c5.81,0,10.51,4.71,10.51,10.51v9.02H0V13.93C0,8.12,4.71,3.42,10.51,3.42Z"/>
          <circle class="cls-3" cx="63.99" cy="57.17" r="24.55"/>
          <path class="cls-4" d="M63.99,81.72c-6.78,0-12.92-2.75-17.36-7.19l2.3-7.45c1.31-4.28,5.25-7.19,9.72-7.19h9.21c4.21,0,7.99,2.6,9.5,6.53l3.58,8.51c-4.41,4.21-10.38,6.79-16.95,6.79Z"/>
          <rect class="cls-4" x="21.2" y="94.37" width="81.84" height="18.04" rx="9.02" ry="9.02" transform="translate(124.25 206.79) rotate(-180)"/>
          <rect class="cls-4" x="21.2" y="121.9" width="81.84" height="18.04" rx="9.02" ry="9.02" transform="translate(124.25 261.84) rotate(180)"/>
          <g>
            <circle class="cls-4" cx="28.46" cy="13.21" r="2.16"/>
            <circle class="cls-4" cx="20.86" cy="13.21" r="2.16"/>
            <circle class="cls-4" cx="13.25" cy="13.21" r="2.16"/>
          </g>
          <path class="cls-3" d="M97.84,157.43c-8.14,0-16.29,0-24.43,0-12.88,0-25.76,0-38.64,0-2.97,0-5.94,0-8.91,0-2.39,0-2.4,3.72,0,3.72,8.14,0,16.29,0,24.43,0,12.88,0,25.76,0,38.64,0,2.97,0,5.94,0,8.91,0,2.39,0,2.4-3.72,0-3.72h0Z"/>
          <path class="cls-3" d="M83.52,165.98c-10.73,0-21.47,0-32.2,0-1.54,0-3.09,0-4.63,0-2.39,0-2.4,3.72,0,3.72,10.73,0,21.47,0,32.2,0,1.54,0,3.09,0,4.63,0,2.39,0,2.4-3.72,0-3.72h0Z"/>
          <circle class="cls-4" cx="63.25" cy="49.73" r="7.34"/>
        </g>
        <circle class="cls-2" cx="88.11" cy="93.6" r="6.21"/>
        <circle class="cls-2" cx="37.4" cy="103.04" r="6.21"/>
        <circle class="cls-2" cx="54.46" cy="103.04" r="6.21"/>
        <circle class="cls-2" cx="71.51" cy="103.04" r="6.21"/>
        <path class="cls-3" d="M82.56,105.54l1.29-2.15c.14-.21,.21-.44,.22-.69,.06-.25,.04-.49-.03-.74-.06-.24-.17-.45-.33-.63-.13-.2-.31-.36-.52-.48-.43-.23-.95-.34-1.43-.19s-.86,.43-1.11,.86l-1.29,2.15c-.14,.21-.21,.44-.22,.69-.06,.25-.04,.49,.03,.74,.06,.24,.17,.45,.33,.63,.13,.2,.31,.36,.52,.48,.43,.23,.95,.34,1.43,.19s.86-.43,1.11-.86h0Z"/>
        <path class="cls-3" d="M87.31,105.1l.21,1.07c.06,.24,.17,.45,.33,.63,.13,.2,.31,.36,.52,.48,.21,.14,.44,.21,.69,.22,.25,.06,.49,.04,.74-.03l.44-.19c.28-.17,.5-.39,.67-.67l.19-.44c.09-.33,.09-.66,0-.99l-.21-1.07c-.06-.24-.17-.45-.33-.63-.13-.2-.31-.36-.52-.48-.21-.14-.44-.21-.69-.22-.25-.06-.49-.04-.74,.03l-.44,.19c-.28,.17-.5,.39-.67,.67l-.19,.44c-.09,.33-.09,.66,0,.99h0Z"/>
        <path class="cls-3" d="M93.33,102.1c.79,.49,1.58,.99,2.37,1.48,.21,.14,.44,.21,.69,.22,.25,.06,.49,.04,.74-.03,.24-.06,.45-.17,.63-.33,.2-.13,.36-.31,.48-.52,.23-.43,.34-.95,.19-1.43s-.43-.85-.86-1.11c-.79-.49-1.58-.99-2.37-1.48-.21-.14-.44-.21-.69-.22-.25-.06-.49-.04-.74,.03-.24,.06-.45,.17-.63,.33-.2,.13-.36,.31-.48,.52-.23,.43-.34,.95-.19,1.43s.43,.85,.86,1.11h0Z"/>
        <path class="cls-3" d="M29.91,136.5c2.39,0,2.4-3.72,0-3.72s-2.4,3.72,0,3.72h0Z"/>
        <path class="cls-3" d="M36.17,136.5c2.39,0,2.4-3.72,0-3.72s-2.4,3.72,0,3.72h0Z"/>
        <path class="cls-3" d="M42.42,136.5c2.39,0,2.4-3.72,0-3.72s-2.4,3.72,0,3.72h0Z"/>
        <path class="cls-3" d="M48.68,136.5c2.39,0,2.4-3.72,0-3.72s-2.4,3.72,0,3.72h0Z"/>
        <path class="cls-3" d="M54.93,136.5c2.39,0,2.4-3.72,0-3.72s-2.4,3.72,0,3.72h0Z"/>
        <path class="cls-3" d="M61.19,136.5c2.39,0,2.4-3.72,0-3.72s-2.4,3.72,0,3.72h0Z"/>
        <path class="cls-3" d="M67.44,136.5c2.39,0,2.4-3.72,0-3.72s-2.4,3.72,0,3.72h0Z"/>
        <path class="cls-3" d="M73.7,136.5c2.39,0,2.4-3.72,0-3.72s-2.4,3.72,0,3.72h0Z"/>
        <path class="cls-3" d="M79.95,136.5c2.39,0,2.4-3.72,0-3.72s-2.4,3.72,0,3.72h0Z"/>
        <path class="cls-3" d="M86.21,136.5c2.39,0,2.4-3.72,0-3.72s-2.4,3.72,0,3.72h0Z"/>
        <path class="cls-2" d="M10.43,133.53c-.24,2.26-1.37,4.32-3,5.87-.88,.84-.62,2.32,.38,2.92,2.8,1.69,4.18,4.9,3.77,8.1-.09,.71,.54,1.46,1.14,1.7,.74,.3,1.43,.11,2.03-.38,.98-.8,2.14-1.79,3.45-1.93,1.15-.12,2.12,.55,2.65,1.53,.64,1.2,2.58,1.22,3.21,0,.55-1.06,1.5-1.54,2.68-1.45,1,.08,1.86-.91,1.86-1.86,0-1.07-.85-1.78-1.86-1.86-2.4-.2-4.79,1.16-5.9,3.29h3.21c-1.09-2.03-3.29-3.38-5.6-3.38-2.49,0-4.51,1.54-6.35,3.03l3.18,1.32c.57-4.47-1.79-9.01-5.61-11.32l.38,2.92c2.39-2.26,3.75-5.25,4.09-8.5,.11-1-.93-1.86-1.86-1.86-1.09,0-1.75,.86-1.86,1.86h0Z"/>
      </g>
      <g>
        <path d="M251.95,61.4c.09,.1,.07,.07-.05-.08,.03,.04,.05,.08,.08,.12-.07-.19-.08-.22-.04-.1-.02-.21-.03-.25-.02-.12,.04-.21,.04-.25,.01-.12-.04,.12-.02,.09,.05-.09-.02,.01-.15,.23-.15,.25,.12-.15,.14-.18,.06-.09-.03,.03-.06,.07-.09,.1-.06,.07-.13,.13-.2,.19-.03,.03-.07,.06-.11,.09,.16-.12,.19-.15,.09-.07-.08,.05-.15,.11-.23,.16-.81,.55-1.66,1.07-2.02,2.04-.21,.54-.13,1.22,.2,1.7,.44,.65,1.13,.83,1.87,.9,1.01,.1,2.01-.14,2.92-.58,.59-.28,.79-1.17,.44-1.7-.39-.6-1.07-.75-1.7-.44-.05,.02-.09,.05-.14,.07,.18-.07,.2-.08,.08-.04-.1,.03-.2,.07-.3,.1-.08,.02-.15,.04-.23,.06s-.25,.02-.31,.06c.2-.02,.23-.03,.1-.01-.05,0-.1,0-.16,.01-.08,0-.16,0-.24,0-.1,0-.21,0-.31,0-.05,0-.1,0-.16-.01l.17,.02c-.08-.03-.2-.04-.29-.06-.12-.04-.09-.03,.1,.04,.11,.07,.19,.15,.25,.27-.12-.19,.1,.29,.03,.07,.02,.23,.03,.27,.03,.14-.04,.22-.04,.27-.01,.14,.04-.12,.03-.09-.05,.11,.02-.04,.04-.08,.07-.12l-.11,.14s.06-.07,.09-.1c.06-.07,.13-.13,.2-.19,.04-.03,.07-.06,.11-.09-.15,.12-.19,.14-.11,.09,.6-.43,1.3-.8,1.79-1.37,.4-.47,.69-.99,.73-1.62s-.26-1.19-.68-1.65-1.32-.48-1.75,0c-.47,.52-.46,1.24,0,1.75h0Z"/>
        <g>
          <path d="M258.38,75.79s4.05-.33,7.23-2.67c-1.19,2.83-4.46,5.51-5.69,5.7,1.08-3.44-1.48-2.96-1.54-3.02Z"/>
          <path d="M258.38,77.65c.98-.08,1.97-.27,2.92-.53,1.85-.49,3.69-1.27,5.25-2.4l-2.55-2.55c-.31,.72-.72,1.38-1.19,2.02-.19,.26,.2-.25,.06-.07-.06,.07-.11,.14-.17,.21-.13,.15-.26,.3-.39,.45-.26,.29-.53,.56-.81,.83-.25,.24-.51,.46-.78,.68-.11,.09-.39,.26,.09-.06-.06,.04-.12,.09-.18,.13-.12,.09-.25,.18-.38,.26-.22,.14-.45,.27-.68,.39-.34,.18,.46-.15,.13-.05-.09,.03-.18,.05-.27,.07l2.29,2.29c.52-1.7,.52-3.74-1.11-4.82-.52-.34-1.08-.47-1.69-.53-.11-.01-.23-.02-.34-.02-.04,0-.07,0-.11,0-.01,0-.03,0-.04,0,.21-.01,.68,.1,.9,.25-.82-.53-2.09-.19-2.55,.67-.49,.93-.21,1.98,.67,2.55,.38,.25,.82,.25,1.25,.26,.06,0,.11,.01,.17,.01,.18,0-.61-.12-.27-.03,.06,.02,.12,.03,.18,.05,.03,0,.08,.04,.11,.04-.02,0-.48-.26-.32-.13,.08,.06,.32,.22,0-.03-.41-.32-.03,.02,0,.03-.03,0-.29-.45-.2-.25,.01,.03,.04,.08,.06,.1,.12,.14-.14-.45-.11-.25,0,.05,.03,.09,.04,.14,.1,.43-.02-.5-.01-.08,0,.13,0,.25-.01,.38-.02,.3,.08-.42,.03-.19-.02,.08-.03,.16-.04,.24-.05,.22-.1,.43-.17,.64-.19,.63,.02,1.35,.48,1.81,.5,.5,1.14,.6,1.81,.48,.58-.1,1.16-.42,1.65-.74,.71-.45,1.37-.99,1.99-1.56,1.28-1.19,2.47-2.64,3.16-4.25,.17-.4,.28-.74,.22-1.19-.05-.39-.21-.79-.51-1.07-.57-.52-1.58-.79-2.25-.29-.76,.55-1.57,1-2.42,1.38-.37,.17,.41-.16,.04-.02-.1,.04-.2,.08-.3,.12-.19,.07-.39,.14-.59,.21-.36,.12-.73,.23-1.1,.33-.56,.15-1.14,.27-1.71,.37-.09,.01-.2,.02-.29,.04-.04,.01,.6-.08,.36-.05-.03,0-.06,0-.1,.01-.06,0-.13,.01-.19,.02-.97,.08-1.91,.8-1.86,1.86,.04,.94,.82,1.95,1.86,1.86Z"/>
        </g>
        <g>
          <path d="M275.35,66.7c1.72,.55,3.87,.47,5.16,.13,2.77-.73,5.47-2.36,6.67-4.96,.64-1.4,.81-2.96,.85-4.5,.37-13.2-3.5-30.87-19.23-32.74-5.69-.68-11.44,1.3-16.27,4.39-3.47,2.22-6.61,5.06-8.68,8.62-2.07,3.56-3,7.88-2.03,11.88,.38,1.55,1.08,3.1,2.33,4.1,2.05,1.64,5.01,1.41,7.56,.75,3.33-.86,7.49-3.06,11.04-2.52,3.19,.49,3.98,3.82,4.2,6.58-1.66-3.57,1.58-9.31,5.77-6.38,.75,.52,1.27,1.31,1.64,2.14,.58,1.3,.84,2.78,.57,4.18-.42,2.18-2.99,4.08-1.99,6.43,.41,.96,1.32,1.56,2.41,1.91Z"/>
          <path d="M274.86,68.49c4.8,1.39,10.58-.51,13.39-4.72,1.45-2.18,1.64-4.86,1.66-7.39,.02-1.9-.04-3.8-.21-5.69-.65-7.66-2.71-15.8-8.06-21.59-2.62-2.83-6.06-4.87-9.8-5.81-5.3-1.32-10.73-.48-15.68,1.68-9.54,4.14-19.36,14.31-15.97,25.61,.85,2.83,2.79,5.22,5.77,5.89,2.82,.63,5.72-.07,8.4-.99,2.46-.84,5.56-2.38,8.23-1.79,2.01,.45,2.35,3.01,2.5,4.72l3.47-.94c-.54-1.25-.06-3.19,1-4.04,1.69-1.34,3.17,1.31,3.49,2.66,.59,2.57-1.52,4.09-2.05,6.43-.67,2.91,1.27,5.05,3.86,5.97,2.26,.8,3.23-2.79,.99-3.59-1.35-.48-1.47-1.29-.84-2.46,.71-1.31,1.55-2.51,1.78-4.02,.51-3.3-1.02-7.21-4.21-8.59-2.52-1.09-5.1-.08-6.62,2.11s-1.64,5-.61,7.4c.72,1.69,3.62,.84,3.47-.94-.34-4-1.87-8.08-6.43-8.48-4.78-.42-8.85,2.76-13.5,3.04-2.26,.14-4.05-.59-4.92-2.8s-.84-4.81-.3-7.1c1.11-4.74,4.38-8.61,8.27-11.4,7.05-5.07,16.73-7.6,24.38-2.32,5.51,3.81,7.98,10.74,9.11,17.05,.67,3.73,.91,7.6,.73,11.39-.13,2.68-1.07,4.78-3.45,6.17-2.09,1.22-4.52,1.64-6.86,.96s-3.29,2.92-.99,3.59Z"/>
        </g>
        <g>
          <path d="M323.85,161.6c-.36-3.24-.72-6.48-1.08-9.72-.05-.47-.1-.93-.16-1.4-.11-.96-.78-1.91-1.86-1.86-.92,.04-1.98,.82-1.86,1.86,.36,3.24,.72,6.48,1.08,9.72,.05,.47,.1,.93,.16,1.4,.11,.96,.78,1.91,1.86,1.86,.92-.04,1.98-.82,1.86-1.86h0Z"/>
          <path d="M329.26,161.26c-.36-3.24-.72-6.48-1.08-9.72-.05-.47-.1-.93-.16-1.4-.11-.96-.78-1.91-1.86-1.86-.92,.04-1.98,.82-1.86,1.86,.36,3.24,.72,6.48,1.08,9.72,.05,.47,.1,.93,.16,1.4,.11,.96,.78,1.91,1.86,1.86,.92-.04,1.98-.82,1.86-1.86h0Z"/>
          <path d="M334.48,160.77c-.36-3.24-.72-6.48-1.08-9.72-.05-.47-.1-.93-.16-1.4-.11-.96-.78-1.91-1.86-1.86-.92,.04-1.98,.82-1.86,1.86,.36,3.24,.72,6.48,1.08,9.72,.05,.47,.1,.93,.16,1.4,.11,.96,.78,1.91,1.86,1.86,.92-.04,1.98-.82,1.86-1.86h0Z"/>
          <path d="M292.9,261.39c-.26,10.37,.1,20.75,.97,31.09s1.94,19.95,3.9,29.74c.49,2.43,.79,4.82,.87,7.29,.08,2.35,.02,4.83-1.09,6.96s-2.91,2.98-5.12,3.5c-.97,.23-2.32,.57-3.23,.01-.37-.23-.37-.64-.51-.78-.34-.32-.08,.06-.12,.19-.1,.3,0,.56-.23,.91s-.57,.64-.88,.9c-.7,.58-1.52,1.05-2.31,1.48-1.53,.85-3.15,1.5-4.82,2.02-3.75,1.16-7.66,1.65-11.57,1.7s-7.6-.28-11.32-1.08c-3.25-.7-7.02-1.54-9.14-4.35s-1.63-6.07,.18-8.76c1.28-1.9,3.26-3.14,4.67-4.93,1.25-1.59,2-3.49,2.31-5.49,.74-4.64-.15-9.49-.49-14.13-.38-5.24-.68-10.48-.87-15.73-.38-10.5-.32-21.01,.33-31.5s1.9-20.95,3.92-31.26,4.4-19.68,8.11-28.98c3.48-8.71,7.92-17.17,9.51-26.51,1.17-6.89,.21-13.65-2.65-20.01-5.2-11.55-15.54-20.39-18.53-33-.17-.73-.32-1.47-.44-2.22-.13-.79-.57-2.37-.14-3.09,.63-1.08,2.28-.62,2.73,.33,1.34,2.86-2.27,4.43-4.33,5.05-5.72,1.72-11.87,1.53-17.78,1.77-10.29,.43-20.57-.92-30.39-4.04s-18.92-7.51-28.48-11.01c-8.6-3.15-17.39-5.72-26.12-8.47-3.61-1.14-7.44-2.19-11.26-2.12s-7.09,1.61-9.73,4.46c-1.35,1.46-2.51,3.09-3.77,4.63-.4,.48-.97,1.47-1.75,1.27-.9-.23-.57-1.12-.18-1.63,1.3-1.72-1.46-3.69-2.92-2.25-1.03,1.01-1.88-.3-1.12-1.31,1.31-1.72-1.46-3.69-2.92-2.25-1.03,1.01-1.88-.3-1.12-1.31,1.31-1.72-1.46-3.69-2.92-2.25-.7,.68-1.76,.2-1.44-.81,.18-.56,.83-1.04,1.21-1.47,.62-.72,1.23-1.44,1.85-2.17,2.21-2.63,4.37-5.29,6.63-7.88,1.84-2.11,3.67-4.3,6.06-5.81,2.1-1.33,4.41-2.23,6.8-2.87,11.42-3.06,23.28-.42,34.18,3.37,12.97,4.51,25.59,10.33,39.2,12.71,6.65,1.16,13.16,1.3,19.84,.35s13.8-2.49,20.58-4.26c3.2-.84,6.56-2.15,9.91-2.05,.86,.02,1.71,.17,2.54,.39,.49,.13,2.14,.46,2.37,1.03,.02,.06-.07,.53-.04,.56-.03-.03,.68,.12,.77-.04,0,0-.24-.66-.26-.72-.12-.36,.04,.42-.02-.1-.04-.32-.06-.65-.09-.97-.16-1.8-.29-3.6-.48-5.39-.15-1.46-.22-3.07-.71-4.47-.72-2.07-2.3-1.49-4.04-1.71-3.56-.46-6.02-3.57-7.38-6.65-1.51-3.4-2.08-7.49-1.33-11.15,.95-4.62,4.53-8.24,8.85-9.96,5.01-1.99,11.72-1.57,14.6,3.58,1.29,2.31,1.79,5,2.33,7.57,.51,2.41,1.07,4.82,1.62,7.22,.89,3.88,2.4,7.4,5.43,9.73,.32,.24,.6,.53,.94,.76,1.43,.97,3.18,1.42,4.86,1.67,3.79,.55,7.66,.1,11.39-.64,6.64-1.31,13.05-3.72,19.26-6.37,10.29-4.39,20.16-9.77,29.78-15.47,2.17-1.29,4.2-2.48,6.59-3.32,1.64-.58,3.3-1.06,5-1.44,2.95-.66,5.98-.93,9-.71,4.94,.35,9.78,2.31,13.38,5.65s6.1,8.06,7.27,13.06c3.12,13.25-2.05,27.3-9.59,38.16-5.28,7.61-12.08,14.17-19.52,19.64-4.45,3.27-9.25,5.85-13.89,8.8s-8.73,7.25-10.2,12.67c-.8,2.93-.45,5.87,.07,8.82,.2,1.14,1.06,3.35,.63,4.45s-1.47,.46-1.64-.4c-.41-2.05-3.76-1.6-3.65,.49,.07,1.37-1.42,1.54-1.69,.18-.41-2.05-3.76-1.6-3.65,.49,.07,1.37-1.42,1.54-1.69,.18-.41-2.05-3.76-1.6-3.65,.49,.07,1.33-1.35,1.37-1.64,.55-.11-.29-.09-.7-.13-1.01l-.66-5.22c-.59-4.7-1.18-9.39-1.77-14.09-.14-1.15-.29-2.29-.43-3.44-.21-1.66-1.85-2.38-3.18-1.32l-2.45,1.97c-1.04,.83-1.88,1.78-3.25,.85l.86,1.11c-1.22-5.47,3.88-10.84,7.47-14.32,2.64-2.56,5.41-5,8.12-7.5,8.21-7.58,16.34-15.38,23.34-24.12,3.63-4.54,7-9.32,9.26-14.7,.39-.93-.42-2.04-1.3-2.29-1.07-.31-1.9,.38-2.29,1.3-2.41,5.72-6.37,10.83-10.35,15.54-4.5,5.33-9.4,10.33-14.42,15.17-4.09,3.94-8.29,7.75-12.46,11.6s-8.45,8.03-10.46,13.46c-.74,2.01-1.06,4.3-.59,6.41,.52,2.33,3.58,2.87,5.56,2.21s3.93-2.73,5.6-4.07l-3.18-1.32c1,7.92,1.89,15.87,2.99,23.78,.34,2.43,2.25,4.43,4.83,4.29s4.37-2.4,4.25-4.88l-3.65,.49c.47,2.34,2.66,3.98,5.05,3.67s4.07-2.45,3.95-4.84l-3.65,.49c.47,2.34,2.66,3.98,5.05,3.67s4.07-2.45,3.95-4.84l-3.65,.49c.58,2.87,3.86,4.66,6.53,3.22,3.02-1.63,2.48-4.81,1.96-7.63-.63-3.42-1.2-6.66,.13-9.99,1.12-2.79,3.14-5.13,5.41-7.04s4.9-3.18,7.41-4.68,5.03-3.13,7.45-4.84c4.38-3.09,8.55-6.5,12.38-10.25,11.67-11.43,20.98-26.96,21.06-43.72,.06-12.02-5.47-24.19-17.14-28.85-6-2.39-12.73-2.27-18.93-.75-1.86,.45-3.69,1.04-5.47,1.72-2.91,1.12-5.47,2.81-8.16,4.38-5.65,3.3-11.38,6.47-17.23,9.39-7.74,3.87-15.74,7.43-24.1,9.75-4.6,1.28-8.64,2.17-13.33,1.87-.34-.02-.67-.06-1-.09-.56-.05,.04,.01-.12-.01s-.32-.05-.48-.08c-.53-.1-1.06-.22-1.58-.38-.21-.06-.41-.15-.62-.21-.51-.16,.35,.21-.16-.07-.26-.14-.52-.28-.78-.43-.63-.35,.12,.16-.14-.09-.06-.06-.13-.14-.2-.19-1.24-1.01-2.21-1.87-2.95-3.33-1.18-2.33-1.57-5.01-2.13-7.53-1.17-5.28-1.82-11.7-5.82-15.72-4.31-4.33-11.52-4.55-16.92-2.4-4.91,1.95-9.24,5.84-10.86,10.98-1.3,4.13-1.01,8.83,.3,12.92s3.65,7.89,7.42,9.86c.82,.43,1.71,.78,2.62,.99,.69,.16,2.56,.66,3.22,.26-.53,.32-1.19-.9-1.18-.97-.01,.09,.09,.28,.11,.37,.06,.31,.13,.61,.18,.92,.14,.86,.23,1.72,.31,2.59,.18,1.82,.3,3.64,.48,5.46,.19,1.95,.75,4.17,2.9,4.8,2.61,.77,4.31-1.99,4.14-4.27-.18-2.47-2.64-3.69-4.75-4.3-6.32-1.81-12.93,1.16-19.04,2.64-7.23,1.75-14.77,3.51-22.24,3.76-14.68,.48-28.94-5.27-42.41-10.4-12.31-4.68-25.11-9.25-38.5-7.75-5.35,.6-10.85,1.98-15.26,5.2-2.61,1.91-4.68,4.45-6.77,6.89-2.35,2.75-4.63,5.57-6.99,8.33-.98,1.14-2.21,2.23-2.58,3.74-.32,1.29-.09,2.69,.67,3.78,1.68,2.41,5.03,2.42,7.03,.46l-2.92-2.25c-1.45,1.91-1.11,4.67,.72,6.2s4.54,1.29,6.25-.38l-2.92-2.25c-1.45,1.91-1.11,4.67,.72,6.2s4.54,1.29,6.25-.38l-2.92-2.25c-2.99,3.94,1.88,9.1,6.05,6.55,1.83-1.12,3.07-3.43,4.41-5.06s2.89-3.36,4.94-4.1c3.74-1.35,8.17-.12,11.82,.94,4.14,1.21,8.22,2.64,12.36,3.87,11.05,3.28,21.69,7.52,32.36,11.86,10.54,4.28,21.23,7.47,32.62,8.3,4.6,.33,9.17,.18,13.77,.03,3.55-.11,7.1-.29,10.62-.79,3.14-.45,6.58-1.13,9.17-3.08,3.08-2.32,4.01-7.23,.88-9.96s-8.41-.58-8.54,3.67c-.11,3.76,1.23,7.85,2.65,11.28,2.74,6.6,7.07,12.27,11.09,18.13s7.62,11.87,8.47,18.89c1.16,9.52-2.85,18.85-6.53,27.4-2.08,4.85-4.14,9.69-5.74,14.73-1.75,5.51-3.24,11.09-4.49,16.74-2.49,11.21-4.05,22.63-4.89,34.08s-.97,23.57-.52,35.35c.22,5.84,.57,11.68,1.03,17.51,.35,4.45,1.76,10.39-.81,14.42-1.34,2.11-3.62,3.48-5.1,5.52-1.19,1.65-1.98,3.56-2.24,5.57-.5,3.9,1.29,7.59,4.38,9.94s7.42,3.26,11.25,3.88c4.28,.69,8.64,.94,12.97,.61s8.47-1.13,12.4-2.77c3.27-1.37,8.94-4.1,7.95-8.52-.43-1.92-2.18-3.54-4.24-3.16s-3.48,2.73-2.94,4.8c1.37,5.33,9.16,3.82,12.51,1.58,4.4-2.94,5.01-8.41,4.78-13.27-.26-5.52-1.69-10.95-2.48-16.41-1.61-11.18-2.68-22.45-3.11-33.74-.22-5.7-.26-11.41-.11-17.11,.06-2.4-3.66-2.39-3.72,0h0Z"/>
        </g>
        <path d="M305.63,105.03c11.52,10.48,23.26,21.13,31.77,34.3,4.3,6.66,7.47,13.88,9.04,21.67,1.48,7.35,1.49,14.99,.45,22.41-2.15,15.43-8.35,30.04-15.13,43.95-.78,1.6-1.47,3.44-2.57,4.86-.46,.58-1.89,1.86-2.71,1.05-1.51-1.48,5.6-6.14,6.5-6.82,6.53-4.93,13.25-9.6,20.16-13.98s13.86-8.41,21.03-12.19c3.59-1.89,7.21-3.83,10.93-5.47,1.78-.79,3.09-.86,4.5,.56,1.31,1.32,2.48,2.82,3.61,4.29,4.63,6,8.39,12.74,11.05,19.84,1.13,3.03,2.03,6.13,2.9,9.24,.31,1.11,.62,2.24,.8,3.38,.12,.79,.18,1.85,.03,2.46-.18,.76-.35,1.08-1.04,1.44-.99,.51-2.22,.53-3.33,.5-4.03-.13-7.74-1.71-11.82-1.06-6.87,1.08-11.98,6.68-16.84,11.16-11,10.16-25.2,17.36-40.1,19.35-7.24,.97-14.92,.87-21.86-1.61s-11.95-7.54-15.34-13.83c-7.98-14.8-6.45-32.43-2.6-48.18,1.01-4.13,2.17-8.22,3.37-12.3,.68-2.3-2.91-3.29-3.59-.99-5.12,17.47-9.51,35.96-4.2,53.94,2.17,7.37,5.94,14.6,11.93,19.59,6.23,5.2,14.18,7.31,22.17,7.6,16.26,.58,32.58-5.42,45.59-14.96,3.21-2.35,6.19-4.95,9.09-7.68,2.61-2.45,5.25-4.96,8.4-6.73,1.49-.84,3.1-1.49,4.8-1.75,2.02-.31,4.02,.06,6,.46,3.26,.65,7.25,1.45,10.32-.34,4.77-2.79,2.43-9.32,1.25-13.44-2.23-7.75-5.31-15.17-9.62-22.02-2.17-3.45-4.61-6.74-7.27-9.82-1.24-1.44-2.65-2.88-4.58-3.31-2.14-.47-4.16,.36-6.07,1.26-7.94,3.75-15.69,7.94-23.24,12.41-7.5,4.43-14.8,9.19-21.89,14.26-3.52,2.52-6.98,5.11-10.39,7.77-2.62,2.04-6.6,6.04-3.43,9.43,1.2,1.28,3.04,1.66,4.72,1.3,1.83-.4,3.2-1.73,4.21-3.24,1.06-1.59,1.81-3.42,2.65-5.14,.93-1.91,1.84-3.83,2.73-5.76,3.52-7.63,6.72-15.43,9.13-23.49,4.69-15.69,6.13-32.66,.39-48.29-5.88-16-18.06-28.91-30.24-40.41-2.97-2.8-5.99-5.56-9.01-8.31-1.77-1.61-4.41,1.02-2.63,2.63h0Z"/>
        <path d="M114.65,99.02c2.19-2.41,4.39-4.83,6.58-7.24,.32-.35,.63-.69,.95-1.04,.65-.72,.76-1.93,0-2.63-.71-.66-1.93-.77-2.63,0-2.19,2.41-4.39,4.83-6.58,7.24-.32,.35-.63,.69-.95,1.04-.65,.72-.76,1.93,0,2.63,.71,.66,1.93,.77,2.63,0h0Z"/>
        <path d="M118.49,102.85c2.19-2.41,4.39-4.83,6.58-7.24,.32-.35,.63-.69,.95-1.04,.65-.72,.76-1.93,0-2.63-.71-.66-1.93-.77-2.63,0-2.19,2.41-4.39,4.83-6.58,7.24-.32,.35-.63,.69-.95,1.04-.65,.72-.76,1.93,0,2.63,.71,.66,1.93,.77,2.63,0h0Z"/>
        <path d="M122.3,106.45c2.19-2.41,4.39-4.83,6.58-7.24,.32-.35,.63-.69,.95-1.04,.65-.72,.76-1.93,0-2.63-.71-.66-1.93-.77-2.63,0-2.19,2.41-4.39,4.83-6.58,7.24-.32,.35-.63,.69-.95,1.04-.65,.72-.76,1.93,0,2.63,.71,.66,1.93,.77,2.63,0h0Z"/>
        <path d="M258.31,68.87c.43-.18,.85-.36,1.23-.63s.73-.54,1.05-.87c.64-.67,1.11-1.46,1.42-2.33,.1-.29,.03-.7-.13-.96s-.45-.5-.74-.57c-.32-.07-.67-.06-.96,.13s-.46,.42-.57,.74c-.03,.1-.07,.19-.11,.29l.13-.3c-.16,.38-.37,.74-.63,1.07l.19-.25c-.27,.35-.59,.67-.94,.94l.25-.19c-.33,.25-.69,.46-1.07,.63l.3-.13s-.05,.02-.08,.03c-.31,.13-.56,.27-.74,.57-.16,.27-.22,.66-.13,.96s.28,.59,.57,.74,.65,.25,.96,.13h0Z"/>
        <path d="M126.93,79.46c-.33,.82-.67,1.64-1,2.47s-.75,1.64-.99,2.48c-.68,2.47,.72,4.94,3.04,5.85s4.94-.22,5.97-2.35c.28-.58,.48-1.21,.73-1.81,.18-.44-.16,.36,.03-.08,.07-.15,.13-.3,.2-.45,.13-.28,.26-.55,.4-.82,.24-.46,.51-.89,.79-1.33,.22-.34-.28,.31-.02,.02,.07-.08,.13-.16,.21-.23,.06-.06,.16-.13,.21-.2-.26,.19-.32,.24-.17,.13,.05-.03,.09-.06,.14-.08,.85-.48,1.21-1.71,.67-2.55s-1.64-1.18-2.55-.67c-1.62,.92-2.51,2.92-3.2,4.56-.23,.53-.44,1.06-.65,1.6-.02,.04-.2,.41-.05,.14s-.05,.08-.07,.11c0-.02-.12,.21-.13,.2,.17-.21,.2-.25,.07-.09-.05,.06-.11,.12-.16,.17-.05,.05-.14,.1-.17,.16,.2-.28,.22-.16,.04-.05-.08,.05-.17,.09-.26,.14-.3,.17,.1-.07,.12-.05,0,0-.32,.09-.34,.1-.31,.1,.1-.04,.14,0-.03-.03-.31,.02-.36,.02h-.12c-.21-.02-.16-.01,.13,.02-.12-.06-.34-.09-.47-.12-.33-.09,.12,.02,.12,.05,0-.01-.27-.15-.3-.17-.27-.14,.09,.04,.1,.09-.02-.06-.2-.18-.25-.23-.03-.03-.13-.16-.15-.16,.17,.23,.2,.27,.09,.11-.03-.05-.06-.09-.09-.14-.03-.05-.09-.22-.13-.24,.14,.08,.13,.37,.06,.14-.05-.16-.06-.39-.13-.54,.16,.34,.03,.3,.03,.05,0-.08,0-.15,0-.23,0-.4-.13,.42,0,.04,.04-.11,.06-.23,.1-.34,.26-.74,.59-1.45,.88-2.18,.35-.85,.69-1.7,1.04-2.55,.37-.9-.4-2.08-1.3-2.29-1.08-.25-1.89,.33-2.29,1.3h0Z"/>
        <g>
          <path d="M272.71,23.43c-.63-5.29,.39-10.9,3.53-15.2,3.15-4.3,8.58-7.04,13.85-6.27,5.89,.86,10.44,5.68,13.37,10.86,1.68,2.97,3.01,6.16,5.16,8.81s5.39,4.73,8.78,4.37c-.24,.84-.3,1.72-.54,2.57-1.03,3.62-5.12,5.65-8.88,5.55-2.4-.06-15.27-3.07-15.87-5.38-.33-1.28,1.23-2.76,2.3-1.98,.26,.19,.44,.47,.59,.76,2.02,3.8,.09,8.48-2.33,12.04-.76,1.11-1.58,2.22-2.7,2.97s-2.58,1.11-3.83,.61"/>
          <path d="M274.57,23.43c-.51-4.57,.11-9.29,2.59-13.25,2.17-3.46,5.99-6.1,10.11-6.45s7.85,1.72,10.66,4.64c3.19,3.31,4.86,7.49,7.17,11.39,2.58,4.36,6.84,8.52,12.31,8.09l-1.79-2.36c-.48,1.88-.56,3.57-2.11,4.92-1.18,1.02-2.77,1.62-4.31,1.78-.55,.06-1.09,.05-1.64,0-.36-.02-.1,0-.16-.02-.27-.04-.54-.09-.81-.13-1.17-.21-2.33-.46-3.49-.74-2.56-.62-5.27-1.31-7.64-2.39-.42-.19-.83-.41-1.23-.64-.11-.06-.6-.43-.26-.16-.28-.22-.15-.35-.12-.07-.03-.26,.02,.47,.08,.39,.16-.21,.27-.12-.28-.2-.67-.1-.34-.01-.15,.38,.39,.83,.52,1.73,.5,2.64-.06,2.32-1.16,4.55-2.36,6.49-1.03,1.66-2.67,4.34-4.99,3.58s-3.26,2.85-.99,3.59c3.12,1.02,5.95-.86,7.79-3.26s3.25-4.94,3.91-7.75c.62-2.6,.61-6.19-1.38-8.26s-5.59-.29-5.73,2.48c-.18,3.46,4.78,4.71,7.32,5.51,3.2,1.02,6.63,2,10,2.29,2.48,.21,5.2-.49,7.27-1.87,1.19-.79,2.24-1.8,2.98-3.03,.86-1.43,1-2.97,1.4-4.54,.28-1.09-.55-2.45-1.79-2.36-5.17,.4-8.23-4.5-10.33-8.48-2.21-4.19-4.47-8.34-8.15-11.44s-8-4.73-12.71-4.07-8.83,3.39-11.58,7.16c-3.34,4.59-4.41,10.57-3.79,16.14,.11,1.01,.77,1.85,1.86,1.86,.92,0,1.97-.86,1.86-1.86h0Z"/>
        </g>
      </g>
    </g>
  </g>
</svg>