<svg id="Layer_1" data-name="Layer 1" xmlns="http://www.w3.org/2000/svg" viewBox="0 0 1089.43 317.3"><defs><style>.cls-1{fill:#fff;}</style></defs><g id="Layer_2" data-name="Layer 2"><g id="Layer_1-2" data-name="Layer 1-2"><path class="cls-1" d="M1000.36,0H0V26.73H65.74V317.3h81.94V26.73H1010Z"/><path class="cls-1" d="M184.11,317.3V51H298.63Q343.3,51,370,69.83t26.73,50.43q0,48.37-57.36,63,29.46,10.94,38.14,24T389.35,258q3.7,44.88,15,59.31H320.48q-8-18.53-8-46.24l-.39-15.8-.39-19.9q0-46-37.07-46H261.37v128Zm77.26-150H277q43.9,0,43.9-45.84T277,75.58H261.4Z"/><path class="cls-1" d="M514,51V317.3H436.75V51Z"/><path class="cls-1" d="M752.22,51,675,317.3H605.7L535.08,51h78l52.67,201.72L723.34,51Z"/><path class="cls-1" d="M850,51V317.3H772.7V51Z"/><path class="cls-1" d="M872.29,317.3,949.55,51h69.26l70.62,266.3h-78L958.72,115.58,901.17,317.3Z"/></g></g></svg>