<?xml version="1.0" encoding="UTF-8"?>
<svg id="Layer_2" data-name="Layer 2" xmlns="http://www.w3.org/2000/svg" viewBox="0 0 525.03 185.31">
  <defs>
    <style>
      .cls-1 {
        fill: #ffc814;
      }
    </style>
  </defs>
  <g id="Layer_1-2" data-name="Layer 1">
    <g>
      <path class="cls-1" d="M120.74,134.52c-1.18-1.88-2.78-2.82-4.82-2.82-2.35,0-4.47,1.1-6.35,3.29-7.05,8.15-13.17,14.26-18.34,18.34-5.17,4.08-11.13,6.11-17.87,6.11-8.31,0-14.38-3.29-18.22-9.88-3.84-6.58-5.76-18.02-5.76-34.33,0-4.39,.15-10.5,.47-18.34h28.69c17.71,0,26.57-5.41,26.57-16.22,0-2.98-.55-5.02-1.65-6.11-1.1-1.1-2.9-1.65-5.41-1.65h-26.33c.12-.1-10.71,.09-13.55,.1-1.34,0-2.68-.08-4.02-.19-1.7-.13-2.51-2.49-2.08-4.75,1.7-12.26,4.09-23.26,6.6-33.37,2.59-10.42,5.33-18.58,8.23-24.45h0c1.32-2.67,.33-5.9-2.25-7.38-.84-.48-1.68-.95-2.53-1.4-5.88-3.13-13.2-1.15-16.58,4.59-3.4,5.77-6.51,12.3-9.32,19.59-5.49,14.27-9.56,30.02-12.23,47.26H10.58c-7.05,0-10.58,4.39-10.58,13.17,0,3.76,.82,6.51,2.47,8.23,1.65,1.73,4.82,2.59,9.52,2.59h9.17c-.47,7.05-.7,14.03-.7,20.93,0,44.99,15.99,67.48,47.97,67.48,10.35,0,19.52-2.66,27.51-8,8-5.33,15.36-12.15,22.1-20.46,2.98-3.45,4.47-8.31,4.47-14.58,0-3.29-.59-5.88-1.76-7.76Z"/>
      <path class="cls-1" d="M107.57,175.9c-2.43-6.27-3.64-16.3-3.64-30.1,0-20.37,2.9-39.74,8.7-58.08,1.41-4.54,3.72-7.88,6.94-9.99,3.21-2.12,7.72-3.17,13.52-3.17,3.13,0,5.33,.39,6.58,1.17,1.25,.79,1.88,2.27,1.88,4.47,0,2.51-1.18,8.15-3.53,16.93-1.57,6.27-2.82,11.76-3.76,16.46-.94,4.7-1.73,10.5-2.35,17.4,5.17-13.48,10.97-24.45,17.4-32.92,6.43-8.47,12.73-14.5,18.93-18.11,6.19-3.6,11.87-5.41,17.05-5.41,10.19,0,15.28,5.1,15.28,15.28,0,2.04-.7,6.98-2.12,14.81-1.26,6.27-1.88,10.19-1.88,11.76,0,5.49,1.96,8.23,5.88,8.23,4.39,0,10.03-3.45,16.93-10.35,2.04-2.04,4.15-3.06,6.35-3.06,2.04,0,3.64,.9,4.82,2.7,1.18,1.8,1.76,4.2,1.76,7.17,0,5.8-1.57,10.35-4.7,13.64-4.39,4.55-9.52,8.43-15.4,11.64-5.88,3.22-12.11,4.82-18.69,4.82-8.31,0-14.62-2.12-18.93-6.35-4.31-4.23-6.47-9.95-6.47-17.16,0-2.35,.23-4.7,.7-7.05,.31-3.13,.47-5.25,.47-6.35,0-2.51-.86-3.76-2.59-3.76-2.35,0-5.45,2.63-9.29,7.88-3.84,5.25-7.64,12.19-11.4,20.81-3.76,8.62-6.82,17.72-9.17,27.28-1.73,7.37-3.72,12.35-6,14.93-2.27,2.59-5.84,3.88-10.7,3.88-5.96,0-10.15-3.13-12.58-9.41Z"/>
      <path class="cls-1" d="M217.14,174.49c-4.62-7.21-6.94-16.77-6.94-28.69,0-7.05,.9-16.11,2.7-27.16,1.8-11.05,4.11-21.36,6.94-30.92,1.41-5.02,3.29-8.47,5.64-10.35,2.35-1.88,6.11-2.82,11.29-2.82,7.99,0,11.99,2.67,11.99,7.99,0,3.92-1.49,13.01-4.47,27.28-3.76,17.24-5.64,28.92-5.64,35.04,0,4.7,.62,8.31,1.88,10.82,1.25,2.51,3.37,3.76,6.35,3.76,2.82,0,6.35-1.96,10.58-5.88,4.23-3.92,9.88-10.11,16.93-18.57,1.88-2.19,4-3.29,6.35-3.29,2.04,0,3.64,.94,4.82,2.82,1.18,1.88,1.76,4.47,1.76,7.76,0,6.27-1.49,11.13-4.47,14.58-15.52,18.97-30.02,28.45-43.5,28.45-10.19,0-17.6-3.61-22.22-10.82Z"/>
      <path class="cls-1" d="M226.42,54.46c-3.29-3.06-4.94-7.33-4.94-12.81s2.15-10.07,6.47-13.76c4.31-3.68,9.68-5.53,16.11-5.53,5.8,0,10.5,1.41,14.11,4.23,3.6,2.82,5.41,6.82,5.41,11.99,0,6.27-2.04,11.25-6.11,14.93-4.08,3.69-9.49,5.52-16.22,5.52s-11.52-1.53-14.81-4.58Z"/>
      <path class="cls-1" d="M389.36,112.42c2.35,0,4.15,.79,5.41,2.35,1.25,1.57,1.88,3.68,1.88,6.35,0,4.86-.94,8.66-2.82,11.4-1.88,2.74-4.7,4.74-8.46,6-7.21,2.35-14.89,3.53-23.04,3.53-6.9,0-13.4-.94-19.52-2.82-4.55,7.37-9.56,14.97-15.05,22.81-6.27,8.93-11.68,15.05-16.22,18.34-4.55,3.29-9.72,4.94-15.52,4.94-6.43,0-11.48-2.51-15.17-7.52-3.68-5.02-6-12.93-6.94-23.75-1.88-21.94-2.82-41.15-2.82-57.61v-8.23c.15-5.17,1.56-8.78,4.23-10.82,2.66-2.04,6.66-3.06,11.99-3.06,4.07,0,7.09,.9,9.05,2.7,1.96,1.8,2.94,4.82,2.94,9.05,0,18.03,1.1,41.46,3.29,70.3,9.4-13.95,16.46-25.08,21.16-33.39-2.35-4.54-3.53-9.95-3.53-16.22,0-5.33,1.18-10.5,3.53-15.52,2.35-5.02,5.56-9.09,9.64-12.23,4.07-3.13,8.7-4.7,13.87-4.7,4.54,0,8.23,1.61,11.05,4.82,2.82,3.22,4.23,7.88,4.23,13.99,0,7.05-1.88,15.13-5.64,24.22,5.96-.31,13.87-1.49,23.75-3.53l6.35-1.18c.47-.15,1.25-.24,2.35-.24Z"/>
      <path class="cls-1" d="M382.9,174.49c-4.62-7.21-6.94-16.77-6.94-28.69,0-7.05,.9-16.11,2.7-27.16,1.8-11.05,4.11-21.36,6.94-30.92,1.41-5.02,3.29-8.47,5.64-10.35,2.35-1.88,6.11-2.82,11.29-2.82,7.99,0,11.99,2.67,11.99,7.99,0,3.92-1.49,13.01-4.47,27.28-3.76,17.24-5.64,28.92-5.64,35.04,0,4.7,.62,8.31,1.88,10.82,1.25,2.51,3.37,3.76,6.35,3.76,2.82,0,6.35-1.96,10.58-5.88,4.23-3.92,9.88-10.11,16.93-18.57,1.88-2.19,4-3.29,6.35-3.29,2.04,0,3.64,.94,4.82,2.82,1.18,1.88,1.76,4.47,1.76,7.76,0,6.27-1.49,11.13-4.47,14.58-15.52,18.97-30.02,28.45-43.5,28.45-10.19,0-17.6-3.61-22.22-10.82Z"/>
      <path class="cls-1" d="M392.18,54.46c-3.29-3.06-4.94-7.33-4.94-12.81s2.15-10.07,6.47-13.76c4.31-3.68,9.68-5.53,16.11-5.53,5.8,0,10.5,1.41,14.11,4.23,3.6,2.82,5.41,6.82,5.41,11.99,0,6.27-2.04,11.25-6.11,14.93-4.08,3.69-9.49,5.52-16.22,5.52s-11.52-1.53-14.81-4.58Z"/>
      <path class="cls-1" d="M439.32,174.73c-5.57-7.05-8.35-16.3-8.35-27.75,0-12.54,2.9-24.41,8.7-35.62,5.8-11.21,13.52-20.22,23.16-27.04s19.87-10.23,30.68-10.23c3.45,0,5.76,.67,6.94,2,1.18,1.33,2.15,3.73,2.94,7.17,2.98-.62,6.27-.94,9.88-.94s6.66,.94,8.7,2.82c2.04,1.88,3.06,4.55,3.06,7.99s-.79,9.88-2.35,18.81c-1.73,9.56-3.06,18.69-4,27.39-.94,8.7-1.41,18.46-1.41,29.27,0,5.96-1.22,10.23-3.64,12.81-2.43,2.59-6.39,3.88-11.87,3.88s-9.29-1.29-11.87-3.88c-2.59-2.59-3.88-6.78-3.88-12.58l.24-3.76c-4.86,13.48-13.25,20.22-25.16,20.22-8.94,0-16.19-3.53-21.75-10.58Zm42.91-22.34c3.6-6.11,6.82-17.01,9.64-32.68l4.47-23.75c-6.43,.16-12.38,2.63-17.87,7.41-5.49,4.78-9.88,11.09-13.17,18.93-3.29,7.84-4.94,16.15-4.94,24.92,0,4.7,.9,8.27,2.7,10.7,1.8,2.43,4.19,3.64,7.17,3.64,4.39,0,8.38-3.06,11.99-9.17Z"/>
    </g>
  </g>
</svg>